<?xml version="1.0" encoding="utf-8"?>
<!-- Generator: Adobe Illustrator 27.0.0, SVG Export Plug-In . SVG Version: 6.00 Build 0)  -->
<svg version="1.1" id="Layer_1" xmlns="http://www.w3.org/2000/svg" xmlns:xlink="http://www.w3.org/1999/xlink" x="0px" y="0px"
	 viewBox="0 0 284.9 144" style="enable-background:new 0 0 284.9 144;" xml:space="preserve">
<style type="text/css">
	.st0{fill:#5E192E;}
	.st1{fill:#161639;}
	.st2{fill:none;stroke:#000000;stroke-width:1.059;stroke-miterlimit:10;}
	.st3{fill:#F9F9FA;stroke:#000000;stroke-width:0.9413;stroke-miterlimit:10;}
	.st4{fill:none;stroke:#000000;stroke-width:0.4689;stroke-miterlimit:10;}
	.st5{fill:none;stroke:#000000;stroke-width:1.4218;stroke-miterlimit:10;}
	.st6{fill:#F9F9FA;stroke:#000000;stroke-width:1.2638;stroke-miterlimit:10;}
	.st7{fill:none;stroke:#000000;stroke-width:0.8518;stroke-miterlimit:10;}
	.st8{fill:none;stroke:#000000;stroke-width:1.4;stroke-miterlimit:10;}
	.st9{fill:#F9F9FA;stroke:#000000;stroke-width:1.4;stroke-miterlimit:10;}
	.st10{fill:none;stroke:#000000;stroke-miterlimit:10;}
	.st11{fill:#F9F9FA;stroke:#000000;stroke-width:0.8297;stroke-miterlimit:10;}
	.st12{fill:none;stroke:#000000;stroke-width:0.4892;stroke-miterlimit:10;}
	.st13{fill:none;stroke:#000000;stroke-width:0.8117;stroke-miterlimit:10;}
	.st14{fill:#F9F9FA;stroke:#000000;stroke-width:0.7215;stroke-miterlimit:10;}
	.st15{fill:none;stroke:#000000;stroke-width:0.4863;stroke-miterlimit:10;}
	.st16{fill:#FFFFFF;}
	.st17{fill:none;stroke:#000000;stroke-width:0.8854;stroke-miterlimit:10;}
	.st18{fill:#F9F9FA;stroke:#000000;stroke-width:0.787;stroke-miterlimit:10;}
	.st19{fill:none;stroke:#000000;stroke-width:0.5304;stroke-miterlimit:10;}
	.st20{fill:#F6CB12;}
	.st21{fill:#B82326;}
	.st22{fill:#781547;}
	.st23{fill:#AB2A2F;}
	.st24{fill:#3D171D;}
	.st25{fill:#561426;}
	.st26{fill:#72152D;}
	.st27{fill:#EAC095;}
	.st28{fill:#F6DAAB;}
	.st29{fill:#F5AB23;}
	.st30{fill:none;stroke:#72152D;stroke-width:0.8117;stroke-miterlimit:10;}
	.st31{fill:none;stroke:#72152D;stroke-width:0.7215;stroke-miterlimit:10;}
	.st32{fill:none;stroke:#72152D;stroke-width:0.4863;stroke-miterlimit:10;}
	.st33{fill:none;stroke:#FFFFFF;stroke-width:0.8117;stroke-miterlimit:10;}
	.st34{fill:none;stroke:#FFFFFF;stroke-width:0.7215;stroke-miterlimit:10;}
	.st35{fill:none;stroke:#FFFFFF;stroke-width:0.4863;stroke-miterlimit:10;}
	.st36{fill:none;stroke:#FFFFFF;stroke-width:0.6566;stroke-miterlimit:10;}
	.st37{fill:none;stroke:#FFFFFF;stroke-width:0.5836;stroke-miterlimit:10;}
	.st38{fill:none;stroke:#FFFFFF;stroke-width:0.3934;stroke-miterlimit:10;}
	.st39{fill:none;stroke:#000000;stroke-width:1.3605;stroke-miterlimit:10;}
	.st40{fill:none;stroke:#000000;stroke-width:1.2093;stroke-miterlimit:10;}
	.st41{fill:none;stroke:#000000;stroke-width:0.8151;stroke-miterlimit:10;}
	.st42{fill:none;stroke:#151538;stroke-width:0.532;stroke-miterlimit:10;}
	.st43{fill:none;stroke:#151538;stroke-width:0.4729;stroke-miterlimit:10;}
	.st44{fill:#151538;}
	.st45{fill:none;stroke:#151538;stroke-width:0.3187;stroke-miterlimit:10;}
	.st46{fill:none;stroke:#46151B;stroke-width:0.6;stroke-miterlimit:10;}
	.st47{fill:none;stroke:#46151B;stroke-width:0.532;stroke-miterlimit:10;}
	.st48{fill:#46151B;}
	.st49{fill:none;stroke:#46151B;stroke-width:0.35;stroke-miterlimit:10;}
	.st50{fill:none;stroke:#151538;stroke-width:0.5;stroke-miterlimit:10;}
	.st51{fill:none;stroke:#151538;stroke-width:0.4117;stroke-miterlimit:10;}
	.st52{fill:none;stroke:#151538;stroke-width:0.3;stroke-miterlimit:10;}
	.st53{fill:none;stroke:#FFFFFF;stroke-width:0.7281;stroke-miterlimit:10;}
	.st54{fill:none;stroke:#FFFFFF;stroke-width:0.6472;stroke-miterlimit:10;}
	.st55{fill:none;stroke:#FFFFFF;stroke-width:0.4362;stroke-miterlimit:10;}
	.st56{fill:none;stroke:#46151B;stroke-width:0.4998;stroke-miterlimit:10;}
	.st57{fill:none;stroke:#46151B;stroke-width:0.4;stroke-miterlimit:10;}
	.st58{font-family:'CGTimes-Bold';}
	.st59{font-size:11.537px;}
	.st60{font-size:19.6254px;}
	.st61{font-size:11.8187px;}
	.st62{font-family:'CGTimes-Regular';}
	.st63{font-size:40.0226px;}
	.st64{font-size:40.0231px;}
	.st65{fill:none;stroke:#5E192E;stroke-width:0.7281;stroke-miterlimit:10;}
	.st66{fill:none;stroke:#5E192E;stroke-width:0.6472;stroke-miterlimit:10;}
	.st67{fill:none;stroke:#5E192E;stroke-width:0.4362;stroke-miterlimit:10;}
	.st68{font-family:'AvenirLTStd-Roman';}
	.st69{font-size:5.382px;}
	.st70{fill:#FFFFFF;stroke:#FFFFFF;stroke-width:0.25;stroke-miterlimit:10;}
	.st71{fill:none;stroke:#FFFFFF;stroke-width:0.7096;stroke-miterlimit:10;}
	.st72{fill:none;stroke:#FFFFFF;stroke-width:0.6308;stroke-miterlimit:10;}
	.st73{fill:none;stroke:#FFFFFF;stroke-width:0.4251;stroke-miterlimit:10;}
</style>
<g>
	<g>
		<text transform="matrix(1 0 0 1 224.611 83.9039)" class="st0 st58 st59">LTD.</text>
		<g>
			<text transform="matrix(1 0 0 1 101.4254 70.188)" class="st0 st58 st60">HAZANCH</text>
			<text transform="matrix(1 0 0 1 114.9821 83.9878)" class="st0 st58 st61">JEWELLERS</text>
			<text transform="matrix(1 0 0 1 73.0075 83.7955)" class="st0 st62 st63">K</text>
			<text transform="matrix(1.098 0 0 1 206.3747 83.7964)" class="st0 st62 st64">I</text>
		</g>
	</g>
	<g>
		<path class="st65" d="M54.33,85.41c-2.27,1.97-4.95,3.11-7.82,3.11c-8.19,0-14.83-9.26-14.83-20.68
			c0-11.42,6.64-20.68,14.83-20.68c6.04,0,11.24,5.04,13.55,12.27"/>
		<path class="st65" d="M60.67,61.7c0.44,1.94,0.67,4,0.67,6.14c0,5.46-1.52,10.43-3.99,14.12"/>
		<path class="st66" d="M43.15,62.13l-0.1-3.05c0,0-2.13-1.32-0.53-2.12c0.27-0.13,0.56-0.21,0.86-0.23l5.48-0.36
			c0.42-0.03,0.84,0.08,1.18,0.34c0.5,0.38,0.82,1.08-0.75,2.2l0.29,5.3l10.37-4.75c0,0,4.51-1.56,1.04,1.99
			c-0.08,0.09-0.18,0.16-0.28,0.23c-1.19,0.76-9.39,6.08-11.44,10.45c0.09,0.04,3.06,1.04,4.62,4.94c0.06,0.14,0.12,0.28,0.19,0.42
			c1.26,2.35,2.36,3.79,2.99,4.32c0.19,0.16,0.44,0.24,0.69,0.24c0.91-0.02,3.15,0.11,1.05,2.03c-2.59,2.36-2.88,2.19-3.87,1.9
			c-0.99-0.29-2.39-4.86-6.5-5.85c0,0-0.31,4.34-4.08,2.86c-3.72-1.46-3.26-0.47-3.46,0.08c-0.17,0.46-1.09,1.61-2.29-0.12
			c-1.2-1.73-1.36-3.4,0.25-3.81c1.61-0.41,4.93,0.82,4.83-2.83l-0.27-8.76c0,0-1.69-1.3-2.21,0.47c0,0-0.54,0.99,1.11,1.44
			c1.65,0.45-0.39,3.01-1.22,2.49c-0.83-0.52-2.1-2.01-4.78-3.18C33.48,67.5,43.15,62.13,43.15,62.13z"/>
		<g>
			<g>
				<g>
					<path class="st0" d="M49.9,52.4l-3.73,3.68l-4.09-3.33L49.9,52.4 M51.01,51.92l-10.09,0.44l5.28,4.3L51.01,51.92L51.01,51.92z"
						/>
				</g>
				<polyline class="st67" points="41.04,52.45 43.33,49.99 48.37,49.77 50.9,52.03 				"/>
				<line class="st67" x1="46.18" y1="56.36" x2="43.29" y2="52.45"/>
				<line class="st67" x1="48.59" y1="52.22" x2="46.18" y2="56.36"/>
				<line class="st67" x1="43.24" y1="52.32" x2="43.33" y2="49.99"/>
				<line class="st67" x1="48.68" y1="52.1" x2="48.37" y2="49.77"/>
				<line class="st67" x1="43.26" y1="52.34" x2="44.84" y2="49.92"/>
				<line class="st67" x1="48.66" y1="52.12" x2="46.86" y2="49.83"/>
			</g>
			<line class="st67" x1="44.84" y1="49.92" x2="45.97" y2="52.21"/>
			<line class="st67" x1="46.86" y1="49.83" x2="45.97" y2="52.21"/>
			<line class="st67" x1="45.96" y1="52.13" x2="46.18" y2="56.36"/>
		</g>
	</g>
	<text transform="matrix(1 0 0 1 34.2474 95.8668)" class="st0 st68 st69">Since 1971</text>
</g>
</svg>
