<?xml version="1.0" encoding="UTF-8"?>
<svg xmlns="http://www.w3.org/2000/svg" xmlns:xlink="http://www.w3.org/1999/xlink" width="237px" height="53px" viewBox="0 0 237 53" version="1.1">
<g id="surface1">
<path style=" stroke:none;fill-rule:nonzero;fill:rgb(36.862745%,10.196078%,18.039216%);fill-opacity:1;" d="M 208.28125 40 L 208.28125 39.644531 L 208.398438 39.644531 C 208.773438 39.644531 209.03125 39.570312 209.183594 39.417969 C 209.332031 39.269531 209.40625 39.007812 209.40625 38.640625 L 209.40625 32.832031 C 209.40625 32.464844 209.332031 32.207031 209.183594 32.054688 C 209.03125 31.90625 208.765625 31.832031 208.386719 31.832031 L 208.269531 31.832031 L 208.269531 31.472656 L 212.5625 31.472656 L 212.5625 31.832031 L 212.445312 31.832031 C 212.070312 31.832031 211.8125 31.90625 211.664062 32.054688 C 211.511719 32.207031 211.4375 32.464844 211.4375 32.832031 L 211.4375 38.824219 C 211.4375 39.105469 211.480469 39.289062 211.578125 39.375 C 211.671875 39.460938 211.84375 39.515625 212.125 39.515625 L 212.144531 39.515625 C 213.164062 39.515625 213.90625 39.34375 214.378906 39.019531 C 214.851562 38.695312 215.28125 38.015625 215.675781 37.015625 L 216.019531 37.089844 L 215.71875 38.554688 L 215.421875 40.023438 L 208.292969 40.023438 Z M 208.28125 40 "/>
<path style=" stroke:none;fill-rule:nonzero;fill:rgb(36.862745%,10.196078%,18.039216%);fill-opacity:1;" d="M 219.347656 38.632812 L 219.347656 31.96875 L 219.296875 31.96875 C 218.597656 31.96875 218.0625 32.144531 217.683594 32.5 C 217.296875 32.855469 217.074219 33.382812 216.996094 34.09375 L 216.589844 34.09375 L 216.589844 31.441406 L 224.125 31.441406 L 224.125 34.09375 L 223.761719 34.09375 C 223.6875 33.382812 223.449219 32.84375 223.074219 32.5 C 222.6875 32.144531 222.152344 31.96875 221.464844 31.96875 L 221.378906 31.96875 L 221.378906 38.632812 C 221.378906 39 221.453125 39.257812 221.605469 39.40625 C 221.753906 39.558594 222.023438 39.632812 222.398438 39.632812 L 222.515625 39.632812 L 222.515625 39.988281 L 218.277344 39.988281 L 218.277344 39.632812 L 218.382812 39.632812 C 218.738281 39.632812 218.996094 39.558594 219.132812 39.40625 C 219.273438 39.257812 219.347656 39 219.347656 38.632812 Z M 219.347656 38.632812 "/>
<path style=" stroke:none;fill-rule:nonzero;fill:rgb(36.862745%,10.196078%,18.039216%);fill-opacity:1;" d="M 225.789062 38.632812 L 225.789062 32.820312 C 225.789062 32.457031 225.714844 32.195312 225.566406 32.046875 C 225.414062 31.894531 225.144531 31.820312 224.769531 31.820312 L 224.652344 31.820312 L 224.652344 31.464844 L 228.765625 31.464844 C 230.136719 31.464844 231.199219 31.839844 231.972656 32.59375 C 232.734375 33.351562 233.121094 34.394531 233.121094 35.742188 C 233.121094 37.089844 232.703125 38.125 231.878906 38.878906 C 231.050781 39.632812 229.890625 40.011719 228.398438 40.011719 L 224.664062 40.011719 L 224.664062 39.65625 L 224.78125 39.65625 C 225.15625 39.65625 225.414062 39.582031 225.566406 39.429688 C 225.714844 39.277344 225.789062 39.019531 225.789062 38.652344 Z M 227.820312 38.804688 C 227.820312 39.085938 227.863281 39.277344 227.957031 39.363281 C 228.054688 39.449219 228.238281 39.492188 228.527344 39.484375 C 229.355469 39.449219 229.964844 39.148438 230.363281 38.578125 C 230.792969 37.972656 231.007812 37.027344 230.996094 35.730469 C 230.996094 34.492188 230.792969 33.554688 230.375 32.917969 C 229.957031 32.28125 229.34375 31.96875 228.539062 31.96875 C 228.25 31.96875 228.066406 32.011719 227.96875 32.109375 C 227.875 32.207031 227.832031 32.390625 227.832031 32.683594 L 227.832031 38.804688 Z M 227.820312 38.804688 "/>
<path style=" stroke:none;fill-rule:nonzero;fill:rgb(36.862745%,10.196078%,18.039216%);fill-opacity:1;" d="M 235.441406 38.039062 C 235.742188 38.039062 235.988281 38.148438 236.191406 38.351562 C 236.398438 38.554688 236.503906 38.816406 236.503906 39.105469 C 236.503906 39.398438 236.398438 39.65625 236.191406 39.859375 C 235.988281 40.066406 235.742188 40.171875 235.441406 40.171875 C 235.140625 40.171875 234.894531 40.066406 234.691406 39.859375 C 234.484375 39.65625 234.378906 39.40625 234.378906 39.105469 C 234.378906 38.804688 234.476562 38.554688 234.691406 38.351562 C 234.90625 38.148438 235.140625 38.039062 235.441406 38.039062 Z M 235.441406 38.039062 "/>
<path style=" stroke:none;fill-rule:nonzero;fill:rgb(36.862745%,10.196078%,18.039216%);fill-opacity:1;" d="M 78.003906 22.894531 L 78.003906 13.011719 C 78.003906 12.386719 77.875 11.941406 77.621094 11.683594 C 77.363281 11.425781 76.910156 11.296875 76.277344 11.296875 L 76.085938 11.296875 L 76.085938 10.691406 L 83.382812 10.691406 L 83.382812 11.296875 L 83.191406 11.296875 C 82.558594 11.296875 82.117188 11.425781 81.847656 11.683594 C 81.589844 11.941406 81.460938 12.386719 81.460938 13.011719 L 81.460938 17.179688 L 86.433594 17.179688 L 86.433594 13.011719 C 86.433594 12.386719 86.304688 11.941406 86.046875 11.683594 C 85.789062 11.425781 85.339844 11.296875 84.703125 11.296875 L 84.511719 11.296875 L 84.511719 10.691406 L 91.8125 10.691406 L 91.8125 11.296875 L 91.617188 11.296875 C 90.984375 11.296875 90.542969 11.425781 90.277344 11.683594 C 90.019531 11.941406 89.890625 12.386719 89.890625 13.011719 L 89.890625 22.894531 C 89.890625 23.519531 90.019531 23.960938 90.277344 24.21875 C 90.535156 24.480469 90.984375 24.609375 91.628906 24.609375 L 91.824219 24.609375 L 91.824219 25.222656 L 84.523438 25.222656 L 84.523438 24.609375 L 84.714844 24.609375 C 85.347656 24.609375 85.789062 24.480469 86.058594 24.21875 C 86.324219 23.960938 86.445312 23.519531 86.445312 22.894531 L 86.445312 18.152344 L 81.472656 18.152344 L 81.472656 22.894531 C 81.472656 23.519531 81.601562 23.960938 81.859375 24.21875 C 82.117188 24.480469 82.566406 24.609375 83.210938 24.609375 L 83.40625 24.609375 L 83.40625 25.222656 L 76.105469 25.222656 L 76.105469 24.609375 L 76.296875 24.609375 C 76.933594 24.609375 77.371094 24.480469 77.640625 24.21875 C 77.898438 23.960938 78.027344 23.519531 78.027344 22.894531 Z M 78.003906 22.894531 "/>
<path style=" stroke:none;fill-rule:nonzero;fill:rgb(36.862745%,10.196078%,18.039216%);fill-opacity:1;" d="M 94.171875 22.894531 L 99.304688 10.359375 L 99.863281 10.359375 L 105.21875 22.894531 C 105.488281 23.519531 105.746094 23.960938 105.992188 24.21875 C 106.238281 24.480469 106.539062 24.609375 106.894531 24.609375 L 107.003906 24.609375 L 107.003906 25.222656 L 100.078125 25.222656 L 100.078125 24.609375 L 100.292969 24.609375 C 100.925781 24.609375 101.34375 24.46875 101.546875 24.175781 C 101.753906 23.886719 101.730469 23.464844 101.484375 22.894531 L 100.699219 20.988281 L 96.007812 20.988281 L 95.269531 22.894531 C 95.054688 23.433594 95.054688 23.820312 95.269531 24.082031 C 95.484375 24.339844 95.957031 24.511719 96.683594 24.597656 L 96.910156 24.597656 L 96.910156 25.210938 L 92.488281 25.210938 L 92.488281 24.597656 L 92.585938 24.597656 C 92.917969 24.566406 93.195312 24.425781 93.433594 24.167969 C 93.667969 23.90625 93.914062 23.488281 94.164062 22.882812 Z M 96.386719 20.027344 L 100.3125 20.027344 L 98.285156 15.144531 L 96.394531 20.027344 Z M 96.386719 20.027344 "/>
<path style=" stroke:none;fill-rule:nonzero;fill:rgb(36.862745%,10.196078%,18.039216%);fill-opacity:1;" d="M 107.65625 24.996094 L 115.859375 11.5 L 113.410156 11.5 C 112.210938 11.5 111.242188 11.804688 110.523438 12.40625 C 109.804688 13.011719 109.332031 13.914062 109.097656 15.132812 L 108.410156 15.132812 L 108.613281 12.914062 L 108.816406 10.691406 L 120.066406 10.691406 L 120.066406 10.910156 L 111.886719 24.382812 L 115.023438 24.382812 C 116.492188 24.382812 117.566406 24.089844 118.230469 23.5 C 118.898438 22.90625 119.488281 21.71875 119.992188 19.941406 L 120.507812 19.941406 L 120.269531 22.582031 L 120.023438 25.222656 L 107.644531 25.222656 L 107.644531 25.007812 Z M 107.65625 24.996094 "/>
<path style=" stroke:none;fill-rule:nonzero;fill:rgb(36.862745%,10.196078%,18.039216%);fill-opacity:1;" d="M 123.320312 22.894531 L 128.453125 10.359375 L 129.011719 10.359375 L 134.367188 22.894531 C 134.636719 23.519531 134.894531 23.960938 135.140625 24.21875 C 135.386719 24.480469 135.6875 24.609375 136.042969 24.609375 L 136.148438 24.609375 L 136.148438 25.222656 L 129.226562 25.222656 L 129.226562 24.609375 L 129.441406 24.609375 C 130.074219 24.609375 130.492188 24.46875 130.695312 24.175781 C 130.898438 23.886719 130.878906 23.464844 130.632812 22.894531 L 129.847656 20.988281 L 125.15625 20.988281 L 124.414062 22.894531 C 124.199219 23.433594 124.199219 23.820312 124.414062 24.082031 C 124.628906 24.339844 125.101562 24.511719 125.832031 24.597656 L 126.058594 24.597656 L 126.058594 25.210938 L 121.632812 25.210938 L 121.632812 24.597656 L 121.730469 24.597656 C 122.0625 24.566406 122.34375 24.425781 122.578125 24.167969 C 122.816406 23.90625 123.0625 23.488281 123.308594 22.882812 Z M 125.53125 20.027344 L 129.460938 20.027344 L 127.433594 15.144531 L 125.542969 20.027344 Z M 125.53125 20.027344 "/>
<path style=" stroke:none;fill-rule:nonzero;fill:rgb(36.862745%,10.196078%,18.039216%);fill-opacity:1;" d="M 139.5625 22.378906 C 139.5625 23.152344 139.691406 23.703125 139.949219 24.035156 C 140.207031 24.371094 140.65625 24.566406 141.292969 24.609375 L 141.484375 24.609375 L 141.484375 25.222656 L 136.75 25.222656 L 136.75 24.609375 L 136.945312 24.609375 C 137.578125 24.566406 138.015625 24.371094 138.285156 24.035156 C 138.542969 23.703125 138.671875 23.152344 138.671875 22.378906 L 138.671875 12.835938 C 138.222656 12.296875 137.84375 11.910156 137.554688 11.683594 C 137.246094 11.425781 136.953125 11.296875 136.707031 11.296875 L 136.632812 11.296875 L 136.632812 10.691406 L 141.195312 10.691406 L 148.675781 19.886719 L 148.675781 13.539062 C 148.675781 12.761719 148.546875 12.210938 148.289062 11.878906 C 148.035156 11.542969 147.582031 11.351562 146.9375 11.308594 L 146.746094 11.308594 L 146.746094 10.703125 L 151.480469 10.703125 L 151.480469 11.308594 L 151.285156 11.308594 C 150.652344 11.351562 150.210938 11.542969 149.945312 11.878906 C 149.6875 12.210938 149.558594 12.761719 149.558594 13.539062 L 149.558594 25.558594 L 149 25.558594 L 139.542969 13.914062 L 139.542969 22.386719 Z M 139.5625 22.378906 "/>
<path style=" stroke:none;fill-rule:nonzero;fill:rgb(36.862745%,10.196078%,18.039216%);fill-opacity:1;" d="M 165.757812 22.453125 C 164.953125 23.5 164.050781 24.273438 163.074219 24.757812 C 162.097656 25.253906 160.96875 25.503906 159.703125 25.503906 C 157.585938 25.503906 155.828125 24.78125 154.421875 23.359375 C 153.023438 21.925781 152.316406 20.125 152.316406 17.957031 C 152.316406 15.792969 153.015625 13.980469 154.421875 12.546875 C 155.816406 11.113281 157.578125 10.402344 159.703125 10.402344 C 161.054688 10.402344 162.269531 10.671875 163.34375 11.222656 C 163.6875 11.394531 163.984375 11.425781 164.242188 11.308594 C 164.5 11.1875 164.683594 10.960938 164.78125 10.59375 L 164.835938 10.402344 L 165.414062 10.402344 L 165.414062 15.628906 L 164.835938 15.628906 C 164.449219 14.269531 163.824219 13.203125 162.964844 12.4375 C 162.109375 11.664062 161.128906 11.285156 160.023438 11.285156 C 158.738281 11.285156 157.726562 11.855469 157.019531 13.011719 C 156.300781 14.164062 155.945312 15.769531 155.945312 17.839844 C 155.945312 19.910156 156.300781 21.515625 157.019531 22.65625 C 157.738281 23.800781 158.738281 24.371094 160.023438 24.371094 C 161 24.371094 161.894531 24.175781 162.699219 23.777344 C 163.503906 23.378906 164.285156 22.753906 165.070312 21.882812 L 165.746094 22.453125 Z M 165.757812 22.453125 "/>
<path style=" stroke:none;fill-rule:nonzero;fill:rgb(36.862745%,10.196078%,18.039216%);fill-opacity:1;" d="M 168.925781 22.894531 L 168.925781 13.011719 C 168.925781 12.386719 168.796875 11.941406 168.539062 11.683594 C 168.28125 11.425781 167.828125 11.296875 167.195312 11.296875 L 167.003906 11.296875 L 167.003906 10.691406 L 174.304688 10.691406 L 174.304688 11.296875 L 174.109375 11.296875 C 173.476562 11.296875 173.035156 11.425781 172.769531 11.683594 C 172.511719 11.941406 172.382812 12.386719 172.382812 13.011719 L 172.382812 17.179688 L 177.351562 17.179688 L 177.351562 13.011719 C 177.351562 12.386719 177.222656 11.941406 176.964844 11.683594 C 176.707031 11.425781 176.257812 11.296875 175.625 11.296875 L 175.429688 11.296875 L 175.429688 10.691406 L 182.730469 10.691406 L 182.730469 11.296875 L 182.539062 11.296875 C 181.902344 11.296875 181.464844 11.425781 181.195312 11.683594 C 180.9375 11.941406 180.808594 12.386719 180.808594 13.011719 L 180.808594 22.894531 C 180.808594 23.519531 180.9375 23.960938 181.195312 24.21875 C 181.453125 24.480469 181.902344 24.609375 182.546875 24.609375 L 182.742188 24.609375 L 182.742188 25.222656 L 175.441406 25.222656 L 175.441406 24.609375 L 175.632812 24.609375 C 176.269531 24.609375 176.707031 24.480469 176.976562 24.21875 C 177.246094 23.960938 177.363281 23.519531 177.363281 22.894531 L 177.363281 18.152344 L 172.390625 18.152344 L 172.390625 22.894531 C 172.390625 23.519531 172.519531 23.960938 172.777344 24.21875 C 173.035156 24.480469 173.488281 24.609375 174.132812 24.609375 L 174.324219 24.609375 L 174.324219 25.222656 L 167.023438 25.222656 L 167.023438 24.609375 L 167.21875 24.609375 C 167.851562 24.609375 168.292969 24.480469 168.558594 24.21875 C 168.816406 23.960938 168.945312 23.519531 168.945312 22.894531 Z M 168.925781 22.894531 "/>
<path style=" stroke:none;fill-rule:nonzero;fill:rgb(36.862745%,10.196078%,18.039216%);fill-opacity:1;" d="M 93.023438 32.734375 C 93.023438 32.359375 92.949219 32.089844 92.789062 31.9375 C 92.628906 31.785156 92.359375 31.699219 91.972656 31.699219 L 91.855469 31.699219 L 91.855469 31.335938 L 96.257812 31.335938 L 96.257812 31.699219 L 96.136719 31.699219 C 95.761719 31.699219 95.492188 31.777344 95.332031 31.9375 C 95.171875 32.089844 95.097656 32.359375 95.097656 32.734375 L 95.097656 37.316406 C 95.097656 38.253906 94.859375 38.976562 94.386719 39.492188 C 93.914062 40.011719 93.25 40.269531 92.390625 40.269531 C 91.746094 40.269531 91.222656 40.109375 90.800781 39.796875 C 90.382812 39.484375 90.167969 39.085938 90.167969 38.609375 C 90.167969 38.339844 90.265625 38.105469 90.449219 37.910156 C 90.628906 37.714844 90.855469 37.617188 91.113281 37.617188 C 91.371094 37.617188 91.585938 37.703125 91.78125 37.878906 C 91.960938 38.050781 92.058594 38.253906 92.058594 38.492188 C 92.058594 38.664062 92.015625 38.824219 91.917969 38.964844 C 91.769531 39.203125 91.695312 39.375 91.695312 39.492188 C 91.695312 39.613281 91.789062 39.699219 91.960938 39.753906 C 92.058594 39.785156 92.15625 39.796875 92.261719 39.796875 C 92.507812 39.796875 92.703125 39.71875 92.832031 39.570312 C 92.960938 39.417969 93.023438 39.203125 93.023438 38.933594 Z M 93.023438 32.734375 "/>
<path style=" stroke:none;fill-rule:nonzero;fill:rgb(36.862745%,10.196078%,18.039216%);fill-opacity:1;" d="M 96.589844 40.085938 L 96.589844 39.71875 L 96.707031 39.71875 C 97.082031 39.71875 97.351562 39.644531 97.511719 39.484375 C 97.671875 39.332031 97.75 39.0625 97.75 38.6875 L 97.75 32.734375 C 97.75 32.359375 97.671875 32.089844 97.511719 31.9375 C 97.351562 31.785156 97.082031 31.699219 96.695312 31.699219 L 96.578125 31.699219 L 96.578125 31.335938 L 103.964844 31.335938 L 103.964844 33.976562 L 103.621094 33.976562 C 103.460938 33.132812 103.179688 32.574219 102.785156 32.292969 C 102.386719 32.011719 101.667969 31.875 100.625 31.875 L 100.539062 31.875 C 100.25 31.875 100.054688 31.917969 99.960938 32.023438 C 99.863281 32.121094 99.808594 32.316406 99.808594 32.605469 L 99.808594 35.355469 L 99.960938 35.355469 C 100.570312 35.355469 101.011719 35.226562 101.257812 34.976562 C 101.503906 34.730469 101.710938 34.234375 101.847656 33.480469 L 102.191406 33.480469 L 102.191406 37.824219 L 101.847656 37.824219 C 101.699219 37.046875 101.496094 36.519531 101.25 36.261719 C 100.992188 36 100.570312 35.871094 99.960938 35.871094 L 99.808594 35.871094 L 99.808594 38.652344 C 99.808594 39.03125 99.875 39.277344 99.992188 39.40625 C 100.109375 39.539062 100.367188 39.589844 100.734375 39.589844 C 101.675781 39.589844 102.375 39.441406 102.847656 39.136719 C 103.320312 38.835938 103.792969 38.242188 104.265625 37.359375 L 104.574219 37.425781 L 104.308594 38.761719 L 104.027344 40.109375 L 96.578125 40.109375 Z M 96.589844 40.085938 "/>
<path style=" stroke:none;fill-rule:nonzero;fill:rgb(36.862745%,10.196078%,18.039216%);fill-opacity:1;" d="M 108.582031 40.292969 L 105.984375 32.734375 C 105.855469 32.359375 105.726562 32.089844 105.574219 31.9375 C 105.425781 31.785156 105.253906 31.699219 105.039062 31.699219 L 104.972656 31.699219 L 104.972656 31.335938 L 108.761719 31.335938 L 108.761719 31.699219 L 108.65625 31.699219 C 108.332031 31.699219 108.117188 31.785156 108.011719 31.960938 C 107.902344 32.132812 107.914062 32.390625 108.03125 32.734375 L 109.515625 37.1875 C 109.515625 37.1875 111.050781 33.242188 111.050781 33.242188 L 110.878906 32.746094 C 110.75 32.367188 110.609375 32.101562 110.449219 31.949219 C 110.289062 31.796875 110.082031 31.710938 109.824219 31.710938 L 109.75 31.710938 L 109.75 31.34375 L 113.648438 31.34375 L 113.648438 31.710938 L 113.53125 31.710938 C 113.175781 31.710938 112.9375 31.796875 112.820312 31.96875 C 112.703125 32.144531 112.703125 32.402344 112.820312 32.746094 L 114.300781 37.1875 C 114.300781 37.1875 115.632812 33.265625 115.632812 33.265625 C 115.816406 32.726562 115.871094 32.335938 115.792969 32.109375 C 115.707031 31.882812 115.484375 31.742188 115.109375 31.722656 L 114.988281 31.722656 L 114.988281 31.355469 L 117.308594 31.355469 L 117.308594 31.722656 L 117.253906 31.722656 C 117.050781 31.753906 116.878906 31.851562 116.75 32.003906 C 116.621094 32.152344 116.492188 32.414062 116.375 32.757812 L 113.777344 40.3125 L 113.445312 40.3125 L 111.351562 34.105469 L 108.914062 40.3125 L 108.582031 40.3125 Z M 108.582031 40.292969 "/>
<path style=" stroke:none;fill-rule:nonzero;fill:rgb(36.862745%,10.196078%,18.039216%);fill-opacity:1;" d="M 117.640625 40.085938 L 117.640625 39.71875 L 117.757812 39.71875 C 118.136719 39.71875 118.402344 39.644531 118.5625 39.484375 C 118.726562 39.332031 118.800781 39.0625 118.800781 38.6875 L 118.800781 32.734375 C 118.800781 32.359375 118.726562 32.089844 118.5625 31.9375 C 118.402344 31.785156 118.136719 31.699219 117.75 31.699219 L 117.628906 31.699219 L 117.628906 31.335938 L 125.015625 31.335938 L 125.015625 33.976562 L 124.671875 33.976562 C 124.511719 33.132812 124.234375 32.574219 123.835938 32.292969 C 123.4375 32.011719 122.71875 31.875 121.675781 31.875 L 121.59375 31.875 C 121.300781 31.875 121.109375 31.917969 121.011719 32.023438 C 120.914062 32.121094 120.863281 32.316406 120.863281 32.605469 L 120.863281 35.355469 L 121.011719 35.355469 C 121.625 35.355469 122.0625 35.226562 122.3125 34.976562 C 122.558594 34.730469 122.761719 34.234375 122.902344 33.480469 L 123.246094 33.480469 L 123.246094 37.824219 L 122.902344 37.824219 C 122.75 37.046875 122.546875 36.519531 122.300781 36.261719 C 122.042969 36 121.625 35.871094 121.011719 35.871094 L 120.863281 35.871094 L 120.863281 38.652344 C 120.863281 39.03125 120.925781 39.277344 121.042969 39.40625 C 121.164062 39.539062 121.421875 39.589844 121.785156 39.589844 C 122.730469 39.589844 123.425781 39.441406 123.898438 39.136719 C 124.371094 38.835938 124.84375 38.242188 125.316406 37.359375 L 125.628906 37.425781 L 125.359375 38.761719 L 125.082031 40.109375 L 117.628906 40.109375 Z M 117.640625 40.085938 "/>
<path style=" stroke:none;fill-rule:nonzero;fill:rgb(36.862745%,10.196078%,18.039216%);fill-opacity:1;" d="M 126.164062 40.085938 L 126.164062 39.71875 L 126.285156 39.71875 C 126.660156 39.71875 126.925781 39.644531 127.089844 39.484375 C 127.25 39.332031 127.324219 39.0625 127.324219 38.6875 L 127.324219 32.734375 C 127.324219 32.359375 127.25 32.089844 127.089844 31.9375 C 126.925781 31.785156 126.660156 31.699219 126.273438 31.699219 L 126.15625 31.699219 L 126.15625 31.335938 L 130.554688 31.335938 L 130.554688 31.699219 L 130.4375 31.699219 C 130.0625 31.699219 129.792969 31.777344 129.632812 31.9375 C 129.472656 32.101562 129.398438 32.359375 129.398438 32.734375 L 129.398438 38.878906 C 129.398438 39.160156 129.441406 39.355469 129.535156 39.441406 C 129.632812 39.527344 129.816406 39.582031 130.09375 39.582031 L 130.117188 39.582031 C 131.15625 39.582031 131.917969 39.40625 132.402344 39.0625 C 132.886719 38.71875 133.324219 38.039062 133.734375 37.003906 L 134.078125 37.078125 L 133.765625 38.578125 L 133.453125 40.085938 L 126.15625 40.085938 Z M 126.164062 40.085938 "/>
<path style=" stroke:none;fill-rule:nonzero;fill:rgb(36.862745%,10.196078%,18.039216%);fill-opacity:1;" d="M 134.59375 40.085938 L 134.59375 39.71875 L 134.710938 39.71875 C 135.085938 39.71875 135.355469 39.644531 135.515625 39.484375 C 135.675781 39.332031 135.75 39.0625 135.75 38.6875 L 135.75 32.734375 C 135.75 32.359375 135.675781 32.089844 135.515625 31.9375 C 135.355469 31.785156 135.085938 31.699219 134.699219 31.699219 L 134.582031 31.699219 L 134.582031 31.335938 L 138.984375 31.335938 L 138.984375 31.699219 L 138.863281 31.699219 C 138.488281 31.699219 138.222656 31.777344 138.058594 31.9375 C 137.898438 32.101562 137.824219 32.359375 137.824219 32.734375 L 137.824219 38.878906 C 137.824219 39.160156 137.867188 39.355469 137.964844 39.441406 C 138.058594 39.527344 138.242188 39.582031 138.523438 39.582031 L 138.542969 39.582031 C 139.585938 39.582031 140.347656 39.40625 140.828125 39.0625 C 141.3125 38.71875 141.753906 38.039062 142.160156 37.003906 L 142.503906 37.078125 L 142.191406 38.578125 L 141.882812 40.085938 L 134.582031 40.085938 Z M 134.59375 40.085938 "/>
<path style=" stroke:none;fill-rule:nonzero;fill:rgb(36.862745%,10.196078%,18.039216%);fill-opacity:1;" d="M 142.921875 40.085938 L 142.921875 39.71875 L 143.042969 39.71875 C 143.417969 39.71875 143.683594 39.644531 143.847656 39.484375 C 144.007812 39.332031 144.082031 39.0625 144.082031 38.6875 L 144.082031 32.734375 C 144.082031 32.359375 144.007812 32.089844 143.847656 31.9375 C 143.683594 31.785156 143.417969 31.699219 143.03125 31.699219 L 142.914062 31.699219 L 142.914062 31.335938 L 150.296875 31.335938 L 150.296875 33.976562 L 149.953125 33.976562 C 149.792969 33.132812 149.515625 32.574219 149.117188 32.292969 C 148.71875 32.011719 148 31.875 146.960938 31.875 L 146.875 31.875 C 146.585938 31.875 146.390625 31.917969 146.292969 32.023438 C 146.199219 32.121094 146.144531 32.316406 146.144531 32.605469 L 146.144531 35.355469 L 146.292969 35.355469 C 146.90625 35.355469 147.347656 35.226562 147.59375 34.976562 C 147.839844 34.730469 148.042969 34.234375 148.183594 33.480469 L 148.527344 33.480469 L 148.527344 37.824219 L 148.183594 37.824219 C 148.035156 37.046875 147.828125 36.519531 147.582031 36.261719 C 147.324219 36 146.90625 35.871094 146.292969 35.871094 L 146.144531 35.871094 L 146.144531 38.652344 C 146.144531 39.03125 146.207031 39.277344 146.328125 39.40625 C 146.445312 39.539062 146.703125 39.589844 147.066406 39.589844 C 148.011719 39.589844 148.710938 39.441406 149.183594 39.136719 C 149.65625 38.835938 150.125 38.242188 150.597656 37.359375 L 150.910156 37.425781 L 150.640625 38.761719 L 150.363281 40.109375 L 142.914062 40.109375 Z M 142.921875 40.085938 "/>
<path style=" stroke:none;fill-rule:nonzero;fill:rgb(36.862745%,10.196078%,18.039216%);fill-opacity:1;" d="M 152.511719 38.6875 L 152.511719 32.734375 C 152.511719 32.359375 152.433594 32.089844 152.273438 31.9375 C 152.113281 31.785156 151.84375 31.699219 151.457031 31.699219 L 151.339844 31.699219 L 151.339844 31.335938 L 155.484375 31.335938 C 156.707031 31.335938 157.609375 31.527344 158.1875 31.917969 C 158.769531 32.304688 159.070312 32.898438 159.070312 33.707031 C 159.070312 34.515625 158.726562 35.074219 158.039062 35.472656 C 157.78125 35.625 157.46875 35.753906 157.125 35.839844 L 158.972656 38.6875 C 159.21875 39.0625 159.433594 39.332031 159.628906 39.484375 C 159.808594 39.632812 160.015625 39.71875 160.21875 39.71875 L 160.28125 39.71875 L 160.28125 40.085938 L 157.664062 40.085938 L 154.882812 36.066406 L 154.59375 36.066406 L 154.59375 38.6875 C 154.59375 39.0625 154.667969 39.332031 154.828125 39.484375 C 154.988281 39.632812 155.257812 39.71875 155.644531 39.71875 L 155.761719 39.71875 L 155.761719 40.085938 L 151.359375 40.085938 L 151.359375 39.71875 L 151.480469 39.71875 C 151.855469 39.71875 152.125 39.644531 152.285156 39.484375 C 152.445312 39.332031 152.519531 39.0625 152.519531 38.6875 Z M 154.582031 35.582031 L 155 35.582031 C 155.65625 35.582031 156.117188 35.429688 156.40625 35.128906 C 156.6875 34.828125 156.835938 34.320312 156.835938 33.621094 C 156.835938 33.027344 156.707031 32.59375 156.4375 32.304688 C 156.179688 32.035156 155.816406 31.894531 155.332031 31.875 C 155.03125 31.875 154.839844 31.90625 154.742188 32.003906 C 154.644531 32.101562 154.59375 32.292969 154.59375 32.59375 L 154.59375 35.582031 Z M 154.582031 35.582031 "/>
<path style=" stroke:none;fill-rule:nonzero;fill:rgb(36.862745%,10.196078%,18.039216%);fill-opacity:1;" d="M 166.25 34.050781 C 166.121094 33.371094 165.820312 32.8125 165.359375 32.367188 C 164.898438 31.917969 164.371094 31.699219 163.78125 31.699219 C 163.320312 31.699219 162.964844 31.808594 162.707031 32.011719 C 162.449219 32.21875 162.320312 32.507812 162.320312 32.875 C 162.320312 33.210938 162.484375 33.511719 162.792969 33.792969 C 163.105469 34.070312 163.609375 34.339844 164.296875 34.621094 C 165.179688 34.976562 165.84375 35.398438 166.292969 35.882812 C 166.734375 36.367188 166.960938 36.929688 166.960938 37.554688 C 166.960938 38.371094 166.679688 39.03125 166.121094 39.527344 C 165.5625 40.023438 164.824219 40.28125 163.910156 40.28125 C 163.191406 40.28125 162.535156 40.164062 161.945312 39.914062 C 161.796875 39.851562 161.644531 39.859375 161.507812 39.925781 C 161.367188 39.988281 161.269531 40.109375 161.226562 40.269531 L 161.207031 40.335938 L 160.863281 40.335938 L 160.863281 37.035156 L 161.207031 37.035156 C 161.300781 37.824219 161.613281 38.480469 162.117188 39 C 162.632812 39.515625 163.222656 39.773438 163.910156 39.773438 C 164.371094 39.773438 164.738281 39.644531 165.027344 39.386719 C 165.316406 39.128906 165.457031 38.792969 165.457031 38.382812 C 165.457031 38.050781 165.308594 37.738281 164.996094 37.457031 C 164.683594 37.175781 164.191406 36.90625 163.515625 36.636719 C 162.664062 36.304688 162.03125 35.894531 161.613281 35.417969 C 161.183594 34.945312 160.980469 34.40625 160.980469 33.800781 C 160.980469 33.003906 161.238281 32.367188 161.753906 31.894531 C 162.269531 31.410156 162.945312 31.171875 163.792969 31.171875 C 164.308594 31.171875 164.835938 31.292969 165.394531 31.519531 C 165.585938 31.605469 165.757812 31.613281 165.90625 31.570312 C 166.046875 31.527344 166.15625 31.421875 166.230469 31.25 L 166.261719 31.171875 L 166.605469 31.171875 L 166.605469 34.0625 L 166.261719 34.0625 Z M 166.25 34.050781 "/>
<path style=" stroke:none;fill-rule:nonzero;fill:rgb(36.862745%,10.196078%,18.039216%);fill-opacity:1;" d="M 49.847656 33.351562 L 49.847656 17.105469 C 49.847656 14.832031 49.621094 13.375 49.179688 12.730469 C 48.730469 12.09375 47.679688 11.726562 46.015625 11.621094 L 46.015625 10.5625 L 58.242188 10.5625 L 58.242188 11.621094 C 56.578125 11.714844 55.527344 11.996094 55.074219 12.449219 C 54.625 12.902344 54.410156 13.9375 54.410156 15.53125 L 54.410156 24.5 C 56.039062 23.121094 57.757812 21.578125 59.550781 19.867188 C 60.988281 18.484375 62.308594 17.171875 63.523438 15.929688 C 64.910156 14.488281 65.519531 13.429688 65.359375 12.773438 C 65.199219 12.117188 64.230469 11.726562 62.472656 11.621094 L 62.472656 10.5625 L 73.539062 10.5625 L 73.539062 11.621094 C 71.960938 11.867188 70.769531 12.222656 69.988281 12.6875 C 69.191406 13.140625 68.117188 14.097656 66.765625 15.542969 C 65.113281 17.320312 63.222656 19.21875 61.074219 21.222656 L 58.875 23.304688 L 70.15625 35.667969 C 71.359375 36.960938 72.261719 37.789062 72.875 38.15625 C 73.484375 38.523438 74.3125 38.738281 75.363281 38.816406 L 75.363281 39.871094 L 62.492188 39.871094 L 62.492188 38.816406 C 64.050781 38.816406 64.929688 38.578125 65.15625 38.09375 C 65.378906 37.609375 64.984375 36.800781 63.964844 35.679688 L 55.492188 26.234375 L 54.410156 27.164062 L 54.410156 34.890625 C 54.410156 36.496094 54.632812 37.519531 55.074219 37.972656 C 55.527344 38.425781 56.578125 38.707031 58.242188 38.804688 L 58.242188 39.859375 L 46.015625 39.859375 L 46.015625 38.804688 C 47.679688 38.707031 48.730469 38.328125 49.179688 37.683594 C 49.632812 37.046875 49.847656 35.601562 49.847656 33.316406 Z M 49.847656 33.351562 "/>
<path style=" stroke:none;fill-rule:nonzero;fill:rgb(36.862745%,10.196078%,18.039216%);fill-opacity:1;" d="M 193.839844 33.351562 L 193.839844 17.105469 C 193.839844 14.832031 193.59375 13.375 193.101562 12.730469 C 192.605469 12.09375 191.449219 11.726562 189.621094 11.621094 L 189.621094 10.5625 L 203.050781 10.5625 L 203.050781 11.621094 C 201.226562 11.714844 200.066406 12.082031 199.574219 12.730469 C 199.082031 13.375 198.832031 14.820312 198.832031 17.105469 L 198.832031 33.351562 C 198.832031 35.625 199.082031 37.078125 199.574219 37.726562 C 200.066406 38.371094 201.226562 38.730469 203.050781 38.835938 L 203.050781 39.894531 L 189.621094 39.894531 L 189.621094 38.835938 C 191.449219 38.738281 192.605469 38.363281 193.101562 37.714844 C 193.59375 37.078125 193.839844 35.636719 193.839844 33.351562 Z M 193.839844 33.351562 "/>
<path style="fill:none;stroke-width:0.73;stroke-linecap:butt;stroke-linejoin:miter;stroke:rgb(36.862745%,10.196078%,18.039216%);stroke-opacity:1;stroke-miterlimit:10;" d="M 23.011202 38.609757 C 20.740694 40.581195 18.05902 41.719121 15.191775 41.719121 C 7.001208 41.719121 0.360699 32.459883 0.360699 21.040759 C 0.360699 9.621635 7.001208 0.358773 15.191775 0.358773 C 21.228271 0.358773 26.431519 5.399713 28.738414 12.629529 " transform="matrix(1.073548,0,0,1.077893,0.495585,0)"/>
<path style="fill:none;stroke-width:0.73;stroke-linecap:butt;stroke-linejoin:miter;stroke:rgb(36.862745%,10.196078%,18.039216%);stroke-opacity:1;stroke-miterlimit:10;" d="M 29.349704 14.901757 C 29.789979 16.84058 30.019213 18.898994 30.019213 21.040759 C 30.019213 26.498455 28.498264 31.47054 26.031269 35.159739 " transform="matrix(1.073548,0,0,1.077893,0.495585,0)"/>
<path style="fill:none;stroke-width:0.65;stroke-linecap:butt;stroke-linejoin:miter;stroke:rgb(36.862745%,10.196078%,18.039216%);stroke-opacity:1;stroke-miterlimit:10;" d="M 11.829677 15.329385 L 11.731433 12.281628 C 11.731433 12.281628 9.599193 10.95888 11.200193 10.161607 C 11.469452 10.031144 11.760542 9.951417 12.058911 9.929673 L 17.538695 9.5709 C 17.960777 9.538284 18.37922 9.650627 18.721251 9.911553 C 19.219744 10.288446 19.539944 10.991495 17.971692 12.111302 L 18.259145 17.409543 L 28.629255 12.658521 C 28.629255 12.658521 33.141162 11.100214 29.669904 14.651703 C 29.589854 14.738679 29.491611 14.811158 29.389729 14.880013 C 28.199896 15.641047 19.998412 20.961032 17.949861 25.331537 C 18.040827 25.371401 21.009953 26.371616 22.570927 30.271006 C 22.629145 30.408717 22.691002 30.550052 22.760136 30.691386 C 24.019104 33.039718 25.12161 34.478433 25.751094 35.011156 C 25.940303 35.170611 26.191369 35.250338 26.438796 35.250338 C 27.348455 35.228594 29.589854 35.359057 27.490362 37.27976 C 24.899654 39.638964 24.608563 39.468637 23.618854 39.17872 C 22.629145 38.888802 21.228271 34.318978 17.120252 33.329635 C 17.120252 33.329635 16.810968 37.671149 13.041342 36.188946 C 9.319018 34.728487 9.781125 35.721454 9.581 36.268673 C 9.409984 36.728917 8.48941 37.881339 7.28866 36.149082 C 6.091549 34.42045 5.931449 32.7498 7.539726 32.340292 C 9.151641 31.930783 12.470076 33.159309 12.368195 29.509973 L 12.098936 20.750842 C 12.098936 20.750842 10.410609 19.449837 9.890284 21.218334 C 9.890284 21.218334 9.351766 22.211301 11.000068 22.660673 C 12.648369 23.110045 10.610734 25.668566 9.781125 25.150339 C 8.951516 24.628488 7.681633 23.139037 4.999959 21.968495 C 2.158185 20.700106 11.829677 15.329385 11.829677 15.329385 Z M 11.829677 15.329385 " transform="matrix(1.073548,0,0,1.077893,0.495585,0)"/>
<path style=" stroke:none;fill-rule:nonzero;fill:rgb(36.862745%,10.196078%,18.039216%);fill-opacity:1;" d="M 20.441406 6.035156 L 16.4375 10.003906 L 12.046875 6.414062 L 20.441406 6.035156 M 21.632812 5.519531 L 10.800781 5.992188 L 16.46875 10.628906 Z M 21.632812 5.519531 "/>
<path style="fill:none;stroke-width:0.44;stroke-linecap:butt;stroke-linejoin:miter;stroke:rgb(36.862745%,10.196078%,18.039216%);stroke-opacity:1;stroke-miterlimit:10;" d="M 9.719268 5.649766 L 12.011608 3.189092 L 17.051118 2.971654 L 19.579969 5.229386 " transform="matrix(1.073548,0,0,1.077893,0.495585,0)"/>
<path style="fill:none;stroke-width:0.44;stroke-linecap:butt;stroke-linejoin:miter;stroke:rgb(36.862745%,10.196078%,18.039216%);stroke-opacity:1;stroke-miterlimit:10;" d="M 14.86066 9.560028 L 11.971583 5.649766 " transform="matrix(1.073548,0,0,1.077893,0.495585,0)"/>
<path style="fill:none;stroke-width:0.44;stroke-linecap:butt;stroke-linejoin:miter;stroke:rgb(36.862745%,10.196078%,18.039216%);stroke-opacity:1;stroke-miterlimit:10;" d="M 17.269436 5.421456 L 14.86066 9.560028 " transform="matrix(1.073548,0,0,1.077893,0.495585,0)"/>
<path style="fill:none;stroke-width:0.44;stroke-linecap:butt;stroke-linejoin:miter;stroke:rgb(36.862745%,10.196078%,18.039216%);stroke-opacity:1;stroke-miterlimit:10;" d="M 11.920642 5.519304 L 12.011608 3.189092 " transform="matrix(1.073548,0,0,1.077893,0.495585,0)"/>
<path style="fill:none;stroke-width:0.44;stroke-linecap:butt;stroke-linejoin:miter;stroke:rgb(36.862745%,10.196078%,18.039216%);stroke-opacity:1;stroke-miterlimit:10;" d="M 17.360402 5.298241 L 17.051118 2.971654 " transform="matrix(1.073548,0,0,1.077893,0.495585,0)"/>
<path style="fill:none;stroke-width:0.44;stroke-linecap:butt;stroke-linejoin:miter;stroke:rgb(36.862745%,10.196078%,18.039216%);stroke-opacity:1;stroke-miterlimit:10;" d="M 11.938836 5.541047 L 13.521642 3.120237 " transform="matrix(1.073548,0,0,1.077893,0.495585,0)"/>
<path style="fill:none;stroke-width:0.44;stroke-linecap:butt;stroke-linejoin:miter;stroke:rgb(36.862745%,10.196078%,18.039216%);stroke-opacity:1;stroke-miterlimit:10;" d="M 17.33857 5.319985 L 15.541084 3.029637 " transform="matrix(1.073548,0,0,1.077893,0.495585,0)"/>
<path style="fill:none;stroke-width:0.44;stroke-linecap:butt;stroke-linejoin:miter;stroke:rgb(36.862745%,10.196078%,18.039216%);stroke-opacity:1;stroke-miterlimit:10;" d="M 13.521642 3.120237 L 14.649619 5.410584 " transform="matrix(1.073548,0,0,1.077893,0.495585,0)"/>
<path style="fill:none;stroke-width:0.44;stroke-linecap:butt;stroke-linejoin:miter;stroke:rgb(36.862745%,10.196078%,18.039216%);stroke-opacity:1;stroke-miterlimit:10;" d="M 15.541084 3.029637 L 14.649619 5.410584 " transform="matrix(1.073548,0,0,1.077893,0.495585,0)"/>
<path style="fill:none;stroke-width:0.44;stroke-linecap:butt;stroke-linejoin:miter;stroke:rgb(36.862745%,10.196078%,18.039216%);stroke-opacity:1;stroke-miterlimit:10;" d="M 14.638703 5.330857 L 14.86066 9.560028 " transform="matrix(1.073548,0,0,1.077893,0.495585,0)"/>
<path style=" stroke:none;fill-rule:nonzero;fill:rgb(36.862745%,10.196078%,18.039216%);fill-opacity:1;" d="M 6.097656 49.507812 C 5.9375 49.25 5.648438 49.128906 5.347656 49.128906 C 4.917969 49.128906 4.476562 49.335938 4.476562 49.820312 C 4.476562 50.199219 4.683594 50.371094 5.335938 50.574219 C 5.96875 50.78125 6.5625 50.984375 6.5625 51.792969 C 6.5625 52.601562 5.863281 52.988281 5.121094 52.988281 C 4.648438 52.988281 4.136719 52.828125 3.867188 52.417969 L 4.285156 52.074219 C 4.457031 52.375 4.800781 52.535156 5.15625 52.535156 C 5.574219 52.535156 6.046875 52.289062 6.046875 51.824219 C 6.046875 51.320312 5.703125 51.230469 4.972656 50.984375 C 4.390625 50.789062 3.953125 50.542969 3.953125 49.851562 C 3.953125 49.066406 4.628906 48.667969 5.347656 48.667969 C 5.808594 48.667969 6.195312 48.796875 6.496094 49.152344 L 6.097656 49.496094 Z M 6.097656 49.507812 "/>
<path style=" stroke:none;fill-rule:nonzero;fill:rgb(36.862745%,10.196078%,18.039216%);fill-opacity:1;" d="M 7.546875 48.785156 C 7.730469 48.785156 7.882812 48.9375 7.882812 49.121094 C 7.882812 49.3125 7.742188 49.453125 7.546875 49.453125 C 7.355469 49.453125 7.214844 49.3125 7.214844 49.121094 C 7.214844 48.9375 7.355469 48.785156 7.546875 48.785156 Z M 7.324219 50.175781 L 7.773438 50.175781 L 7.773438 52.890625 L 7.324219 52.890625 Z M 7.324219 50.175781 "/>
<path style=" stroke:none;fill-rule:nonzero;fill:rgb(36.862745%,10.196078%,18.039216%);fill-opacity:1;" d="M 8.664062 50.824219 C 8.664062 50.574219 8.644531 50.359375 8.644531 50.175781 L 9.074219 50.175781 C 9.074219 50.316406 9.082031 50.46875 9.082031 50.617188 L 9.09375 50.617188 C 9.210938 50.347656 9.554688 50.101562 9.996094 50.101562 C 10.703125 50.101562 11.027344 50.554688 11.027344 51.210938 L 11.027344 52.890625 L 10.578125 52.890625 L 10.578125 51.265625 C 10.578125 50.8125 10.382812 50.53125 9.953125 50.53125 C 9.375 50.53125 9.117188 50.953125 9.117188 51.578125 L 9.117188 52.902344 L 8.664062 52.902344 Z M 8.664062 50.824219 "/>
<path style=" stroke:none;fill-rule:nonzero;fill:rgb(36.862745%,10.196078%,18.039216%);fill-opacity:1;" d="M 13.808594 50.855469 C 13.613281 50.617188 13.398438 50.519531 13.121094 50.519531 C 12.507812 50.519531 12.207031 50.972656 12.207031 51.535156 C 12.207031 52.09375 12.574219 52.546875 13.121094 52.546875 C 13.410156 52.546875 13.636719 52.441406 13.808594 52.214844 L 14.140625 52.535156 C 13.882812 52.839844 13.507812 52.96875 13.121094 52.96875 C 12.28125 52.96875 11.726562 52.375 11.726562 51.535156 C 11.726562 50.691406 12.292969 50.101562 13.121094 50.101562 C 13.519531 50.101562 13.894531 50.230469 14.160156 50.53125 Z M 13.808594 50.855469 "/>
<path style=" stroke:none;fill-rule:nonzero;fill:rgb(36.862745%,10.196078%,18.039216%);fill-opacity:1;" d="M 17.082031 52.394531 C 16.761719 52.804688 16.382812 52.957031 15.878906 52.957031 C 15.03125 52.957031 14.503906 52.320312 14.503906 51.523438 C 14.503906 50.683594 15.097656 50.089844 15.890625 50.089844 C 16.683594 50.089844 17.179688 50.617188 17.179688 51.511719 L 17.179688 51.652344 L 14.988281 51.652344 C 15.019531 52.125 15.386719 52.527344 15.867188 52.527344 C 16.253906 52.527344 16.511719 52.386719 16.726562 52.117188 L 17.070312 52.386719 Z M 16.695312 51.285156 C 16.675781 50.824219 16.375 50.519531 15.878906 50.519531 C 15.386719 50.519531 15.054688 50.832031 15 51.285156 Z M 16.695312 51.285156 "/>
<path style=" stroke:none;fill-rule:nonzero;fill:rgb(36.862745%,10.196078%,18.039216%);fill-opacity:1;" d="M 21.140625 52.890625 L 20.65625 52.890625 L 20.65625 49.410156 L 20.644531 49.410156 L 19.917969 50.035156 L 19.625 49.679688 L 20.722656 48.785156 L 21.140625 48.785156 Z M 21.140625 52.890625 "/>
<path style=" stroke:none;fill-rule:nonzero;fill:rgb(36.862745%,10.196078%,18.039216%);fill-opacity:1;" d="M 24.308594 51.179688 L 24.296875 51.179688 C 24.144531 51.253906 23.910156 51.285156 23.75 51.285156 C 23.039062 51.285156 22.515625 50.757812 22.515625 49.992188 C 22.515625 49.226562 23.105469 48.699219 23.886719 48.699219 C 24.671875 48.699219 25.261719 49.183594 25.261719 49.992188 C 25.261719 50.46875 25.089844 50.789062 24.875 51.144531 L 23.792969 52.882812 L 23.222656 52.882812 L 24.316406 51.167969 Z M 24.757812 50.003906 C 24.757812 49.464844 24.359375 49.128906 23.878906 49.128906 C 23.394531 49.128906 22.996094 49.464844 22.996094 50.003906 C 22.996094 50.542969 23.394531 50.875 23.878906 50.875 C 24.359375 50.875 24.757812 50.542969 24.757812 50.003906 Z M 24.757812 50.003906 "/>
<path style=" stroke:none;fill-rule:nonzero;fill:rgb(36.862745%,10.196078%,18.039216%);fill-opacity:1;" d="M 28.257812 49.238281 L 26.625 52.890625 L 26.078125 52.890625 L 27.742188 49.238281 L 25.765625 49.238281 L 25.765625 48.785156 L 28.269531 48.785156 L 28.269531 49.238281 Z M 28.257812 49.238281 "/>
<path style=" stroke:none;fill-rule:nonzero;fill:rgb(36.862745%,10.196078%,18.039216%);fill-opacity:1;" d="M 30.78125 52.890625 L 30.296875 52.890625 L 30.296875 49.410156 L 30.285156 49.410156 L 29.554688 50.035156 L 29.265625 49.679688 L 30.363281 48.785156 L 30.78125 48.785156 Z M 30.78125 52.890625 "/>
</g>
</svg>
