<?xml version="1.0" encoding="UTF-8"?>
<svg xmlns="http://www.w3.org/2000/svg" xmlns:xlink="http://www.w3.org/1999/xlink" width="357px" height="80px" viewBox="0 0 357 80" version="1.1">
<g id="surface1">
<path style=" stroke:none;fill-rule:nonzero;fill:rgb(36.862745%,10.196078%,18.039216%);fill-opacity:1;" d="M 313.738281 60.375 L 313.738281 59.839844 L 313.914062 59.839844 C 314.480469 59.839844 314.867188 59.730469 315.101562 59.5 C 315.324219 59.277344 315.433594 58.878906 315.433594 58.324219 L 315.433594 49.558594 C 315.433594 49.003906 315.324219 48.613281 315.101562 48.386719 C 314.867188 48.160156 314.472656 48.046875 313.898438 48.046875 L 313.722656 48.046875 L 313.722656 47.503906 L 320.191406 47.503906 L 320.191406 48.046875 L 320.015625 48.046875 C 319.445312 48.046875 319.0625 48.160156 318.835938 48.386719 C 318.609375 48.613281 318.496094 49.003906 318.496094 49.558594 L 318.496094 58.605469 C 318.496094 59.027344 318.558594 59.300781 318.707031 59.433594 C 318.847656 59.5625 319.109375 59.644531 319.53125 59.644531 L 319.5625 59.644531 C 321.097656 59.644531 322.214844 59.386719 322.925781 58.894531 C 323.636719 58.40625 324.285156 57.378906 324.878906 55.875 L 325.394531 55.984375 L 324.941406 58.199219 L 324.492188 60.410156 L 313.757812 60.410156 Z M 313.738281 60.375 "/>
<path style=" stroke:none;fill-rule:nonzero;fill:rgb(36.862745%,10.196078%,18.039216%);fill-opacity:1;" d="M 330.410156 58.3125 L 330.410156 48.253906 L 330.332031 48.253906 C 329.28125 48.253906 328.472656 48.519531 327.902344 49.058594 C 327.320312 49.59375 326.988281 50.390625 326.867188 51.464844 L 326.257812 51.464844 L 326.257812 47.457031 L 337.605469 47.457031 L 337.605469 51.464844 L 337.058594 51.464844 C 336.945312 50.390625 336.585938 49.574219 336.023438 49.058594 C 335.441406 48.519531 334.636719 48.253906 333.601562 48.253906 L 333.46875 48.253906 L 333.46875 58.3125 C 333.46875 58.871094 333.578125 59.253906 333.8125 59.480469 C 334.03125 59.714844 334.441406 59.824219 335.003906 59.824219 L 335.183594 59.824219 L 335.183594 60.359375 L 328.796875 60.359375 L 328.796875 59.824219 L 328.957031 59.824219 C 329.496094 59.824219 329.878906 59.714844 330.085938 59.480469 C 330.296875 59.253906 330.410156 58.871094 330.410156 58.3125 Z M 330.410156 58.3125 "/>
<path style=" stroke:none;fill-rule:nonzero;fill:rgb(36.862745%,10.196078%,18.039216%);fill-opacity:1;" d="M 340.113281 58.3125 L 340.113281 49.542969 C 340.113281 48.988281 340 48.597656 339.777344 48.375 C 339.546875 48.140625 339.140625 48.03125 338.574219 48.03125 L 338.402344 48.03125 L 338.402344 47.496094 L 344.59375 47.496094 C 346.660156 47.496094 348.261719 48.0625 349.429688 49.199219 C 350.574219 50.34375 351.15625 51.917969 351.15625 53.949219 C 351.15625 55.984375 350.527344 57.546875 349.289062 58.6875 C 348.039062 59.824219 346.292969 60.394531 344.042969 60.394531 L 338.417969 60.394531 L 338.417969 59.859375 L 338.59375 59.859375 C 339.15625 59.859375 339.546875 59.746094 339.777344 59.515625 C 340 59.285156 340.113281 58.894531 340.113281 58.34375 Z M 343.175781 58.574219 C 343.175781 59 343.238281 59.285156 343.378906 59.417969 C 343.523438 59.546875 343.804688 59.609375 344.234375 59.597656 C 345.484375 59.546875 346.402344 59.09375 347.003906 58.230469 C 347.648438 57.316406 347.972656 55.890625 347.957031 53.933594 C 347.957031 52.0625 347.648438 50.652344 347.019531 49.6875 C 346.390625 48.722656 345.46875 48.253906 344.257812 48.253906 C 343.820312 48.253906 343.542969 48.316406 343.398438 48.46875 C 343.253906 48.613281 343.191406 48.890625 343.191406 49.332031 L 343.191406 58.574219 Z M 343.175781 58.574219 "/>
<path style=" stroke:none;fill-rule:nonzero;fill:rgb(36.862745%,10.196078%,18.039216%);fill-opacity:1;" d="M 354.652344 57.417969 C 355.105469 57.417969 355.476562 57.582031 355.78125 57.890625 C 356.09375 58.199219 356.25 58.589844 356.25 59.027344 C 356.25 59.46875 356.09375 59.859375 355.78125 60.167969 C 355.476562 60.480469 355.105469 60.636719 354.652344 60.636719 C 354.199219 60.636719 353.824219 60.480469 353.523438 60.167969 C 353.210938 59.859375 353.050781 59.480469 353.050781 59.027344 C 353.050781 58.574219 353.203125 58.199219 353.523438 57.890625 C 353.847656 57.582031 354.199219 57.417969 354.652344 57.417969 Z M 354.652344 57.417969 "/>
<path style=" stroke:none;fill-rule:nonzero;fill:rgb(36.862745%,10.196078%,18.039216%);fill-opacity:1;" d="M 117.5 34.558594 L 117.5 19.640625 C 117.5 18.699219 117.308594 18.027344 116.921875 17.636719 C 116.535156 17.246094 115.851562 17.050781 114.898438 17.050781 L 114.613281 17.050781 L 114.613281 16.136719 L 125.601562 16.136719 L 125.601562 17.050781 L 125.316406 17.050781 C 124.359375 17.050781 123.695312 17.246094 123.292969 17.636719 C 122.902344 18.027344 122.707031 18.699219 122.707031 19.640625 L 122.707031 25.933594 L 130.195312 25.933594 L 130.195312 19.640625 C 130.195312 18.699219 130.003906 18.027344 129.613281 17.636719 C 129.226562 17.246094 128.550781 17.050781 127.589844 17.050781 L 127.304688 17.050781 L 127.304688 16.136719 L 138.296875 16.136719 L 138.296875 17.050781 L 138.007812 17.050781 C 137.054688 17.050781 136.386719 17.246094 135.988281 17.636719 C 135.597656 18.027344 135.40625 18.699219 135.40625 19.640625 L 135.40625 34.558594 C 135.40625 35.5 135.597656 36.167969 135.988281 36.558594 C 136.378906 36.953125 137.054688 37.144531 138.023438 37.144531 L 138.320312 37.144531 L 138.320312 38.074219 L 127.320312 38.074219 L 127.320312 37.144531 L 127.609375 37.144531 C 128.5625 37.144531 129.226562 36.953125 129.632812 36.558594 C 130.035156 36.167969 130.21875 35.5 130.21875 34.558594 L 130.21875 27.402344 L 122.722656 27.402344 L 122.722656 34.558594 C 122.722656 35.5 122.917969 36.167969 123.308594 36.558594 C 123.695312 36.953125 124.375 37.144531 125.339844 37.144531 L 125.636719 37.144531 L 125.636719 38.074219 L 114.636719 38.074219 L 114.636719 37.144531 L 114.929688 37.144531 C 115.886719 37.144531 116.546875 36.953125 116.953125 36.558594 C 117.339844 36.167969 117.535156 35.5 117.535156 34.558594 Z M 117.5 34.558594 "/>
<path style=" stroke:none;fill-rule:nonzero;fill:rgb(36.862745%,10.196078%,18.039216%);fill-opacity:1;" d="M 141.851562 34.558594 L 149.585938 15.636719 L 150.425781 15.636719 L 158.492188 34.558594 C 158.898438 35.5 159.289062 36.167969 159.660156 36.558594 C 160.027344 36.953125 160.480469 37.144531 161.015625 37.144531 L 161.183594 37.144531 L 161.183594 38.074219 L 150.75 38.074219 L 150.75 37.144531 L 151.074219 37.144531 C 152.03125 37.144531 152.660156 36.933594 152.960938 36.488281 C 153.273438 36.058594 153.238281 35.417969 152.867188 34.558594 L 151.6875 31.683594 L 144.621094 31.683594 L 143.507812 34.558594 C 143.183594 35.371094 143.183594 35.953125 143.507812 36.347656 C 143.828125 36.738281 144.542969 37 145.636719 37.128906 L 145.976562 37.128906 L 145.976562 38.050781 L 139.316406 38.050781 L 139.316406 37.128906 L 139.464844 37.128906 C 139.964844 37.082031 140.382812 36.871094 140.742188 36.480469 C 141.09375 36.082031 141.46875 35.453125 141.839844 34.542969 Z M 145.191406 30.230469 L 151.105469 30.230469 L 148.050781 22.859375 L 145.203125 30.230469 Z M 145.191406 30.230469 "/>
<path style=" stroke:none;fill-rule:nonzero;fill:rgb(36.862745%,10.196078%,18.039216%);fill-opacity:1;" d="M 162.167969 37.730469 L 174.523438 17.359375 L 170.835938 17.359375 C 169.023438 17.359375 167.566406 17.816406 166.484375 18.722656 C 165.402344 19.640625 164.691406 21 164.335938 22.84375 L 163.300781 22.84375 L 163.609375 19.496094 L 163.914062 16.136719 L 180.855469 16.136719 L 180.855469 16.46875 L 168.539062 36.800781 L 173.265625 36.800781 C 175.476562 36.800781 177.09375 36.363281 178.09375 35.472656 C 179.097656 34.574219 179.988281 32.78125 180.746094 30.097656 L 181.523438 30.097656 L 181.164062 34.089844 L 180.792969 38.074219 L 162.152344 38.074219 L 162.152344 37.75 Z M 162.167969 37.730469 "/>
<path style=" stroke:none;fill-rule:nonzero;fill:rgb(36.862745%,10.196078%,18.039216%);fill-opacity:1;" d="M 185.757812 34.558594 L 193.492188 15.636719 L 194.335938 15.636719 L 202.398438 34.558594 C 202.804688 35.5 203.195312 36.167969 203.566406 36.558594 C 203.933594 36.953125 204.390625 37.144531 204.921875 37.144531 L 205.085938 37.144531 L 205.085938 38.074219 L 194.65625 38.074219 L 194.65625 37.144531 L 194.980469 37.144531 C 195.9375 37.144531 196.566406 36.933594 196.867188 36.488281 C 197.175781 36.058594 197.148438 35.417969 196.773438 34.558594 L 195.59375 31.683594 L 188.527344 31.683594 L 187.410156 34.558594 C 187.085938 35.371094 187.085938 35.953125 187.410156 36.347656 C 187.730469 36.738281 188.445312 37 189.546875 37.128906 L 189.886719 37.128906 L 189.886719 38.050781 L 183.21875 38.050781 L 183.21875 37.128906 L 183.367188 37.128906 C 183.863281 37.082031 184.292969 36.871094 184.644531 36.480469 C 185.003906 36.082031 185.375 35.453125 185.742188 34.542969 Z M 189.089844 30.230469 L 195.011719 30.230469 L 191.957031 22.859375 L 189.109375 30.230469 Z M 189.089844 30.230469 "/>
<path style=" stroke:none;fill-rule:nonzero;fill:rgb(36.862745%,10.196078%,18.039216%);fill-opacity:1;" d="M 210.226562 33.78125 C 210.226562 34.949219 210.421875 35.777344 210.808594 36.28125 C 211.199219 36.785156 211.875 37.082031 212.832031 37.144531 L 213.125 37.144531 L 213.125 38.074219 L 205.988281 38.074219 L 205.988281 37.144531 L 206.285156 37.144531 C 207.238281 37.082031 207.894531 36.785156 208.304688 36.28125 C 208.691406 35.777344 208.882812 34.949219 208.882812 33.78125 L 208.882812 19.375 C 208.207031 18.5625 207.640625 17.980469 207.203125 17.636719 C 206.738281 17.246094 206.296875 17.050781 205.925781 17.050781 L 205.8125 17.050781 L 205.8125 16.136719 L 212.6875 16.136719 L 223.953125 30.015625 L 223.953125 20.4375 C 223.953125 19.261719 223.761719 18.433594 223.371094 17.933594 C 222.988281 17.421875 222.308594 17.136719 221.335938 17.066406 L 221.046875 17.066406 L 221.046875 16.15625 L 228.175781 16.15625 L 228.175781 17.066406 L 227.886719 17.066406 C 226.933594 17.136719 226.269531 17.421875 225.867188 17.933594 C 225.476562 18.433594 225.285156 19.261719 225.285156 20.4375 L 225.285156 38.578125 L 224.441406 38.578125 L 210.199219 21 L 210.199219 33.792969 Z M 210.226562 33.78125 "/>
<path style=" stroke:none;fill-rule:nonzero;fill:rgb(36.862745%,10.196078%,18.039216%);fill-opacity:1;" d="M 249.683594 33.890625 C 248.472656 35.472656 247.113281 36.640625 245.644531 37.371094 C 244.171875 38.121094 242.472656 38.496094 240.566406 38.496094 C 237.378906 38.496094 234.730469 37.40625 232.609375 35.261719 C 230.503906 33.09375 229.4375 30.375 229.4375 27.105469 C 229.4375 23.839844 230.492188 21.105469 232.609375 18.9375 C 234.714844 16.777344 237.367188 15.703125 240.566406 15.703125 C 242.601562 15.703125 244.433594 16.109375 246.050781 16.9375 C 246.566406 17.199219 247.015625 17.246094 247.40625 17.066406 C 247.789062 16.886719 248.066406 16.546875 248.214844 15.988281 L 248.300781 15.703125 L 249.167969 15.703125 L 249.167969 23.589844 L 248.300781 23.589844 C 247.714844 21.535156 246.773438 19.925781 245.480469 18.777344 C 244.1875 17.605469 242.710938 17.035156 241.046875 17.035156 C 239.109375 17.035156 237.589844 17.894531 236.523438 19.640625 C 235.441406 21.378906 234.90625 23.800781 234.90625 26.925781 C 234.90625 30.050781 235.441406 32.472656 236.523438 34.199219 C 237.605469 35.925781 239.109375 36.785156 241.046875 36.785156 C 242.519531 36.785156 243.867188 36.488281 245.078125 35.890625 C 246.289062 35.285156 247.46875 34.34375 248.648438 33.03125 L 249.667969 33.890625 Z M 249.683594 33.890625 "/>
<path style=" stroke:none;fill-rule:nonzero;fill:rgb(36.862745%,10.196078%,18.039216%);fill-opacity:1;" d="M 254.460938 34.558594 L 254.460938 19.640625 C 254.460938 18.699219 254.261719 18.027344 253.878906 17.636719 C 253.488281 17.246094 252.804688 17.050781 251.851562 17.050781 L 251.5625 17.050781 L 251.5625 16.136719 L 262.5625 16.136719 L 262.5625 17.050781 L 262.265625 17.050781 C 261.3125 17.050781 260.648438 17.246094 260.246094 17.636719 C 259.863281 18.027344 259.664062 18.699219 259.664062 19.640625 L 259.664062 25.933594 L 267.152344 25.933594 L 267.152344 19.640625 C 267.152344 18.699219 266.953125 18.027344 266.570312 17.636719 C 266.179688 17.246094 265.503906 17.050781 264.550781 17.050781 L 264.253906 17.050781 L 264.253906 16.136719 L 275.253906 16.136719 L 275.253906 17.050781 L 274.960938 17.050781 C 274.003906 17.050781 273.34375 17.246094 272.9375 17.636719 C 272.554688 18.027344 272.355469 18.699219 272.355469 19.640625 L 272.355469 34.558594 C 272.355469 35.5 272.554688 36.167969 272.9375 36.558594 C 273.328125 36.953125 274.003906 37.144531 274.976562 37.144531 L 275.269531 37.144531 L 275.269531 38.074219 L 264.273438 38.074219 L 264.273438 37.144531 L 264.558594 37.144531 C 265.519531 37.144531 266.179688 36.953125 266.585938 36.558594 C 266.992188 36.167969 267.167969 35.5 267.167969 34.558594 L 267.167969 27.402344 L 259.679688 27.402344 L 259.679688 34.558594 C 259.679688 35.5 259.871094 36.167969 260.257812 36.558594 C 260.648438 36.953125 261.328125 37.144531 262.300781 37.144531 L 262.589844 37.144531 L 262.589844 38.074219 L 251.59375 38.074219 L 251.59375 37.144531 L 251.882812 37.144531 C 252.84375 37.144531 253.503906 36.953125 253.902344 36.558594 C 254.292969 36.167969 254.488281 35.5 254.488281 34.558594 Z M 254.460938 34.558594 "/>
<path style=" stroke:none;fill-rule:nonzero;fill:rgb(36.862745%,10.196078%,18.039216%);fill-opacity:1;" d="M 140.125 49.410156 C 140.125 48.84375 140.011719 48.4375 139.769531 48.207031 C 139.53125 47.980469 139.125 47.847656 138.542969 47.847656 L 138.367188 47.847656 L 138.367188 47.300781 L 144.996094 47.300781 L 144.996094 47.847656 L 144.8125 47.847656 C 144.25 47.847656 143.84375 47.964844 143.601562 48.207031 C 143.359375 48.4375 143.246094 48.84375 143.246094 49.410156 L 143.246094 56.328125 C 143.246094 57.738281 142.886719 58.832031 142.179688 59.609375 C 141.46875 60.394531 140.460938 60.785156 139.171875 60.785156 C 138.199219 60.785156 137.414062 60.542969 136.773438 60.074219 C 136.144531 59.597656 135.820312 59 135.820312 58.277344 C 135.820312 57.871094 135.972656 57.515625 136.246094 57.222656 C 136.519531 56.925781 136.855469 56.78125 137.246094 56.78125 C 137.636719 56.78125 137.960938 56.910156 138.25 57.175781 C 138.523438 57.4375 138.671875 57.738281 138.671875 58.097656 C 138.671875 58.359375 138.605469 58.605469 138.460938 58.8125 C 138.234375 59.175781 138.121094 59.433594 138.121094 59.609375 C 138.121094 59.792969 138.265625 59.921875 138.523438 60.003906 C 138.671875 60.050781 138.816406 60.074219 138.972656 60.074219 C 139.347656 60.074219 139.640625 59.953125 139.839844 59.730469 C 140.03125 59.5 140.125 59.175781 140.125 58.765625 Z M 140.125 49.410156 "/>
<path style=" stroke:none;fill-rule:nonzero;fill:rgb(36.862745%,10.196078%,18.039216%);fill-opacity:1;" d="M 145.496094 60.503906 L 145.496094 59.953125 L 145.671875 59.953125 C 146.238281 59.953125 146.644531 59.839844 146.882812 59.597656 C 147.128906 59.371094 147.242188 58.964844 147.242188 58.394531 L 147.242188 49.410156 C 147.242188 48.84375 147.128906 48.4375 146.882812 48.207031 C 146.644531 47.980469 146.238281 47.847656 145.65625 47.847656 L 145.480469 47.847656 L 145.480469 47.300781 L 156.605469 47.300781 L 156.605469 51.285156 L 156.089844 51.285156 C 155.84375 50.011719 155.421875 49.167969 154.828125 48.746094 C 154.226562 48.316406 153.144531 48.113281 151.570312 48.113281 L 151.445312 48.113281 C 151.011719 48.113281 150.714844 48.175781 150.574219 48.339844 C 150.425781 48.484375 150.34375 48.78125 150.34375 49.214844 L 150.34375 53.363281 L 150.574219 53.363281 C 151.492188 53.363281 152.15625 53.171875 152.53125 52.796875 C 152.898438 52.421875 153.210938 51.675781 153.414062 50.535156 L 153.933594 50.535156 L 153.933594 57.09375 L 153.414062 57.09375 C 153.191406 55.921875 152.886719 55.125 152.515625 54.734375 C 152.128906 54.339844 151.492188 54.144531 150.574219 54.144531 L 150.34375 54.144531 L 150.34375 58.34375 C 150.34375 58.917969 150.441406 59.285156 150.621094 59.480469 C 150.796875 59.683594 151.1875 59.761719 151.738281 59.761719 C 153.160156 59.761719 154.210938 59.535156 154.921875 59.074219 C 155.636719 58.621094 156.347656 57.722656 157.054688 56.390625 L 157.523438 56.488281 L 157.125 58.511719 L 156.699219 60.542969 L 145.480469 60.542969 Z M 145.496094 60.503906 "/>
<path style=" stroke:none;fill-rule:nonzero;fill:rgb(36.862745%,10.196078%,18.039216%);fill-opacity:1;" d="M 163.5625 60.816406 L 159.648438 49.410156 C 159.457031 48.84375 159.257812 48.4375 159.027344 48.207031 C 158.804688 47.980469 158.542969 47.847656 158.222656 47.847656 L 158.125 47.847656 L 158.125 47.300781 L 163.832031 47.300781 L 163.832031 47.847656 L 163.671875 47.847656 C 163.1875 47.847656 162.859375 47.980469 162.703125 48.246094 C 162.535156 48.5 162.554688 48.890625 162.726562 49.410156 L 164.964844 56.128906 C 164.964844 56.128906 167.28125 50.175781 167.28125 50.175781 L 167.019531 49.425781 C 166.824219 48.855469 166.617188 48.453125 166.371094 48.222656 C 166.132812 47.996094 165.820312 47.863281 165.429688 47.863281 L 165.320312 47.863281 L 165.320312 47.3125 L 171.195312 47.3125 L 171.195312 47.863281 L 171.015625 47.863281 C 170.480469 47.863281 170.121094 47.996094 169.945312 48.253906 C 169.769531 48.519531 169.769531 48.910156 169.945312 49.425781 L 172.171875 56.128906 C 172.171875 56.128906 174.179688 50.214844 174.179688 50.214844 C 174.457031 49.402344 174.539062 48.808594 174.421875 48.46875 C 174.289062 48.125 173.957031 47.910156 173.390625 47.886719 L 173.207031 47.886719 L 173.207031 47.328125 L 176.703125 47.328125 L 176.703125 47.886719 L 176.621094 47.886719 C 176.316406 47.933594 176.058594 48.078125 175.863281 48.308594 C 175.667969 48.53125 175.476562 48.925781 175.300781 49.449219 L 171.386719 60.847656 L 170.886719 60.847656 L 167.734375 51.480469 L 164.058594 60.847656 L 163.5625 60.847656 Z M 163.5625 60.816406 "/>
<path style=" stroke:none;fill-rule:nonzero;fill:rgb(36.862745%,10.196078%,18.039216%);fill-opacity:1;" d="M 177.203125 60.503906 L 177.203125 59.953125 L 177.382812 59.953125 C 177.953125 59.953125 178.355469 59.839844 178.59375 59.597656 C 178.84375 59.371094 178.953125 58.964844 178.953125 58.394531 L 178.953125 49.410156 C 178.953125 48.84375 178.84375 48.4375 178.59375 48.207031 C 178.355469 47.980469 177.953125 47.847656 177.371094 47.847656 L 177.1875 47.847656 L 177.1875 47.300781 L 188.3125 47.300781 L 188.3125 51.285156 L 187.796875 51.285156 C 187.554688 50.011719 187.136719 49.167969 186.539062 48.746094 C 185.9375 48.316406 184.851562 48.113281 183.28125 48.113281 L 183.164062 48.113281 C 182.71875 48.113281 182.429688 48.175781 182.28125 48.339844 C 182.136719 48.484375 182.058594 48.78125 182.058594 49.214844 L 182.058594 53.363281 L 182.28125 53.363281 C 183.210938 53.363281 183.863281 53.171875 184.246094 52.796875 C 184.613281 52.421875 184.921875 51.675781 185.128906 50.535156 L 185.648438 50.535156 L 185.648438 57.09375 L 185.128906 57.09375 C 184.898438 55.921875 184.597656 55.125 184.222656 54.734375 C 183.839844 54.339844 183.210938 54.144531 182.28125 54.144531 L 182.058594 54.144531 L 182.058594 58.34375 C 182.058594 58.917969 182.152344 59.285156 182.328125 59.480469 C 182.511719 59.683594 182.902344 59.761719 183.449219 59.761719 C 184.875 59.761719 185.921875 59.535156 186.632812 59.074219 C 187.347656 58.621094 188.054688 57.722656 188.765625 56.390625 L 189.238281 56.488281 L 188.835938 58.511719 L 188.414062 60.542969 L 177.1875 60.542969 Z M 177.203125 60.503906 "/>
<path style=" stroke:none;fill-rule:nonzero;fill:rgb(36.862745%,10.196078%,18.039216%);fill-opacity:1;" d="M 190.046875 60.503906 L 190.046875 59.953125 L 190.230469 59.953125 C 190.789062 59.953125 191.191406 59.839844 191.441406 59.597656 C 191.679688 59.371094 191.789062 58.964844 191.789062 58.394531 L 191.789062 49.410156 C 191.789062 48.84375 191.679688 48.4375 191.441406 48.207031 C 191.191406 47.980469 190.789062 47.847656 190.207031 47.847656 L 190.03125 47.847656 L 190.03125 47.300781 L 196.660156 47.300781 L 196.660156 47.847656 L 196.484375 47.847656 C 195.917969 47.847656 195.511719 47.964844 195.269531 48.207031 C 195.027344 48.453125 194.917969 48.84375 194.917969 49.410156 L 194.917969 58.6875 C 194.917969 59.109375 194.980469 59.40625 195.125 59.535156 C 195.269531 59.660156 195.546875 59.746094 195.960938 59.746094 L 196 59.746094 C 197.566406 59.746094 198.710938 59.480469 199.445312 58.964844 C 200.171875 58.441406 200.828125 57.417969 201.449219 55.855469 L 201.96875 55.96875 L 201.496094 58.230469 L 201.027344 60.503906 L 190.03125 60.503906 Z M 190.046875 60.503906 "/>
<path style=" stroke:none;fill-rule:nonzero;fill:rgb(36.862745%,10.196078%,18.039216%);fill-opacity:1;" d="M 202.742188 60.503906 L 202.742188 59.953125 L 202.917969 59.953125 C 203.480469 59.953125 203.886719 59.839844 204.132812 59.597656 C 204.371094 59.371094 204.484375 58.964844 204.484375 58.394531 L 204.484375 49.410156 C 204.484375 48.84375 204.371094 48.4375 204.132812 48.207031 C 203.886719 47.980469 203.480469 47.847656 202.898438 47.847656 L 202.726562 47.847656 L 202.726562 47.300781 L 209.355469 47.300781 L 209.355469 47.847656 L 209.175781 47.847656 C 208.605469 47.847656 208.207031 47.964844 207.960938 48.207031 C 207.722656 48.453125 207.609375 48.84375 207.609375 49.410156 L 207.609375 58.6875 C 207.609375 59.109375 207.675781 59.40625 207.820312 59.535156 C 207.960938 59.660156 208.238281 59.746094 208.660156 59.746094 L 208.691406 59.746094 C 210.261719 59.746094 211.410156 59.480469 212.136719 58.964844 C 212.863281 58.441406 213.53125 57.417969 214.136719 55.855469 L 214.660156 55.96875 L 214.183594 58.230469 L 213.722656 60.503906 L 202.726562 60.503906 Z M 202.742188 60.503906 "/>
<path style=" stroke:none;fill-rule:nonzero;fill:rgb(36.862745%,10.196078%,18.039216%);fill-opacity:1;" d="M 215.289062 60.503906 L 215.289062 59.953125 L 215.46875 59.953125 C 216.03125 59.953125 216.433594 59.839844 216.683594 59.597656 C 216.921875 59.371094 217.035156 58.964844 217.035156 58.394531 L 217.035156 49.410156 C 217.035156 48.84375 216.921875 48.4375 216.683594 48.207031 C 216.433594 47.980469 216.03125 47.847656 215.449219 47.847656 L 215.277344 47.847656 L 215.277344 47.300781 L 226.398438 47.300781 L 226.398438 51.285156 L 225.878906 51.285156 C 225.636719 50.011719 225.222656 49.167969 224.617188 48.746094 C 224.019531 48.316406 222.9375 48.113281 221.371094 48.113281 L 221.242188 48.113281 C 220.804688 48.113281 220.511719 48.175781 220.367188 48.339844 C 220.226562 48.484375 220.144531 48.78125 220.144531 49.214844 L 220.144531 53.363281 L 220.367188 53.363281 C 221.289062 53.363281 221.953125 53.171875 222.324219 52.796875 C 222.691406 52.421875 223 51.675781 223.214844 50.535156 L 223.730469 50.535156 L 223.730469 57.09375 L 223.214844 57.09375 C 222.988281 55.921875 222.675781 55.125 222.308594 54.734375 C 221.917969 54.339844 221.289062 54.144531 220.367188 54.144531 L 220.144531 54.144531 L 220.144531 58.34375 C 220.144531 58.917969 220.238281 59.285156 220.417969 59.480469 C 220.597656 59.683594 220.980469 59.761719 221.53125 59.761719 C 222.953125 59.761719 224.007812 59.535156 224.71875 59.074219 C 225.429688 58.621094 226.136719 57.722656 226.851562 56.390625 L 227.320312 56.488281 L 226.914062 58.511719 L 226.496094 60.542969 L 215.277344 60.542969 Z M 215.289062 60.503906 "/>
<path style=" stroke:none;fill-rule:nonzero;fill:rgb(36.862745%,10.196078%,18.039216%);fill-opacity:1;" d="M 229.734375 58.394531 L 229.734375 49.410156 C 229.734375 48.84375 229.613281 48.4375 229.375 48.207031 C 229.136719 47.980469 228.730469 47.847656 228.144531 47.847656 L 227.96875 47.847656 L 227.96875 47.300781 L 234.207031 47.300781 C 236.050781 47.300781 237.414062 47.589844 238.28125 48.175781 C 239.15625 48.761719 239.613281 49.65625 239.613281 50.878906 C 239.613281 52.097656 239.09375 52.941406 238.058594 53.542969 C 237.667969 53.777344 237.199219 53.96875 236.679688 54.097656 L 239.464844 58.394531 C 239.832031 58.964844 240.160156 59.371094 240.453125 59.597656 C 240.722656 59.824219 241.035156 59.953125 241.34375 59.953125 L 241.4375 59.953125 L 241.4375 60.503906 L 237.492188 60.503906 L 233.304688 54.4375 L 232.871094 54.4375 L 232.871094 58.394531 C 232.871094 58.964844 232.980469 59.371094 233.21875 59.597656 C 233.464844 59.824219 233.871094 59.953125 234.453125 59.953125 L 234.628906 59.953125 L 234.628906 60.503906 L 227.996094 60.503906 L 227.996094 59.953125 L 228.175781 59.953125 C 228.746094 59.953125 229.152344 59.839844 229.390625 59.597656 C 229.632812 59.371094 229.742188 58.964844 229.742188 58.394531 Z M 232.851562 53.707031 L 233.480469 53.707031 C 234.46875 53.707031 235.164062 53.480469 235.597656 53.027344 C 236.023438 52.574219 236.25 51.800781 236.25 50.75 C 236.25 49.855469 236.050781 49.199219 235.644531 48.761719 C 235.257812 48.355469 234.714844 48.140625 233.980469 48.113281 C 233.527344 48.113281 233.242188 48.160156 233.09375 48.308594 C 232.945312 48.453125 232.871094 48.746094 232.871094 49.199219 L 232.871094 53.707031 Z M 232.851562 53.707031 "/>
<path style=" stroke:none;fill-rule:nonzero;fill:rgb(36.862745%,10.196078%,18.039216%);fill-opacity:1;" d="M 250.425781 51.394531 C 250.234375 50.371094 249.78125 49.527344 249.085938 48.855469 C 248.394531 48.175781 247.597656 47.847656 246.707031 47.847656 C 246.015625 47.847656 245.480469 48.011719 245.089844 48.316406 C 244.703125 48.628906 244.507812 49.066406 244.507812 49.625 C 244.507812 50.128906 244.753906 50.582031 245.21875 51.011719 C 245.691406 51.425781 246.445312 51.832031 247.488281 52.261719 C 248.816406 52.796875 249.8125 53.433594 250.488281 54.160156 C 251.15625 54.894531 251.5 55.746094 251.5 56.6875 C 251.5 57.917969 251.074219 58.917969 250.234375 59.660156 C 249.390625 60.410156 248.277344 60.800781 246.90625 60.800781 C 245.824219 60.800781 244.832031 60.625 243.945312 60.25 C 243.71875 60.152344 243.492188 60.167969 243.285156 60.265625 C 243.070312 60.359375 242.925781 60.542969 242.863281 60.785156 L 242.832031 60.886719 L 242.316406 60.886719 L 242.316406 55.902344 L 242.832031 55.902344 C 242.972656 57.09375 243.445312 58.082031 244.203125 58.871094 C 244.980469 59.644531 245.871094 60.035156 246.90625 60.035156 C 247.597656 60.035156 248.148438 59.839844 248.585938 59.453125 C 249.023438 59.0625 249.230469 58.558594 249.230469 57.9375 C 249.230469 57.4375 249.007812 56.964844 248.539062 56.535156 C 248.066406 56.113281 247.328125 55.707031 246.304688 55.300781 C 245.027344 54.800781 244.074219 54.183594 243.445312 53.464844 C 242.792969 52.75 242.488281 51.933594 242.488281 51.019531 C 242.488281 49.816406 242.878906 48.855469 243.652344 48.140625 C 244.433594 47.410156 245.449219 47.050781 246.726562 47.050781 C 247.503906 47.050781 248.300781 47.234375 249.136719 47.578125 C 249.429688 47.707031 249.683594 47.71875 249.90625 47.652344 C 250.121094 47.589844 250.289062 47.425781 250.394531 47.171875 L 250.441406 47.050781 L 250.964844 47.050781 L 250.964844 51.417969 L 250.441406 51.417969 Z M 250.425781 51.394531 "/>
<path style=" stroke:none;fill-rule:nonzero;fill:rgb(36.862745%,10.196078%,18.039216%);fill-opacity:1;" d="M 75.085938 50.34375 L 75.085938 25.816406 C 75.085938 22.386719 74.746094 20.1875 74.082031 19.214844 C 73.40625 18.253906 71.824219 17.699219 69.316406 17.542969 L 69.316406 15.941406 L 87.730469 15.941406 L 87.730469 17.542969 C 85.226562 17.683594 83.640625 18.109375 82.960938 18.792969 C 82.28125 19.472656 81.960938 21.035156 81.960938 23.441406 L 81.960938 36.980469 C 84.410156 34.902344 87.003906 32.574219 89.703125 29.988281 C 91.867188 27.902344 93.855469 25.921875 95.6875 24.046875 C 97.777344 21.871094 98.695312 20.269531 98.453125 19.28125 C 98.210938 18.292969 96.753906 17.699219 94.105469 17.542969 L 94.105469 15.941406 L 110.773438 15.941406 L 110.773438 17.542969 C 108.398438 17.910156 106.605469 18.449219 105.425781 19.152344 C 104.226562 19.832031 102.605469 21.28125 100.574219 23.464844 C 98.082031 26.144531 95.234375 29.011719 91.996094 32.035156 L 88.683594 35.175781 L 105.675781 53.839844 C 107.488281 55.792969 108.851562 57.042969 109.773438 57.59375 C 110.695312 58.152344 111.9375 58.472656 113.523438 58.589844 L 113.523438 60.183594 L 94.136719 60.183594 L 94.136719 58.589844 C 96.484375 58.589844 97.804688 58.230469 98.148438 57.5 C 98.480469 56.769531 97.886719 55.546875 96.351562 53.855469 L 83.589844 39.597656 L 81.960938 41 L 81.960938 52.667969 C 81.960938 55.089844 82.292969 56.636719 82.960938 57.316406 C 83.640625 58 85.226562 58.425781 87.730469 58.574219 L 87.730469 60.167969 L 69.316406 60.167969 L 69.316406 58.574219 C 71.824219 58.425781 73.40625 57.855469 74.082031 56.878906 C 74.761719 55.921875 75.085938 53.738281 75.085938 50.285156 Z M 75.085938 50.34375 "/>
<path style=" stroke:none;fill-rule:nonzero;fill:rgb(36.862745%,10.196078%,18.039216%);fill-opacity:1;" d="M 291.988281 50.34375 L 291.988281 25.816406 C 291.988281 22.386719 291.617188 20.1875 290.875 19.214844 C 290.125 18.253906 288.386719 17.699219 285.632812 17.542969 L 285.632812 15.941406 L 305.859375 15.941406 L 305.859375 17.542969 C 303.113281 17.683594 301.363281 18.238281 300.625 19.214844 C 299.882812 20.1875 299.507812 22.371094 299.507812 25.816406 L 299.507812 50.34375 C 299.507812 53.777344 299.882812 55.96875 300.625 56.949219 C 301.363281 57.917969 303.113281 58.464844 305.859375 58.621094 L 305.859375 60.21875 L 285.632812 60.21875 L 285.632812 58.621094 C 288.386719 58.472656 290.125 57.90625 290.875 56.925781 C 291.617188 55.96875 291.988281 53.792969 291.988281 50.34375 Z M 291.988281 50.34375 "/>
<path style="fill:none;stroke-width:0.73;stroke-linecap:butt;stroke-linejoin:miter;stroke:rgb(36.862745%,10.196078%,18.039216%);stroke-opacity:1;stroke-miterlimit:10;" d="M 23.012824 38.608542 C 20.739778 40.582065 18.060917 41.717681 15.193642 41.717681 C 7.000047 41.717681 0.362075 32.45989 0.362075 21.041307 C 0.362075 9.622725 7.000047 0.357731 15.193642 0.357731 C 21.230138 0.357731 26.433264 5.399578 28.740128 12.628626 " transform="matrix(1.617117,0,0,1.627008,0.746514,0)"/>
<path style="fill:none;stroke-width:0.73;stroke-linecap:butt;stroke-linejoin:miter;stroke:rgb(36.862745%,10.196078%,18.039216%);stroke-opacity:1;stroke-miterlimit:10;" d="M 29.351266 14.902258 C 29.788483 16.842169 30.020377 18.899723 30.020377 21.041307 C 30.020377 26.498506 28.498572 31.470727 26.029865 35.158478 " transform="matrix(1.617117,0,0,1.627008,0.746514,0)"/>
<path style="fill:none;stroke-width:0.65;stroke-linecap:butt;stroke-linejoin:miter;stroke:rgb(36.862745%,10.196078%,18.039216%);stroke-opacity:1;stroke-miterlimit:10;" d="M 11.831176 15.329615 L 11.729722 12.282899 C 11.729722 12.282899 9.599194 10.957614 11.198298 10.160522 C 11.468841 10.033275 11.758709 9.951645 12.058239 9.930037 L 17.539155 9.572306 C 17.959463 9.538694 18.377356 9.651535 18.722782 9.91083 C 19.220388 10.287768 19.539242 10.993627 17.973957 12.110036 L 18.258993 17.408777 L 28.629012 12.657436 C 28.629012 12.657436 33.141287 11.101666 29.67012 14.652567 C 29.587991 14.738999 29.491369 14.811025 29.389915 14.87825 C 28.199042 15.641729 19.995784 20.962078 17.949801 25.331679 C 18.041592 25.372494 21.010321 26.371259 22.570776 30.270288 C 22.62875 30.407138 22.689139 30.54879 22.761606 30.692842 C 24.020115 33.038502 25.121612 34.479029 25.749659 35.012024 C 25.940489 35.170482 26.191707 35.252112 26.438095 35.252112 C 27.348763 35.228104 29.587991 35.360152 27.491281 37.280855 C 24.901796 39.64092 24.607097 39.468057 23.619131 39.179951 C 22.62875 38.887044 21.230138 34.320571 17.121262 33.331409 C 17.121262 33.331409 16.81207 37.672199 13.038958 36.188455 C 9.321404 34.728721 9.780361 35.722685 9.57987 36.270085 C 9.41078 36.731054 8.49045 37.883476 7.289914 36.14764 C 6.091794 34.419007 5.932367 32.750396 7.541133 32.342246 C 9.152315 31.931696 12.4713 33.158545 12.367431 29.509209 L 12.099303 20.750801 C 12.099303 20.750801 10.410824 19.449524 9.889062 21.216571 C 9.889062 21.216571 9.352807 22.210535 11.000222 22.661901 C 12.647637 23.108464 10.611316 25.667802 9.780361 25.151613 C 8.949407 24.630622 7.683651 23.137275 4.999959 21.970447 C 2.15684 20.697981 11.831176 15.329615 11.831176 15.329615 Z M 11.831176 15.329615 " transform="matrix(1.617117,0,0,1.627008,0.746514,0)"/>
<path style=" stroke:none;fill-rule:nonzero;fill:rgb(36.862745%,10.196078%,18.039216%);fill-opacity:1;" d="M 30.789062 9.109375 L 24.757812 15.097656 L 18.144531 9.683594 L 30.789062 9.109375 M 32.585938 8.332031 L 16.269531 9.046875 L 24.804688 16.042969 Z M 32.585938 8.332031 "/>
<path style="fill:none;stroke-width:0.44;stroke-linecap:butt;stroke-linejoin:miter;stroke:rgb(36.862745%,10.196078%,18.039216%);stroke-opacity:1;stroke-miterlimit:10;" d="M 9.719972 5.649269 L 12.009928 3.188368 L 17.053626 2.969888 L 19.577892 5.231516 " transform="matrix(1.617117,0,0,1.627008,0.746514,0)"/>
<path style="fill:none;stroke-width:0.44;stroke-linecap:butt;stroke-linejoin:miter;stroke:rgb(36.862745%,10.196078%,18.039216%);stroke-opacity:1;stroke-miterlimit:10;" d="M 14.860294 9.557901 L 11.971279 5.649269 " transform="matrix(1.617117,0,0,1.627008,0.746514,0)"/>
<path style="fill:none;stroke-width:0.44;stroke-linecap:butt;stroke-linejoin:miter;stroke:rgb(36.862745%,10.196078%,18.039216%);stroke-opacity:1;stroke-miterlimit:10;" d="M 17.268612 5.423587 L 14.860294 9.557901 " transform="matrix(1.617117,0,0,1.627008,0.746514,0)"/>
<path style="fill:none;stroke-width:0.44;stroke-linecap:butt;stroke-linejoin:miter;stroke:rgb(36.862745%,10.196078%,18.039216%);stroke-opacity:1;stroke-miterlimit:10;" d="M 11.920552 5.519622 L 12.009928 3.188368 " transform="matrix(1.617117,0,0,1.627008,0.746514,0)"/>
<path style="fill:none;stroke-width:0.44;stroke-linecap:butt;stroke-linejoin:miter;stroke:rgb(36.862745%,10.196078%,18.039216%);stroke-opacity:1;stroke-miterlimit:10;" d="M 17.360403 5.298741 L 17.053626 2.969888 " transform="matrix(1.617117,0,0,1.627008,0.746514,0)"/>
<path style="fill:none;stroke-width:0.44;stroke-linecap:butt;stroke-linejoin:miter;stroke:rgb(36.862745%,10.196078%,18.039216%);stroke-opacity:1;stroke-miterlimit:10;" d="M 11.939876 5.54123 L 13.522071 3.121143 " transform="matrix(1.617117,0,0,1.627008,0.746514,0)"/>
<path style="fill:none;stroke-width:0.44;stroke-linecap:butt;stroke-linejoin:miter;stroke:rgb(36.862745%,10.196078%,18.039216%);stroke-opacity:1;stroke-miterlimit:10;" d="M 17.338663 5.320349 L 15.539067 3.027509 " transform="matrix(1.617117,0,0,1.627008,0.746514,0)"/>
<path style="fill:none;stroke-width:0.44;stroke-linecap:butt;stroke-linejoin:miter;stroke:rgb(36.862745%,10.196078%,18.039216%);stroke-opacity:1;stroke-miterlimit:10;" d="M 13.522071 3.121143 L 14.647724 5.409181 " transform="matrix(1.617117,0,0,1.627008,0.746514,0)"/>
<path style="fill:none;stroke-width:0.44;stroke-linecap:butt;stroke-linejoin:miter;stroke:rgb(36.862745%,10.196078%,18.039216%);stroke-opacity:1;stroke-miterlimit:10;" d="M 15.539067 3.027509 L 14.647724 5.409181 " transform="matrix(1.617117,0,0,1.627008,0.746514,0)"/>
<path style="fill:none;stroke-width:0.44;stroke-linecap:butt;stroke-linejoin:miter;stroke:rgb(36.862745%,10.196078%,18.039216%);stroke-opacity:1;stroke-miterlimit:10;" d="M 14.638062 5.329952 L 14.860294 9.557901 " transform="matrix(1.617117,0,0,1.627008,0.746514,0)"/>
<path style=" stroke:none;fill-rule:nonzero;fill:rgb(36.862745%,10.196078%,18.039216%);fill-opacity:1;" d="M 9.183594 74.730469 C 8.945312 74.339844 8.507812 74.15625 8.054688 74.15625 C 7.410156 74.15625 6.742188 74.46875 6.742188 75.199219 C 6.742188 75.769531 7.054688 76.03125 8.039062 76.339844 C 8.992188 76.652344 9.886719 76.957031 9.886719 78.175781 C 9.886719 79.402344 8.832031 79.984375 7.710938 79.984375 C 7.003906 79.984375 6.234375 79.738281 5.824219 79.121094 L 6.453125 78.605469 C 6.710938 79.058594 7.234375 79.296875 7.769531 79.296875 C 8.398438 79.296875 9.105469 78.925781 9.105469 78.222656 C 9.105469 77.464844 8.589844 77.328125 7.492188 76.957031 C 6.613281 76.660156 5.953125 76.292969 5.953125 75.25 C 5.953125 74.0625 6.972656 73.464844 8.054688 73.464844 C 8.753906 73.464844 9.328125 73.65625 9.789062 74.191406 L 9.183594 74.714844 Z M 9.183594 74.730469 "/>
<path style=" stroke:none;fill-rule:nonzero;fill:rgb(36.862745%,10.196078%,18.039216%);fill-opacity:1;" d="M 11.371094 73.636719 C 11.644531 73.636719 11.875 73.871094 11.875 74.144531 C 11.875 74.433594 11.660156 74.644531 11.371094 74.644531 C 11.078125 74.644531 10.871094 74.433594 10.871094 74.144531 C 10.871094 73.871094 11.078125 73.636719 11.371094 73.636719 Z M 11.03125 75.738281 L 11.707031 75.738281 L 11.707031 79.832031 L 11.03125 79.832031 Z M 11.03125 75.738281 "/>
<path style=" stroke:none;fill-rule:nonzero;fill:rgb(36.862745%,10.196078%,18.039216%);fill-opacity:1;" d="M 13.050781 76.714844 C 13.050781 76.339844 13.019531 76.015625 13.019531 75.738281 L 13.667969 75.738281 C 13.667969 75.949219 13.679688 76.175781 13.679688 76.402344 L 13.699219 76.402344 C 13.871094 75.996094 14.394531 75.625 15.058594 75.625 C 16.121094 75.625 16.609375 76.308594 16.609375 77.300781 L 16.609375 79.832031 L 15.933594 79.832031 L 15.933594 77.378906 C 15.933594 76.699219 15.640625 76.277344 14.992188 76.277344 C 14.121094 76.277344 13.730469 76.910156 13.730469 77.855469 L 13.730469 79.855469 L 13.050781 79.855469 Z M 13.050781 76.714844 "/>
<path style=" stroke:none;fill-rule:nonzero;fill:rgb(36.862745%,10.196078%,18.039216%);fill-opacity:1;" d="M 20.796875 76.761719 C 20.507812 76.402344 20.183594 76.253906 19.761719 76.253906 C 18.839844 76.253906 18.390625 76.9375 18.390625 77.785156 C 18.390625 78.628906 18.941406 79.316406 19.761719 79.316406 C 20.199219 79.316406 20.542969 79.15625 20.796875 78.8125 L 21.304688 79.296875 C 20.914062 79.761719 20.34375 79.953125 19.761719 79.953125 C 18.5 79.953125 17.664062 79.058594 17.664062 77.785156 C 17.664062 76.515625 18.519531 75.625 19.761719 75.625 C 20.367188 75.625 20.929688 75.816406 21.328125 76.277344 Z M 20.796875 76.761719 "/>
<path style=" stroke:none;fill-rule:nonzero;fill:rgb(36.862745%,10.196078%,18.039216%);fill-opacity:1;" d="M 25.730469 79.089844 C 25.246094 79.703125 24.679688 79.9375 23.921875 79.9375 C 22.640625 79.9375 21.847656 78.972656 21.847656 77.769531 C 21.847656 76.503906 22.746094 75.609375 23.9375 75.609375 C 25.132812 75.609375 25.875 76.402344 25.875 77.753906 L 25.875 77.964844 L 22.578125 77.964844 C 22.625 78.675781 23.175781 79.285156 23.898438 79.285156 C 24.480469 79.285156 24.871094 79.074219 25.195312 78.667969 L 25.714844 79.074219 Z M 25.148438 77.410156 C 25.117188 76.714844 24.664062 76.253906 23.921875 76.253906 C 23.175781 76.253906 22.675781 76.730469 22.59375 77.410156 Z M 25.148438 77.410156 "/>
<path style=" stroke:none;fill-rule:nonzero;fill:rgb(36.862745%,10.196078%,18.039216%);fill-opacity:1;" d="M 31.84375 79.832031 L 31.117188 79.832031 L 31.117188 74.582031 L 31.097656 74.582031 L 30.003906 75.527344 L 29.5625 74.988281 L 31.214844 73.636719 L 31.84375 73.636719 Z M 31.84375 79.832031 "/>
<path style=" stroke:none;fill-rule:nonzero;fill:rgb(36.862745%,10.196078%,18.039216%);fill-opacity:1;" d="M 36.617188 77.25 L 36.601562 77.25 C 36.367188 77.363281 36.019531 77.410156 35.773438 77.410156 C 34.703125 77.410156 33.917969 76.613281 33.917969 75.457031 C 33.917969 74.300781 34.804688 73.511719 35.980469 73.511719 C 37.164062 73.511719 38.054688 74.238281 38.054688 75.457031 C 38.054688 76.175781 37.792969 76.660156 37.46875 77.199219 L 35.839844 79.824219 L 34.984375 79.824219 L 36.628906 77.234375 Z M 37.292969 75.480469 C 37.292969 74.660156 36.695312 74.15625 35.972656 74.15625 C 35.238281 74.15625 34.640625 74.660156 34.640625 75.480469 C 34.640625 76.292969 35.238281 76.792969 35.972656 76.792969 C 36.695312 76.792969 37.292969 76.292969 37.292969 75.480469 Z M 37.292969 75.480469 "/>
<path style=" stroke:none;fill-rule:nonzero;fill:rgb(36.862745%,10.196078%,18.039216%);fill-opacity:1;" d="M 42.5625 74.324219 L 40.109375 79.832031 L 39.28125 79.832031 L 41.789062 74.324219 L 38.8125 74.324219 L 38.8125 73.636719 L 42.585938 73.636719 L 42.585938 74.324219 Z M 42.5625 74.324219 "/>
<path style=" stroke:none;fill-rule:nonzero;fill:rgb(36.862745%,10.196078%,18.039216%);fill-opacity:1;" d="M 46.367188 79.832031 L 45.632812 79.832031 L 45.632812 74.582031 L 45.617188 74.582031 L 44.519531 75.527344 L 44.082031 74.988281 L 45.738281 73.636719 L 46.367188 73.636719 Z M 46.367188 79.832031 "/>
</g>
</svg>
