<?xml version="1.0" encoding="UTF-8"?>
<svg xmlns="http://www.w3.org/2000/svg" xmlns:xlink="http://www.w3.org/1999/xlink" width="268px" height="60px" viewBox="0 0 268 60" version="1.1">
<g id="surface1">
<path style=" stroke:none;fill-rule:nonzero;fill:rgb(36.862745%,10.196078%,18.039216%);fill-opacity:1;" d="M 235.523438 45.28125 L 235.523438 44.878906 L 235.65625 44.878906 C 236.082031 44.878906 236.371094 44.796875 236.546875 44.625 C 236.714844 44.457031 236.796875 44.160156 236.796875 43.742188 L 236.796875 37.167969 C 236.796875 36.753906 236.714844 36.460938 236.546875 36.289062 C 236.371094 36.121094 236.074219 36.035156 235.644531 36.035156 L 235.511719 36.035156 L 235.511719 35.628906 L 240.367188 35.628906 L 240.367188 36.035156 L 240.234375 36.035156 C 239.808594 36.035156 239.519531 36.121094 239.351562 36.289062 C 239.179688 36.460938 239.09375 36.753906 239.09375 37.167969 L 239.09375 43.953125 C 239.09375 44.269531 239.140625 44.476562 239.253906 44.574219 C 239.359375 44.671875 239.554688 44.734375 239.871094 44.734375 L 239.894531 44.734375 C 241.046875 44.734375 241.886719 44.539062 242.421875 44.171875 C 242.953125 43.804688 243.441406 43.035156 243.886719 41.90625 L 244.273438 41.988281 L 243.933594 43.648438 L 243.597656 45.308594 L 235.539062 45.308594 Z M 235.523438 45.28125 "/>
<path style=" stroke:none;fill-rule:nonzero;fill:rgb(36.862745%,10.196078%,18.039216%);fill-opacity:1;" d="M 248.039062 43.734375 L 248.039062 36.191406 L 247.980469 36.191406 C 247.191406 36.191406 246.585938 36.390625 246.15625 36.792969 C 245.71875 37.195312 245.46875 37.792969 245.378906 38.597656 L 244.921875 38.597656 L 244.921875 35.59375 L 253.441406 35.59375 L 253.441406 38.597656 L 253.03125 38.597656 C 252.945312 37.792969 252.675781 37.179688 252.253906 36.792969 C 251.816406 36.390625 251.210938 36.191406 250.433594 36.191406 L 250.335938 36.191406 L 250.335938 43.734375 C 250.335938 44.152344 250.417969 44.441406 250.59375 44.609375 C 250.757812 44.785156 251.066406 44.867188 251.488281 44.867188 L 251.621094 44.867188 L 251.621094 45.269531 L 246.828125 45.269531 L 246.828125 44.867188 L 246.949219 44.867188 C 247.351562 44.867188 247.640625 44.785156 247.796875 44.609375 C 247.953125 44.441406 248.039062 44.152344 248.039062 43.734375 Z M 248.039062 43.734375 "/>
<path style=" stroke:none;fill-rule:nonzero;fill:rgb(36.862745%,10.196078%,18.039216%);fill-opacity:1;" d="M 255.324219 43.734375 L 255.324219 37.15625 C 255.324219 36.742188 255.238281 36.449219 255.070312 36.28125 C 254.898438 36.105469 254.59375 36.023438 254.167969 36.023438 L 254.039062 36.023438 L 254.039062 35.621094 L 258.6875 35.621094 C 260.238281 35.621094 261.441406 36.046875 262.316406 36.898438 C 263.175781 37.757812 263.613281 38.9375 263.613281 40.460938 C 263.613281 41.988281 263.140625 43.160156 262.210938 44.015625 C 261.273438 44.867188 259.960938 45.296875 258.273438 45.296875 L 254.050781 45.296875 L 254.050781 44.894531 L 254.183594 44.894531 C 254.605469 44.894531 254.898438 44.808594 255.070312 44.636719 C 255.238281 44.464844 255.324219 44.171875 255.324219 43.757812 Z M 257.621094 43.929688 C 257.621094 44.25 257.667969 44.464844 257.773438 44.5625 C 257.882812 44.660156 258.09375 44.707031 258.417969 44.699219 C 259.355469 44.660156 260.042969 44.320312 260.496094 43.671875 C 260.980469 42.988281 261.222656 41.917969 261.210938 40.449219 C 261.210938 39.046875 260.980469 37.988281 260.507812 37.265625 C 260.035156 36.542969 259.34375 36.191406 258.433594 36.191406 C 258.105469 36.191406 257.898438 36.238281 257.789062 36.351562 C 257.679688 36.460938 257.632812 36.667969 257.632812 37 L 257.632812 43.929688 Z M 257.621094 43.929688 "/>
<path style=" stroke:none;fill-rule:nonzero;fill:rgb(36.862745%,10.196078%,18.039216%);fill-opacity:1;" d="M 266.238281 43.0625 C 266.578125 43.0625 266.855469 43.1875 267.085938 43.417969 C 267.320312 43.648438 267.4375 43.941406 267.4375 44.269531 C 267.4375 44.601562 267.320312 44.894531 267.085938 45.125 C 266.855469 45.359375 266.578125 45.476562 266.238281 45.476562 C 265.898438 45.476562 265.617188 45.359375 265.390625 45.125 C 265.15625 44.894531 265.035156 44.609375 265.035156 44.269531 C 265.035156 43.929688 265.148438 43.648438 265.390625 43.417969 C 265.632812 43.1875 265.898438 43.0625 266.238281 43.0625 Z M 266.238281 43.0625 "/>
<path style=" stroke:none;fill-rule:nonzero;fill:rgb(36.862745%,10.196078%,18.039216%);fill-opacity:1;" d="M 88.207031 25.917969 L 88.207031 14.730469 C 88.207031 14.023438 88.0625 13.519531 87.773438 13.226562 C 87.484375 12.933594 86.96875 12.789062 86.253906 12.789062 L 86.039062 12.789062 L 86.039062 12.101562 L 94.289062 12.101562 L 94.289062 12.789062 L 94.074219 12.789062 C 93.355469 12.789062 92.859375 12.933594 92.554688 13.226562 C 92.261719 13.519531 92.117188 14.023438 92.117188 14.730469 L 92.117188 19.449219 L 97.738281 19.449219 L 97.738281 14.730469 C 97.738281 14.023438 97.59375 13.519531 97.300781 13.226562 C 97.011719 12.933594 96.503906 12.789062 95.78125 12.789062 L 95.566406 12.789062 L 95.566406 12.101562 L 103.820312 12.101562 L 103.820312 12.789062 L 103.601562 12.789062 C 102.886719 12.789062 102.386719 12.933594 102.085938 13.226562 C 101.792969 13.519531 101.648438 14.023438 101.648438 14.730469 L 101.648438 25.917969 C 101.648438 26.625 101.792969 27.125 102.085938 27.417969 C 102.378906 27.714844 102.886719 27.859375 103.613281 27.859375 L 103.835938 27.859375 L 103.835938 28.554688 L 95.578125 28.554688 L 95.578125 27.859375 L 95.796875 27.859375 C 96.511719 27.859375 97.011719 27.714844 97.316406 27.417969 C 97.617188 27.125 97.753906 26.625 97.753906 25.917969 L 97.753906 20.550781 L 92.128906 20.550781 L 92.128906 25.917969 C 92.128906 26.625 92.273438 27.125 92.566406 27.417969 C 92.859375 27.714844 93.367188 27.859375 94.09375 27.859375 L 94.316406 27.859375 L 94.316406 28.554688 L 86.058594 28.554688 L 86.058594 27.859375 L 86.277344 27.859375 C 86.996094 27.859375 87.492188 27.714844 87.796875 27.417969 C 88.085938 27.125 88.234375 26.625 88.234375 25.917969 Z M 88.207031 25.917969 "/>
<path style=" stroke:none;fill-rule:nonzero;fill:rgb(36.862745%,10.196078%,18.039216%);fill-opacity:1;" d="M 106.488281 25.917969 L 112.292969 11.726562 L 112.925781 11.726562 L 118.980469 25.917969 C 119.285156 26.625 119.578125 27.125 119.855469 27.417969 C 120.132812 27.714844 120.472656 27.859375 120.875 27.859375 L 121 27.859375 L 121 28.554688 L 113.167969 28.554688 L 113.167969 27.859375 L 113.410156 27.859375 C 114.128906 27.859375 114.601562 27.699219 114.828125 27.367188 C 115.0625 27.042969 115.035156 26.5625 114.757812 25.917969 L 113.871094 23.761719 L 108.566406 23.761719 L 107.730469 25.917969 C 107.488281 26.527344 107.488281 26.964844 107.730469 27.261719 C 107.972656 27.554688 108.507812 27.75 109.328125 27.847656 L 109.585938 27.847656 L 109.585938 28.539062 L 104.585938 28.539062 L 104.585938 27.847656 L 104.695312 27.847656 C 105.070312 27.8125 105.386719 27.652344 105.65625 27.359375 C 105.917969 27.0625 106.199219 26.589844 106.480469 25.90625 Z M 108.996094 22.671875 L 113.433594 22.671875 L 111.140625 17.144531 L 109.003906 22.671875 Z M 108.996094 22.671875 "/>
<path style=" stroke:none;fill-rule:nonzero;fill:rgb(36.862745%,10.196078%,18.039216%);fill-opacity:1;" d="M 121.738281 28.296875 L 131.015625 13.019531 L 128.246094 13.019531 C 126.886719 13.019531 125.792969 13.363281 124.980469 14.042969 C 124.167969 14.730469 123.632812 15.75 123.367188 17.132812 L 122.589844 17.132812 L 122.820312 14.621094 L 123.050781 12.101562 L 135.769531 12.101562 L 135.769531 12.351562 L 126.523438 27.601562 L 130.070312 27.601562 C 131.730469 27.601562 132.945312 27.273438 133.695312 26.605469 C 134.449219 25.929688 135.117188 24.585938 135.6875 22.574219 L 136.269531 22.574219 L 136 25.566406 L 135.722656 28.554688 L 121.726562 28.554688 L 121.726562 28.3125 Z M 121.738281 28.296875 "/>
<path style=" stroke:none;fill-rule:nonzero;fill:rgb(36.862745%,10.196078%,18.039216%);fill-opacity:1;" d="M 139.449219 25.917969 L 145.253906 11.726562 L 145.886719 11.726562 L 151.941406 25.917969 C 152.246094 26.625 152.539062 27.125 152.816406 27.417969 C 153.09375 27.714844 153.4375 27.859375 153.835938 27.859375 L 153.957031 27.859375 L 153.957031 28.554688 L 146.128906 28.554688 L 146.128906 27.859375 L 146.371094 27.859375 C 147.089844 27.859375 147.5625 27.699219 147.789062 27.367188 C 148.019531 27.042969 148 26.5625 147.71875 25.917969 L 146.832031 23.761719 L 141.527344 23.761719 L 140.6875 25.917969 C 140.445312 26.527344 140.445312 26.964844 140.6875 27.261719 C 140.929688 27.554688 141.464844 27.75 142.292969 27.847656 L 142.546875 27.847656 L 142.546875 28.539062 L 137.542969 28.539062 L 137.542969 27.847656 L 137.652344 27.847656 C 138.027344 27.8125 138.347656 27.652344 138.613281 27.359375 C 138.882812 27.0625 139.160156 26.589844 139.4375 25.90625 Z M 141.949219 22.671875 L 146.394531 22.671875 L 144.101562 17.144531 L 141.964844 22.671875 Z M 141.949219 22.671875 "/>
<path style=" stroke:none;fill-rule:nonzero;fill:rgb(36.862745%,10.196078%,18.039216%);fill-opacity:1;" d="M 157.816406 25.335938 C 157.816406 26.210938 157.964844 26.832031 158.253906 27.210938 C 158.546875 27.589844 159.054688 27.8125 159.773438 27.859375 L 159.992188 27.859375 L 159.992188 28.554688 L 154.636719 28.554688 L 154.636719 27.859375 L 154.859375 27.859375 C 155.574219 27.8125 156.066406 27.589844 156.375 27.210938 C 156.664062 26.832031 156.808594 26.210938 156.808594 25.335938 L 156.808594 14.53125 C 156.300781 13.921875 155.875 13.484375 155.546875 13.226562 C 155.199219 12.933594 154.867188 12.789062 154.589844 12.789062 L 154.503906 12.789062 L 154.503906 12.101562 L 159.664062 12.101562 L 168.121094 22.511719 L 168.121094 15.328125 C 168.121094 14.445312 167.976562 13.824219 167.683594 13.449219 C 167.398438 13.066406 166.886719 12.851562 166.15625 12.800781 L 165.941406 12.800781 L 165.941406 12.117188 L 171.292969 12.117188 L 171.292969 12.800781 L 171.074219 12.800781 C 170.359375 12.851562 169.859375 13.066406 169.558594 13.449219 C 169.265625 13.824219 169.121094 14.445312 169.121094 15.328125 L 169.121094 28.933594 L 168.488281 28.933594 L 157.796875 15.75 L 157.796875 25.34375 Z M 157.816406 25.335938 "/>
<path style=" stroke:none;fill-rule:nonzero;fill:rgb(36.862745%,10.196078%,18.039216%);fill-opacity:1;" d="M 187.4375 25.417969 C 186.527344 26.605469 185.507812 27.480469 184.40625 28.027344 C 183.300781 28.589844 182.023438 28.871094 180.59375 28.871094 C 178.199219 28.871094 176.210938 28.054688 174.621094 26.445312 C 173.039062 24.820312 172.238281 22.78125 172.238281 20.328125 C 172.238281 17.878906 173.03125 15.828125 174.621094 14.203125 C 176.199219 12.582031 178.191406 11.777344 180.59375 11.777344 C 182.121094 11.777344 183.496094 12.082031 184.710938 12.703125 C 185.097656 12.898438 185.433594 12.933594 185.726562 12.800781 C 186.015625 12.664062 186.222656 12.410156 186.335938 11.992188 L 186.398438 11.777344 L 187.050781 11.777344 L 187.050781 17.691406 L 186.398438 17.691406 C 185.960938 16.152344 185.253906 14.945312 184.28125 14.082031 C 183.3125 13.203125 182.203125 12.777344 180.953125 12.777344 C 179.5 12.777344 178.359375 13.421875 177.558594 14.730469 C 176.746094 16.035156 176.34375 17.851562 176.34375 20.195312 C 176.34375 22.539062 176.746094 24.355469 177.558594 25.648438 C 178.371094 26.945312 179.5 27.589844 180.953125 27.589844 C 182.058594 27.589844 183.070312 27.367188 183.980469 26.917969 C 184.890625 26.464844 185.773438 25.757812 186.660156 24.773438 L 187.425781 25.417969 Z M 187.4375 25.417969 "/>
<path style=" stroke:none;fill-rule:nonzero;fill:rgb(36.862745%,10.196078%,18.039216%);fill-opacity:1;" d="M 191.023438 25.917969 L 191.023438 14.730469 C 191.023438 14.023438 190.875 13.519531 190.585938 13.226562 C 190.292969 12.933594 189.78125 12.789062 189.066406 12.789062 L 188.847656 12.789062 L 188.847656 12.101562 L 197.105469 12.101562 L 197.105469 12.789062 L 196.882812 12.789062 C 196.167969 12.789062 195.667969 12.933594 195.367188 13.226562 C 195.078125 13.519531 194.929688 14.023438 194.929688 14.730469 L 194.929688 19.449219 L 200.550781 19.449219 L 200.550781 14.730469 C 200.550781 14.023438 200.402344 13.519531 200.113281 13.226562 C 199.820312 12.933594 199.3125 12.789062 198.597656 12.789062 L 198.375 12.789062 L 198.375 12.101562 L 206.632812 12.101562 L 206.632812 12.789062 L 206.414062 12.789062 C 205.695312 12.789062 205.199219 12.933594 204.894531 13.226562 C 204.605469 13.519531 204.457031 14.023438 204.457031 14.730469 L 204.457031 25.917969 C 204.457031 26.625 204.605469 27.125 204.894531 27.417969 C 205.1875 27.714844 205.695312 27.859375 206.425781 27.859375 L 206.644531 27.859375 L 206.644531 28.554688 L 198.390625 28.554688 L 198.390625 27.859375 L 198.605469 27.859375 C 199.324219 27.859375 199.820312 27.714844 200.125 27.417969 C 200.429688 27.125 200.5625 26.625 200.5625 25.917969 L 200.5625 20.550781 L 194.941406 20.550781 L 194.941406 25.917969 C 194.941406 26.625 195.085938 27.125 195.375 27.417969 C 195.667969 27.714844 196.179688 27.859375 196.910156 27.859375 L 197.125 27.859375 L 197.125 28.554688 L 188.871094 28.554688 L 188.871094 27.859375 L 189.089844 27.859375 C 189.808594 27.859375 190.304688 27.714844 190.605469 27.417969 C 190.898438 27.125 191.042969 26.625 191.042969 25.917969 Z M 191.023438 25.917969 "/>
<path style=" stroke:none;fill-rule:nonzero;fill:rgb(36.862745%,10.196078%,18.039216%);fill-opacity:1;" d="M 105.191406 37.058594 C 105.191406 36.632812 105.105469 36.328125 104.925781 36.15625 C 104.746094 35.984375 104.441406 35.886719 104.003906 35.886719 L 103.871094 35.886719 L 103.871094 35.476562 L 108.847656 35.476562 L 108.847656 35.886719 L 108.710938 35.886719 C 108.289062 35.886719 107.984375 35.972656 107.800781 36.15625 C 107.621094 36.328125 107.535156 36.632812 107.535156 37.058594 L 107.535156 42.246094 C 107.535156 43.304688 107.265625 44.125 106.734375 44.707031 C 106.199219 45.296875 105.445312 45.589844 104.476562 45.589844 C 103.746094 45.589844 103.15625 45.40625 102.675781 45.054688 C 102.203125 44.699219 101.960938 44.25 101.960938 43.707031 C 101.960938 43.402344 102.074219 43.136719 102.28125 42.917969 C 102.484375 42.695312 102.738281 42.585938 103.03125 42.585938 C 103.324219 42.585938 103.566406 42.683594 103.785156 42.882812 C 103.988281 43.078125 104.101562 43.304688 104.101562 43.574219 C 104.101562 43.769531 104.050781 43.953125 103.941406 44.109375 C 103.773438 44.382812 103.6875 44.574219 103.6875 44.707031 C 103.6875 44.84375 103.796875 44.941406 103.988281 45.003906 C 104.101562 45.039062 104.210938 45.054688 104.328125 45.054688 C 104.609375 45.054688 104.828125 44.964844 104.976562 44.796875 C 105.121094 44.625 105.191406 44.382812 105.191406 44.074219 Z M 105.191406 37.058594 "/>
<path style=" stroke:none;fill-rule:nonzero;fill:rgb(36.862745%,10.196078%,18.039216%);fill-opacity:1;" d="M 109.222656 45.378906 L 109.222656 44.964844 L 109.355469 44.964844 C 109.78125 44.964844 110.085938 44.878906 110.265625 44.699219 C 110.449219 44.527344 110.535156 44.222656 110.535156 43.796875 L 110.535156 37.058594 C 110.535156 36.632812 110.449219 36.328125 110.265625 36.15625 C 110.085938 35.984375 109.78125 35.886719 109.34375 35.886719 L 109.210938 35.886719 L 109.210938 35.476562 L 117.5625 35.476562 L 117.5625 38.464844 L 117.175781 38.464844 C 116.992188 37.507812 116.675781 36.875 116.230469 36.558594 C 115.777344 36.238281 114.964844 36.085938 113.785156 36.085938 L 113.691406 36.085938 C 113.363281 36.085938 113.140625 36.132812 113.035156 36.253906 C 112.925781 36.363281 112.863281 36.585938 112.863281 36.910156 L 112.863281 40.023438 L 113.035156 40.023438 C 113.726562 40.023438 114.222656 39.878906 114.503906 39.597656 C 114.78125 39.316406 115.015625 38.757812 115.167969 37.902344 L 115.558594 37.902344 L 115.558594 42.820312 L 115.167969 42.820312 C 115 41.941406 114.773438 41.34375 114.492188 41.050781 C 114.203125 40.753906 113.726562 40.609375 113.035156 40.609375 L 112.863281 40.609375 L 112.863281 43.757812 C 112.863281 44.1875 112.9375 44.464844 113.070312 44.609375 C 113.203125 44.761719 113.496094 44.820312 113.910156 44.820312 C 114.976562 44.820312 115.765625 44.652344 116.300781 44.304688 C 116.835938 43.964844 117.371094 43.292969 117.902344 42.292969 L 118.253906 42.367188 L 117.953125 43.882812 L 117.632812 45.40625 L 109.210938 45.40625 Z M 109.222656 45.378906 "/>
<path style=" stroke:none;fill-rule:nonzero;fill:rgb(36.862745%,10.196078%,18.039216%);fill-opacity:1;" d="M 122.785156 45.613281 L 119.847656 37.058594 C 119.703125 36.632812 119.554688 36.328125 119.382812 36.15625 C 119.214844 35.984375 119.019531 35.886719 118.777344 35.886719 L 118.703125 35.886719 L 118.703125 35.476562 L 122.988281 35.476562 L 122.988281 35.886719 L 122.867188 35.886719 C 122.503906 35.886719 122.257812 35.984375 122.140625 36.183594 C 122.015625 36.375 122.03125 36.667969 122.160156 37.058594 L 123.839844 42.097656 C 123.839844 42.097656 125.578125 37.632812 125.578125 37.632812 L 125.382812 37.070312 C 125.234375 36.640625 125.078125 36.339844 124.894531 36.167969 C 124.714844 35.996094 124.480469 35.898438 124.1875 35.898438 L 124.105469 35.898438 L 124.105469 35.484375 L 128.515625 35.484375 L 128.515625 35.898438 L 128.382812 35.898438 C 127.980469 35.898438 127.710938 35.996094 127.578125 36.191406 C 127.445312 36.390625 127.445312 36.683594 127.578125 37.070312 L 129.25 42.097656 C 129.25 42.097656 130.757812 37.660156 130.757812 37.660156 C 130.964844 37.050781 131.027344 36.605469 130.9375 36.351562 C 130.839844 36.09375 130.589844 35.933594 130.164062 35.914062 L 130.027344 35.914062 L 130.027344 35.496094 L 132.652344 35.496094 L 132.652344 35.914062 L 132.589844 35.914062 C 132.359375 35.949219 132.167969 36.058594 132.019531 36.230469 C 131.875 36.398438 131.730469 36.695312 131.597656 37.085938 L 128.660156 45.636719 L 128.285156 45.636719 L 125.917969 38.609375 L 123.160156 45.636719 L 122.785156 45.636719 Z M 122.785156 45.613281 "/>
<path style=" stroke:none;fill-rule:nonzero;fill:rgb(36.862745%,10.196078%,18.039216%);fill-opacity:1;" d="M 133.027344 45.378906 L 133.027344 44.964844 L 133.160156 44.964844 C 133.589844 44.964844 133.890625 44.878906 134.070312 44.699219 C 134.257812 44.527344 134.339844 44.222656 134.339844 43.796875 L 134.339844 37.058594 C 134.339844 36.632812 134.257812 36.328125 134.070312 36.15625 C 133.890625 35.984375 133.589844 35.886719 133.152344 35.886719 L 133.015625 35.886719 L 133.015625 35.476562 L 141.367188 35.476562 L 141.367188 38.464844 L 140.980469 38.464844 C 140.796875 37.507812 140.484375 36.875 140.035156 36.558594 C 139.582031 36.238281 138.769531 36.085938 137.589844 36.085938 L 137.5 36.085938 C 137.167969 36.085938 136.949219 36.132812 136.839844 36.253906 C 136.730469 36.363281 136.671875 36.585938 136.671875 36.910156 L 136.671875 40.023438 L 136.839844 40.023438 C 137.535156 40.023438 138.027344 39.878906 138.3125 39.597656 C 138.589844 39.316406 138.820312 38.757812 138.976562 37.902344 L 139.367188 37.902344 L 139.367188 42.820312 L 138.976562 42.820312 C 138.804688 41.941406 138.578125 41.34375 138.296875 41.050781 C 138.007812 40.753906 137.535156 40.609375 136.839844 40.609375 L 136.671875 40.609375 L 136.671875 43.757812 C 136.671875 44.1875 136.742188 44.464844 136.875 44.609375 C 137.011719 44.761719 137.304688 44.820312 137.714844 44.820312 C 138.785156 44.820312 139.570312 44.652344 140.105469 44.304688 C 140.640625 43.964844 141.171875 43.292969 141.707031 42.292969 L 142.0625 42.367188 L 141.757812 43.882812 L 141.441406 45.40625 L 133.015625 45.40625 Z M 133.027344 45.378906 "/>
<path style=" stroke:none;fill-rule:nonzero;fill:rgb(36.862745%,10.196078%,18.039216%);fill-opacity:1;" d="M 142.667969 45.378906 L 142.667969 44.964844 L 142.804688 44.964844 C 143.226562 44.964844 143.527344 44.878906 143.714844 44.699219 C 143.894531 44.527344 143.976562 44.222656 143.976562 43.796875 L 143.976562 37.058594 C 143.976562 36.632812 143.894531 36.328125 143.714844 36.15625 C 143.527344 35.984375 143.226562 35.886719 142.789062 35.886719 L 142.65625 35.886719 L 142.65625 35.476562 L 147.632812 35.476562 L 147.632812 35.886719 L 147.5 35.886719 C 147.074219 35.886719 146.769531 35.972656 146.589844 36.15625 C 146.40625 36.339844 146.324219 36.632812 146.324219 37.058594 L 146.324219 44.015625 C 146.324219 44.332031 146.371094 44.554688 146.480469 44.652344 C 146.589844 44.746094 146.796875 44.808594 147.109375 44.808594 L 147.136719 44.808594 C 148.3125 44.808594 149.171875 44.609375 149.722656 44.222656 C 150.269531 43.832031 150.761719 43.0625 151.226562 41.890625 L 151.617188 41.976562 L 151.261719 43.671875 L 150.910156 45.378906 L 142.65625 45.378906 Z M 142.667969 45.378906 "/>
<path style=" stroke:none;fill-rule:nonzero;fill:rgb(36.862745%,10.196078%,18.039216%);fill-opacity:1;" d="M 152.199219 45.378906 L 152.199219 44.964844 L 152.332031 44.964844 C 152.753906 44.964844 153.058594 44.878906 153.242188 44.699219 C 153.421875 44.527344 153.507812 44.222656 153.507812 43.796875 L 153.507812 37.058594 C 153.507812 36.632812 153.421875 36.328125 153.242188 36.15625 C 153.058594 35.984375 152.753906 35.886719 152.316406 35.886719 L 152.1875 35.886719 L 152.1875 35.476562 L 157.164062 35.476562 L 157.164062 35.886719 L 157.027344 35.886719 C 156.601562 35.886719 156.300781 35.972656 156.117188 36.15625 C 155.9375 36.339844 155.851562 36.632812 155.851562 37.058594 L 155.851562 44.015625 C 155.851562 44.332031 155.902344 44.554688 156.011719 44.652344 C 156.117188 44.746094 156.324219 44.808594 156.640625 44.808594 L 156.664062 44.808594 C 157.84375 44.808594 158.707031 44.609375 159.25 44.222656 C 159.796875 43.832031 160.296875 43.0625 160.753906 41.890625 L 161.144531 41.976562 L 160.789062 43.671875 L 160.441406 45.378906 L 152.1875 45.378906 Z M 152.199219 45.378906 "/>
<path style=" stroke:none;fill-rule:nonzero;fill:rgb(36.862745%,10.196078%,18.039216%);fill-opacity:1;" d="M 161.617188 45.378906 L 161.617188 44.964844 L 161.753906 44.964844 C 162.175781 44.964844 162.476562 44.878906 162.664062 44.699219 C 162.84375 44.527344 162.929688 44.222656 162.929688 43.796875 L 162.929688 37.058594 C 162.929688 36.632812 162.84375 36.328125 162.664062 36.15625 C 162.476562 35.984375 162.175781 35.886719 161.738281 35.886719 L 161.609375 35.886719 L 161.609375 35.476562 L 169.957031 35.476562 L 169.957031 38.464844 L 169.566406 38.464844 C 169.386719 37.507812 169.074219 36.875 168.621094 36.558594 C 168.171875 36.238281 167.359375 36.085938 166.183594 36.085938 L 166.085938 36.085938 C 165.757812 36.085938 165.539062 36.132812 165.429688 36.253906 C 165.324219 36.363281 165.261719 36.585938 165.261719 36.910156 L 165.261719 40.023438 L 165.429688 40.023438 C 166.121094 40.023438 166.621094 39.878906 166.898438 39.597656 C 167.175781 39.316406 167.40625 38.757812 167.566406 37.902344 L 167.953125 37.902344 L 167.953125 42.820312 L 167.566406 42.820312 C 167.398438 41.941406 167.164062 41.34375 166.886719 41.050781 C 166.59375 40.753906 166.121094 40.609375 165.429688 40.609375 L 165.261719 40.609375 L 165.261719 43.757812 C 165.261719 44.1875 165.332031 44.464844 165.46875 44.609375 C 165.601562 44.761719 165.890625 44.820312 166.304688 44.820312 C 167.371094 44.820312 168.164062 44.652344 168.695312 44.304688 C 169.230469 43.964844 169.761719 43.292969 170.296875 42.292969 L 170.648438 42.367188 L 170.34375 43.882812 L 170.03125 45.40625 L 161.609375 45.40625 Z M 161.617188 45.378906 "/>
<path style=" stroke:none;fill-rule:nonzero;fill:rgb(36.862745%,10.196078%,18.039216%);fill-opacity:1;" d="M 172.460938 43.796875 L 172.460938 37.058594 C 172.460938 36.632812 172.371094 36.328125 172.191406 36.15625 C 172.011719 35.984375 171.707031 35.886719 171.269531 35.886719 L 171.136719 35.886719 L 171.136719 35.476562 L 175.820312 35.476562 C 177.203125 35.476562 178.226562 35.691406 178.878906 36.132812 C 179.535156 36.570312 179.878906 37.242188 179.878906 38.160156 C 179.878906 39.074219 179.488281 39.707031 178.710938 40.15625 C 178.417969 40.332031 178.066406 40.476562 177.675781 40.574219 L 179.765625 43.796875 C 180.042969 44.222656 180.289062 44.527344 180.507812 44.699219 C 180.710938 44.867188 180.945312 44.964844 181.175781 44.964844 L 181.246094 44.964844 L 181.246094 45.378906 L 178.285156 45.378906 L 175.140625 40.828125 L 174.816406 40.828125 L 174.816406 43.796875 C 174.816406 44.222656 174.898438 44.527344 175.078125 44.699219 C 175.261719 44.867188 175.566406 44.964844 176.003906 44.964844 L 176.136719 44.964844 L 176.136719 45.378906 L 171.15625 45.378906 L 171.15625 44.964844 L 171.292969 44.964844 C 171.71875 44.964844 172.023438 44.878906 172.203125 44.699219 C 172.386719 44.527344 172.46875 44.222656 172.46875 43.796875 Z M 174.800781 40.28125 L 175.273438 40.28125 C 176.015625 40.28125 176.539062 40.109375 176.863281 39.769531 C 177.183594 39.429688 177.351562 38.851562 177.351562 38.0625 C 177.351562 37.390625 177.203125 36.898438 176.898438 36.570312 C 176.609375 36.265625 176.199219 36.105469 175.648438 36.085938 C 175.308594 36.085938 175.09375 36.121094 174.984375 36.230469 C 174.871094 36.339844 174.816406 36.558594 174.816406 36.898438 L 174.816406 40.28125 Z M 174.800781 40.28125 "/>
<path style=" stroke:none;fill-rule:nonzero;fill:rgb(36.862745%,10.196078%,18.039216%);fill-opacity:1;" d="M 187.996094 38.546875 C 187.851562 37.777344 187.511719 37.144531 186.988281 36.640625 C 186.46875 36.132812 185.871094 35.886719 185.203125 35.886719 C 184.683594 35.886719 184.28125 36.007812 183.988281 36.238281 C 183.699219 36.472656 183.550781 36.800781 183.550781 37.21875 C 183.550781 37.597656 183.738281 37.9375 184.085938 38.257812 C 184.441406 38.570312 185.007812 38.875 185.789062 39.195312 C 186.785156 39.597656 187.535156 40.074219 188.042969 40.621094 C 188.542969 41.171875 188.800781 41.808594 188.800781 42.515625 C 188.800781 43.4375 188.480469 44.1875 187.851562 44.746094 C 187.21875 45.308594 186.382812 45.601562 185.351562 45.601562 C 184.539062 45.601562 183.796875 45.46875 183.128906 45.1875 C 182.960938 45.113281 182.789062 45.125 182.632812 45.199219 C 182.472656 45.269531 182.363281 45.40625 182.316406 45.589844 L 182.292969 45.664062 L 181.90625 45.664062 L 181.90625 41.925781 L 182.292969 41.925781 C 182.398438 42.820312 182.753906 43.5625 183.324219 44.152344 C 183.90625 44.734375 184.574219 45.027344 185.351562 45.027344 C 185.871094 45.027344 186.285156 44.878906 186.613281 44.589844 C 186.941406 44.296875 187.097656 43.917969 187.097656 43.453125 C 187.097656 43.078125 186.929688 42.722656 186.578125 42.402344 C 186.222656 42.085938 185.667969 41.78125 184.902344 41.476562 C 183.941406 41.101562 183.226562 40.636719 182.753906 40.097656 C 182.265625 39.5625 182.035156 38.949219 182.035156 38.265625 C 182.035156 37.363281 182.328125 36.640625 182.910156 36.105469 C 183.496094 35.558594 184.257812 35.289062 185.21875 35.289062 C 185.800781 35.289062 186.398438 35.425781 187.027344 35.683594 C 187.246094 35.78125 187.4375 35.789062 187.605469 35.738281 C 187.765625 35.691406 187.890625 35.570312 187.972656 35.378906 L 188.007812 35.289062 L 188.398438 35.289062 L 188.398438 38.5625 L 188.007812 38.5625 Z M 187.996094 38.546875 "/>
<path style=" stroke:none;fill-rule:nonzero;fill:rgb(36.862745%,10.196078%,18.039216%);fill-opacity:1;" d="M 56.367188 37.757812 L 56.367188 19.363281 C 56.367188 16.789062 56.113281 15.140625 55.613281 14.410156 C 55.105469 13.691406 53.917969 13.273438 52.035156 13.15625 L 52.035156 11.957031 L 65.859375 11.957031 L 65.859375 13.15625 C 63.980469 13.261719 62.789062 13.582031 62.277344 14.09375 C 61.769531 14.605469 61.527344 15.777344 61.527344 17.582031 L 61.527344 27.734375 C 63.367188 26.175781 65.3125 24.429688 67.339844 22.492188 C 68.964844 20.925781 70.457031 19.441406 71.832031 18.035156 C 73.402344 16.402344 74.089844 15.203125 73.910156 14.460938 C 73.726562 13.71875 72.632812 13.273438 70.644531 13.15625 L 70.644531 11.957031 L 83.15625 11.957031 L 83.15625 13.15625 C 81.375 13.433594 80.027344 13.835938 79.144531 14.363281 C 78.242188 14.875 77.027344 15.960938 75.5 17.597656 C 73.628906 19.609375 71.492188 21.757812 69.0625 24.027344 L 66.574219 26.382812 L 79.332031 40.378906 C 80.691406 41.84375 81.714844 42.78125 82.40625 43.195312 C 83.097656 43.613281 84.03125 43.855469 85.222656 43.941406 L 85.222656 45.136719 L 70.667969 45.136719 L 70.667969 43.941406 C 72.429688 43.941406 73.421875 43.671875 73.679688 43.125 C 73.929688 42.578125 73.484375 41.660156 72.332031 40.390625 L 62.75 29.699219 L 61.527344 30.75 L 61.527344 39.5 C 61.527344 41.316406 61.777344 42.476562 62.277344 42.988281 C 62.789062 43.5 63.980469 43.820312 65.859375 43.929688 L 65.859375 45.125 L 52.035156 45.125 L 52.035156 43.929688 C 53.917969 43.820312 55.105469 43.390625 55.613281 42.660156 C 56.125 41.941406 56.367188 40.304688 56.367188 37.714844 Z M 56.367188 37.757812 "/>
<path style=" stroke:none;fill-rule:nonzero;fill:rgb(36.862745%,10.196078%,18.039216%);fill-opacity:1;" d="M 219.195312 37.757812 L 219.195312 19.363281 C 219.195312 16.789062 218.917969 15.140625 218.359375 14.410156 C 217.796875 13.691406 216.492188 13.273438 214.425781 13.15625 L 214.425781 11.957031 L 229.609375 11.957031 L 229.609375 13.15625 C 227.546875 13.261719 226.234375 13.679688 225.679688 14.410156 C 225.121094 15.140625 224.839844 16.777344 224.839844 19.363281 L 224.839844 37.757812 C 224.839844 40.332031 225.121094 41.976562 225.679688 42.710938 C 226.234375 43.4375 227.546875 43.847656 229.609375 43.964844 L 229.609375 45.164062 L 214.425781 45.164062 L 214.425781 43.964844 C 216.492188 43.855469 217.796875 43.429688 218.359375 42.695312 C 218.917969 41.976562 219.195312 40.34375 219.195312 37.757812 Z M 219.195312 37.757812 "/>
<path style="fill:none;stroke-width:0.73;stroke-linecap:butt;stroke-linejoin:miter;stroke:rgb(36.862745%,10.196078%,18.039216%);stroke-opacity:1;stroke-miterlimit:10;" d="M 23.011844 38.609335 C 20.740113 40.581257 18.059729 41.717673 15.192714 41.717673 C 7.000326 41.717673 0.362111 32.459884 0.362111 21.041303 C 0.362111 9.622723 7.000326 0.358531 15.192714 0.358531 C 21.229211 0.358531 26.432311 5.400377 28.739436 12.628623 " transform="matrix(1.21397,0,0,1.220256,0.560408,0)"/>
<path style="fill:none;stroke-width:0.73;stroke-linecap:butt;stroke-linejoin:miter;stroke:rgb(36.862745%,10.196078%,18.039216%);stroke-opacity:1;stroke-miterlimit:10;" d="M 29.350809 14.901455 C 29.788422 16.841366 30.0201 18.899719 30.0201 21.041303 C 30.0201 26.499301 28.498105 31.470721 26.030092 35.158471 " transform="matrix(1.21397,0,0,1.220256,0.560408,0)"/>
<path style="fill:none;stroke-width:0.65;stroke-linecap:butt;stroke-linejoin:miter;stroke:rgb(36.862745%,10.196078%,18.039216%);stroke-opacity:1;stroke-miterlimit:10;" d="M 11.830167 15.330412 L 11.730417 12.282897 C 11.730417 12.282897 9.600267 10.957612 11.199488 10.16052 C 11.469779 10.032473 11.759377 9.952444 12.058627 9.930035 L 17.538453 9.571504 C 17.959978 9.539492 18.378286 9.651533 18.722585 9.910828 C 19.221336 10.288567 19.539893 10.992824 17.972849 12.110033 L 18.259229 17.407973 L 28.630033 12.657434 C 28.630033 12.657434 33.141317 11.101664 29.669366 14.651764 C 29.588922 14.738196 29.49239 14.811823 29.389422 14.879047 C 28.198855 15.640926 19.996813 20.961274 17.950325 25.330874 C 18.040422 25.372489 21.010404 26.371254 22.571012 30.270282 C 22.628932 30.407932 22.690069 30.548784 22.760859 30.692837 C 24.018999 33.039296 25.122687 34.479823 25.750148 35.011218 C 25.939995 35.171276 26.190979 35.251305 26.438746 35.251305 C 27.349369 35.228897 29.588922 35.360145 27.49095 37.280848 C 24.900662 39.640112 24.607847 39.467249 23.619998 39.179143 C 22.628932 38.887837 21.229211 34.319764 17.120146 33.330602 C 17.120146 33.330602 16.811242 37.671391 13.040041 36.189249 C 9.320323 34.729514 9.780461 35.721878 9.580961 36.269278 C 9.41042 36.730247 8.490144 37.882669 7.289924 36.147634 C 6.092921 34.419001 5.932034 32.75119 7.540908 32.34144 C 9.153 31.93169 12.470499 33.157739 12.367531 29.508403 L 12.100458 20.749997 C 12.100458 20.749997 10.41114 19.450321 9.889865 21.217368 C 9.889865 21.217368 9.352501 22.209731 10.999988 22.661096 C 12.647475 23.10926 10.61064 25.666997 9.780461 25.151608 C 8.950282 24.629817 7.682489 23.138071 4.998887 21.969643 C 2.157615 20.698778 11.830167 15.330412 11.830167 15.330412 Z M 11.830167 15.330412 " transform="matrix(1.21397,0,0,1.220256,0.560408,0)"/>
<path style=" stroke:none;fill-rule:nonzero;fill:rgb(36.862745%,10.196078%,18.039216%);fill-opacity:1;" d="M 23.113281 6.832031 L 18.585938 11.324219 L 13.621094 7.261719 L 23.113281 6.832031 M 24.460938 6.25 L 12.214844 6.785156 L 18.621094 12.03125 Z M 24.460938 6.25 "/>
<path style="fill:none;stroke-width:0.44;stroke-linecap:butt;stroke-linejoin:miter;stroke:rgb(36.862745%,10.196078%,18.039216%);stroke-opacity:1;stroke-miterlimit:10;" d="M 9.719324 5.650068 L 12.010361 3.188367 L 17.052573 2.970688 L 19.578506 5.230715 " transform="matrix(1.21397,0,0,1.220256,0.560408,0)"/>
<path style="fill:none;stroke-width:0.44;stroke-linecap:butt;stroke-linejoin:miter;stroke:rgb(36.862745%,10.196078%,18.039216%);stroke-opacity:1;stroke-miterlimit:10;" d="M 14.861286 9.558699 L 11.971748 5.650068 " transform="matrix(1.21397,0,0,1.220256,0.560408,0)"/>
<path style="fill:none;stroke-width:0.44;stroke-linecap:butt;stroke-linejoin:miter;stroke:rgb(36.862745%,10.196078%,18.039216%);stroke-opacity:1;stroke-miterlimit:10;" d="M 17.268162 5.422785 L 14.861286 9.558699 " transform="matrix(1.21397,0,0,1.220256,0.560408,0)"/>
<path style="fill:none;stroke-width:0.44;stroke-linecap:butt;stroke-linejoin:miter;stroke:rgb(36.862745%,10.196078%,18.039216%);stroke-opacity:1;stroke-miterlimit:10;" d="M 11.920264 5.51882 L 12.010361 3.188367 " transform="matrix(1.21397,0,0,1.220256,0.560408,0)"/>
<path style="fill:none;stroke-width:0.44;stroke-linecap:butt;stroke-linejoin:miter;stroke:rgb(36.862745%,10.196078%,18.039216%);stroke-opacity:1;stroke-miterlimit:10;" d="M 17.361477 5.29794 L 17.052573 2.970688 " transform="matrix(1.21397,0,0,1.220256,0.560408,0)"/>
<path style="fill:none;stroke-width:0.44;stroke-linecap:butt;stroke-linejoin:miter;stroke:rgb(36.862745%,10.196078%,18.039216%);stroke-opacity:1;stroke-miterlimit:10;" d="M 11.939571 5.541229 L 13.522703 3.121143 " transform="matrix(1.21397,0,0,1.220256,0.560408,0)"/>
<path style="fill:none;stroke-width:0.44;stroke-linecap:butt;stroke-linejoin:miter;stroke:rgb(36.862745%,10.196078%,18.039216%);stroke-opacity:1;stroke-miterlimit:10;" d="M 17.338953 5.320348 L 15.540231 3.028309 " transform="matrix(1.21397,0,0,1.220256,0.560408,0)"/>
<path style="fill:none;stroke-width:0.44;stroke-linecap:butt;stroke-linejoin:miter;stroke:rgb(36.862745%,10.196078%,18.039216%);stroke-opacity:1;stroke-miterlimit:10;" d="M 13.522703 3.121143 L 14.648915 5.409981 " transform="matrix(1.21397,0,0,1.220256,0.560408,0)"/>
<path style="fill:none;stroke-width:0.44;stroke-linecap:butt;stroke-linejoin:miter;stroke:rgb(36.862745%,10.196078%,18.039216%);stroke-opacity:1;stroke-miterlimit:10;" d="M 15.540231 3.028309 L 14.648915 5.409981 " transform="matrix(1.21397,0,0,1.220256,0.560408,0)"/>
<path style="fill:none;stroke-width:0.44;stroke-linecap:butt;stroke-linejoin:miter;stroke:rgb(36.862745%,10.196078%,18.039216%);stroke-opacity:1;stroke-miterlimit:10;" d="M 14.639262 5.329951 L 14.861286 9.558699 " transform="matrix(1.21397,0,0,1.220256,0.560408,0)"/>
<path style=" stroke:none;fill-rule:nonzero;fill:rgb(36.862745%,10.196078%,18.039216%);fill-opacity:1;" d="M 6.894531 56.046875 C 6.714844 55.753906 6.386719 55.617188 6.046875 55.617188 C 5.5625 55.617188 5.0625 55.851562 5.0625 56.398438 C 5.0625 56.828125 5.296875 57.023438 6.035156 57.253906 C 6.75 57.488281 7.421875 57.71875 7.421875 58.632812 C 7.421875 59.550781 6.628906 59.988281 5.789062 59.988281 C 5.257812 59.988281 4.679688 59.804688 4.371094 59.339844 L 4.84375 58.953125 C 5.039062 59.292969 5.429688 59.472656 5.832031 59.472656 C 6.304688 59.472656 6.835938 59.195312 6.835938 58.667969 C 6.835938 58.097656 6.449219 57.996094 5.625 57.71875 C 4.964844 57.496094 4.46875 57.21875 4.46875 56.4375 C 4.46875 55.546875 5.234375 55.097656 6.046875 55.097656 C 6.570312 55.097656 7.003906 55.242188 7.347656 55.644531 L 6.894531 56.035156 Z M 6.894531 56.046875 "/>
<path style=" stroke:none;fill-rule:nonzero;fill:rgb(36.862745%,10.196078%,18.039216%);fill-opacity:1;" d="M 8.535156 55.226562 C 8.742188 55.226562 8.914062 55.402344 8.914062 55.609375 C 8.914062 55.824219 8.753906 55.984375 8.535156 55.984375 C 8.316406 55.984375 8.160156 55.824219 8.160156 55.609375 C 8.160156 55.402344 8.316406 55.226562 8.535156 55.226562 Z M 8.28125 56.804688 L 8.789062 56.804688 L 8.789062 59.875 L 8.28125 59.875 Z M 8.28125 56.804688 "/>
<path style=" stroke:none;fill-rule:nonzero;fill:rgb(36.862745%,10.196078%,18.039216%);fill-opacity:1;" d="M 9.796875 57.535156 C 9.796875 57.253906 9.773438 57.011719 9.773438 56.804688 L 10.261719 56.804688 C 10.261719 56.960938 10.269531 57.132812 10.269531 57.300781 L 10.285156 57.300781 C 10.414062 56.996094 10.804688 56.71875 11.304688 56.71875 C 12.101562 56.71875 12.46875 57.230469 12.46875 57.976562 L 12.46875 59.875 L 11.960938 59.875 L 11.960938 58.035156 C 11.960938 57.523438 11.742188 57.207031 11.253906 57.207031 C 10.601562 57.207031 10.308594 57.683594 10.308594 58.390625 L 10.308594 59.890625 L 9.796875 59.890625 Z M 9.796875 57.535156 "/>
<path style=" stroke:none;fill-rule:nonzero;fill:rgb(36.862745%,10.196078%,18.039216%);fill-opacity:1;" d="M 15.613281 57.570312 C 15.394531 57.300781 15.152344 57.191406 14.835938 57.191406 C 14.144531 57.191406 13.804688 57.703125 13.804688 58.339844 C 13.804688 58.972656 14.21875 59.488281 14.835938 59.488281 C 15.164062 59.488281 15.421875 59.367188 15.613281 59.109375 L 15.992188 59.472656 C 15.699219 59.820312 15.273438 59.964844 14.835938 59.964844 C 13.886719 59.964844 13.261719 59.292969 13.261719 58.339844 C 13.261719 57.386719 13.902344 56.71875 14.835938 56.71875 C 15.289062 56.71875 15.710938 56.863281 16.011719 57.207031 Z M 15.613281 57.570312 "/>
<path style=" stroke:none;fill-rule:nonzero;fill:rgb(36.862745%,10.196078%,18.039216%);fill-opacity:1;" d="M 19.316406 59.316406 C 18.953125 59.777344 18.527344 59.953125 17.957031 59.953125 C 16.996094 59.953125 16.402344 59.230469 16.402344 58.328125 C 16.402344 57.378906 17.074219 56.707031 17.96875 56.707031 C 18.867188 56.707031 19.425781 57.300781 19.425781 58.316406 L 19.425781 58.472656 L 16.949219 58.472656 C 16.984375 59.007812 17.398438 59.464844 17.941406 59.464844 C 18.378906 59.464844 18.671875 59.304688 18.914062 59 L 19.304688 59.304688 Z M 18.878906 58.058594 C 18.855469 57.535156 18.515625 57.191406 17.957031 57.191406 C 17.398438 57.191406 17.023438 57.546875 16.960938 58.058594 Z M 18.878906 58.058594 "/>
<path style=" stroke:none;fill-rule:nonzero;fill:rgb(36.862745%,10.196078%,18.039216%);fill-opacity:1;" d="M 23.90625 59.875 L 23.359375 59.875 L 23.359375 55.9375 L 23.34375 55.9375 L 22.523438 56.644531 L 22.191406 56.242188 L 23.433594 55.226562 L 23.90625 55.226562 Z M 23.90625 59.875 "/>
<path style=" stroke:none;fill-rule:nonzero;fill:rgb(36.862745%,10.196078%,18.039216%);fill-opacity:1;" d="M 27.488281 57.9375 L 27.476562 57.9375 C 27.300781 58.023438 27.039062 58.058594 26.855469 58.058594 C 26.050781 58.058594 25.460938 57.460938 25.460938 56.59375 C 25.460938 55.726562 26.128906 55.132812 27.011719 55.132812 C 27.898438 55.132812 28.566406 55.679688 28.566406 56.59375 C 28.566406 57.132812 28.371094 57.496094 28.128906 57.898438 L 26.90625 59.867188 L 26.261719 59.867188 L 27.496094 57.925781 Z M 27.996094 56.609375 C 27.996094 55.996094 27.546875 55.617188 27.003906 55.617188 C 26.453125 55.617188 26.003906 55.996094 26.003906 56.609375 C 26.003906 57.21875 26.453125 57.59375 27.003906 57.59375 C 27.546875 57.59375 27.996094 57.21875 27.996094 56.609375 Z M 27.996094 56.609375 "/>
<path style=" stroke:none;fill-rule:nonzero;fill:rgb(36.862745%,10.196078%,18.039216%);fill-opacity:1;" d="M 31.953125 55.742188 L 30.109375 59.875 L 29.488281 59.875 L 31.371094 55.742188 L 29.136719 55.742188 L 29.136719 55.226562 L 31.96875 55.226562 L 31.96875 55.742188 Z M 31.953125 55.742188 "/>
<path style=" stroke:none;fill-rule:nonzero;fill:rgb(36.862745%,10.196078%,18.039216%);fill-opacity:1;" d="M 34.808594 59.875 L 34.257812 59.875 L 34.257812 55.9375 L 34.246094 55.9375 L 33.421875 56.644531 L 33.09375 56.242188 L 34.335938 55.226562 L 34.808594 55.226562 Z M 34.808594 59.875 "/>
</g>
</svg>
