<?xml version="1.0" encoding="UTF-8"?>
<svg xmlns="http://www.w3.org/2000/svg" xmlns:xlink="http://www.w3.org/1999/xlink" width="312px" height="70px" viewBox="0 0 312 70" version="1.1">
<g id="surface1">
<path style=" stroke:none;fill-rule:nonzero;fill:rgb(36.862745%,10.196078%,18.039216%);fill-opacity:1;" d="M 274.191406 52.828125 L 274.191406 52.359375 L 274.34375 52.359375 C 274.839844 52.359375 275.179688 52.265625 275.382812 52.0625 C 275.578125 51.867188 275.671875 51.519531 275.671875 51.035156 L 275.671875 43.363281 C 275.671875 42.878906 275.578125 42.535156 275.382812 42.339844 C 275.179688 42.140625 274.832031 42.039062 274.332031 42.039062 L 274.179688 42.039062 L 274.179688 41.566406 L 279.832031 41.566406 L 279.832031 42.039062 L 279.675781 42.039062 C 279.179688 42.039062 278.84375 42.140625 278.648438 42.339844 C 278.449219 42.535156 278.347656 42.878906 278.347656 43.363281 L 278.347656 51.28125 C 278.347656 51.648438 278.402344 51.886719 278.535156 52.003906 C 278.65625 52.117188 278.886719 52.1875 279.253906 52.1875 L 279.28125 52.1875 C 280.625 52.1875 281.597656 51.964844 282.222656 51.53125 C 282.84375 51.105469 283.410156 50.207031 283.929688 48.890625 L 284.378906 48.984375 L 283.980469 50.925781 L 283.589844 52.859375 L 274.207031 52.859375 Z M 274.191406 52.828125 "/>
<path style=" stroke:none;fill-rule:nonzero;fill:rgb(36.862745%,10.196078%,18.039216%);fill-opacity:1;" d="M 288.761719 51.023438 L 288.761719 42.222656 L 288.695312 42.222656 C 287.773438 42.222656 287.070312 42.453125 286.570312 42.925781 C 286.0625 43.394531 285.769531 44.09375 285.664062 45.03125 L 285.132812 45.03125 L 285.132812 41.523438 L 295.050781 41.523438 L 295.050781 45.03125 L 294.570312 45.03125 C 294.472656 44.09375 294.160156 43.378906 293.667969 42.925781 C 293.160156 42.453125 292.457031 42.222656 291.550781 42.222656 L 291.433594 42.222656 L 291.433594 51.023438 C 291.433594 51.511719 291.53125 51.847656 291.734375 52.046875 C 291.925781 52.25 292.285156 52.347656 292.777344 52.347656 L 292.933594 52.347656 L 292.933594 52.8125 L 287.351562 52.8125 L 287.351562 52.347656 L 287.492188 52.347656 C 287.964844 52.347656 288.296875 52.25 288.476562 52.046875 C 288.664062 51.847656 288.761719 51.511719 288.761719 51.023438 Z M 288.761719 51.023438 "/>
<path style=" stroke:none;fill-rule:nonzero;fill:rgb(36.862745%,10.196078%,18.039216%);fill-opacity:1;" d="M 297.242188 51.023438 L 297.242188 43.351562 C 297.242188 42.863281 297.144531 42.523438 296.949219 42.328125 C 296.746094 42.125 296.390625 42.027344 295.898438 42.027344 L 295.746094 42.027344 L 295.746094 41.558594 L 301.15625 41.558594 C 302.964844 41.558594 304.363281 42.054688 305.382812 43.050781 C 306.382812 44.050781 306.894531 45.429688 306.894531 47.207031 C 306.894531 48.984375 306.34375 50.351562 305.261719 51.351562 C 304.167969 52.347656 302.644531 52.84375 300.675781 52.84375 L 295.761719 52.84375 L 295.761719 52.375 L 295.914062 52.375 C 296.40625 52.375 296.746094 52.277344 296.949219 52.078125 C 297.144531 51.875 297.242188 51.53125 297.242188 51.050781 Z M 299.917969 51.253906 C 299.917969 51.625 299.972656 51.875 300.097656 51.992188 C 300.222656 52.101562 300.46875 52.160156 300.84375 52.148438 C 301.9375 52.101562 302.738281 51.707031 303.265625 50.953125 C 303.828125 50.152344 304.109375 48.90625 304.097656 47.191406 C 304.097656 45.554688 303.828125 44.320312 303.277344 43.476562 C 302.726562 42.632812 301.921875 42.222656 300.863281 42.222656 C 300.480469 42.222656 300.238281 42.277344 300.113281 42.410156 C 299.988281 42.535156 299.933594 42.78125 299.933594 43.164062 L 299.933594 51.253906 Z M 299.917969 51.253906 "/>
<path style=" stroke:none;fill-rule:nonzero;fill:rgb(36.862745%,10.196078%,18.039216%);fill-opacity:1;" d="M 309.949219 50.242188 C 310.34375 50.242188 310.667969 50.382812 310.933594 50.65625 C 311.207031 50.925781 311.34375 51.265625 311.34375 51.648438 C 311.34375 52.035156 311.207031 52.375 310.933594 52.648438 C 310.667969 52.921875 310.34375 53.058594 309.949219 53.058594 C 309.550781 53.058594 309.222656 52.921875 308.960938 52.648438 C 308.6875 52.375 308.546875 52.046875 308.546875 51.648438 C 308.546875 51.253906 308.683594 50.925781 308.960938 50.65625 C 309.246094 50.382812 309.550781 50.242188 309.949219 50.242188 Z M 309.949219 50.242188 "/>
<path style=" stroke:none;fill-rule:nonzero;fill:rgb(36.862745%,10.196078%,18.039216%);fill-opacity:1;" d="M 102.6875 30.238281 L 102.6875 17.1875 C 102.6875 16.363281 102.523438 15.773438 102.183594 15.433594 C 101.847656 15.089844 101.25 14.917969 100.414062 14.917969 L 100.167969 14.917969 L 100.167969 14.121094 L 109.769531 14.121094 L 109.769531 14.917969 L 109.519531 14.917969 C 108.683594 14.917969 108.101562 15.089844 107.75 15.433594 C 107.410156 15.773438 107.238281 16.363281 107.238281 17.1875 L 107.238281 22.691406 L 113.785156 22.691406 L 113.785156 17.1875 C 113.785156 16.363281 113.617188 15.773438 113.277344 15.433594 C 112.9375 15.089844 112.347656 14.917969 111.507812 14.917969 L 111.257812 14.917969 L 111.257812 14.121094 L 120.863281 14.121094 L 120.863281 14.917969 L 120.613281 14.917969 C 119.777344 14.917969 119.195312 15.089844 118.847656 15.433594 C 118.503906 15.773438 118.339844 16.363281 118.339844 17.1875 L 118.339844 30.238281 C 118.339844 31.0625 118.503906 31.648438 118.847656 31.988281 C 119.1875 32.335938 119.777344 32.5 120.625 32.5 L 120.886719 32.5 L 120.886719 33.316406 L 111.273438 33.316406 L 111.273438 32.5 L 111.523438 32.5 C 112.355469 32.5 112.9375 32.335938 113.292969 31.988281 C 113.644531 31.648438 113.804688 31.0625 113.804688 30.238281 L 113.804688 23.976562 L 107.253906 23.976562 L 107.253906 30.238281 C 107.253906 31.0625 107.425781 31.648438 107.765625 31.988281 C 108.101562 32.335938 108.699219 32.5 109.539062 32.5 L 109.800781 32.5 L 109.800781 33.316406 L 100.1875 33.316406 L 100.1875 32.5 L 100.441406 32.5 C 101.277344 32.5 101.855469 32.335938 102.210938 31.988281 C 102.550781 31.648438 102.71875 31.0625 102.71875 30.238281 Z M 102.6875 30.238281 "/>
<path style=" stroke:none;fill-rule:nonzero;fill:rgb(36.862745%,10.196078%,18.039216%);fill-opacity:1;" d="M 123.972656 30.238281 L 130.730469 13.683594 L 131.464844 13.683594 L 138.515625 30.238281 C 138.871094 31.0625 139.210938 31.648438 139.535156 31.988281 C 139.855469 32.335938 140.25 32.5 140.71875 32.5 L 140.867188 32.5 L 140.867188 33.316406 L 131.746094 33.316406 L 131.746094 32.5 L 132.03125 32.5 C 132.867188 32.5 133.417969 32.316406 133.679688 31.925781 C 133.953125 31.550781 133.921875 30.992188 133.597656 30.238281 L 132.566406 27.722656 L 126.390625 27.722656 L 125.417969 30.238281 C 125.136719 30.949219 125.136719 31.460938 125.417969 31.804688 C 125.699219 32.144531 126.324219 32.375 127.277344 32.488281 L 127.574219 32.488281 L 127.574219 33.292969 L 121.753906 33.292969 L 121.753906 32.488281 L 121.886719 32.488281 C 122.320312 32.445312 122.6875 32.261719 123 31.921875 C 123.308594 31.570312 123.636719 31.023438 123.960938 30.226562 Z M 126.890625 26.453125 L 132.058594 26.453125 L 129.390625 20.003906 L 126.898438 26.453125 Z M 126.890625 26.453125 "/>
<path style=" stroke:none;fill-rule:nonzero;fill:rgb(36.862745%,10.196078%,18.039216%);fill-opacity:1;" d="M 141.726562 33.015625 L 152.523438 15.191406 L 149.300781 15.191406 C 147.71875 15.191406 146.445312 15.589844 145.5 16.382812 C 144.554688 17.1875 143.933594 18.375 143.621094 19.988281 L 142.714844 19.988281 L 142.988281 17.058594 L 143.253906 14.121094 L 158.058594 14.121094 L 158.058594 14.410156 L 147.292969 32.199219 L 151.425781 32.199219 C 153.359375 32.199219 154.769531 31.816406 155.644531 31.039062 C 156.523438 30.253906 157.300781 28.683594 157.964844 26.335938 L 158.640625 26.335938 L 158.328125 29.828125 L 158.003906 33.316406 L 141.714844 33.316406 L 141.714844 33.03125 Z M 141.726562 33.015625 "/>
<path style=" stroke:none;fill-rule:nonzero;fill:rgb(36.862745%,10.196078%,18.039216%);fill-opacity:1;" d="M 162.34375 30.238281 L 169.101562 13.683594 L 169.839844 13.683594 L 176.886719 30.238281 C 177.242188 31.0625 177.582031 31.648438 177.90625 31.988281 C 178.226562 32.335938 178.628906 32.5 179.089844 32.5 L 179.234375 32.5 L 179.234375 33.316406 L 170.121094 33.316406 L 170.121094 32.5 L 170.402344 32.5 C 171.238281 32.5 171.789062 32.316406 172.050781 31.925781 C 172.320312 31.550781 172.296875 30.992188 171.96875 30.238281 L 170.9375 27.722656 L 164.761719 27.722656 L 163.785156 30.238281 C 163.503906 30.949219 163.503906 31.460938 163.785156 31.804688 C 164.066406 32.144531 164.691406 32.375 165.65625 32.488281 L 165.953125 32.488281 L 165.953125 33.292969 L 160.125 33.292969 L 160.125 32.488281 L 160.253906 32.488281 C 160.6875 32.445312 161.0625 32.261719 161.371094 31.921875 C 161.683594 31.570312 162.007812 31.023438 162.328125 30.226562 Z M 165.253906 26.453125 L 170.429688 26.453125 L 167.761719 20.003906 L 165.273438 26.453125 Z M 165.253906 26.453125 "/>
<path style=" stroke:none;fill-rule:nonzero;fill:rgb(36.862745%,10.196078%,18.039216%);fill-opacity:1;" d="M 183.726562 29.558594 C 183.726562 30.582031 183.898438 31.304688 184.234375 31.746094 C 184.578125 32.1875 185.167969 32.445312 186.003906 32.5 L 186.261719 32.5 L 186.261719 33.316406 L 180.023438 33.316406 L 180.023438 32.5 L 180.28125 32.5 C 181.117188 32.445312 181.6875 32.1875 182.046875 31.746094 C 182.386719 31.304688 182.554688 30.582031 182.554688 29.558594 L 182.554688 16.953125 C 181.960938 16.242188 181.46875 15.734375 181.085938 15.433594 C 180.679688 15.089844 180.292969 14.917969 179.96875 14.917969 L 179.871094 14.917969 L 179.871094 14.121094 L 185.878906 14.121094 L 195.722656 26.265625 L 195.722656 17.882812 C 195.722656 16.855469 195.554688 16.128906 195.214844 15.691406 C 194.878906 15.246094 194.285156 14.996094 193.4375 14.933594 L 193.183594 14.933594 L 193.183594 14.136719 L 199.414062 14.136719 L 199.414062 14.933594 L 199.160156 14.933594 C 198.328125 14.996094 197.75 15.246094 197.398438 15.691406 C 197.054688 16.128906 196.886719 16.855469 196.886719 17.882812 L 196.886719 33.757812 L 196.152344 33.757812 L 183.703125 18.375 L 183.703125 29.570312 Z M 183.726562 29.558594 "/>
<path style=" stroke:none;fill-rule:nonzero;fill:rgb(36.862745%,10.196078%,18.039216%);fill-opacity:1;" d="M 218.210938 29.65625 C 217.152344 31.039062 215.964844 32.0625 214.679688 32.699219 C 213.394531 33.355469 211.910156 33.683594 210.242188 33.683594 C 207.457031 33.683594 205.144531 32.730469 203.289062 30.855469 C 201.449219 28.957031 200.515625 26.578125 200.515625 23.71875 C 200.515625 20.859375 201.4375 18.46875 203.289062 16.570312 C 205.128906 14.679688 207.445312 13.738281 210.242188 13.738281 C 212.023438 13.738281 213.621094 14.097656 215.035156 14.820312 C 215.488281 15.050781 215.878906 15.089844 216.21875 14.933594 C 216.554688 14.777344 216.796875 14.480469 216.925781 13.988281 L 217.003906 13.738281 L 217.761719 13.738281 L 217.761719 20.640625 L 217.003906 20.640625 C 216.492188 18.84375 215.667969 17.433594 214.539062 16.429688 C 213.40625 15.40625 212.117188 14.90625 210.664062 14.90625 C 208.96875 14.90625 207.640625 15.65625 206.710938 17.1875 C 205.765625 18.707031 205.296875 20.824219 205.296875 23.558594 C 205.296875 26.292969 205.765625 28.414062 206.710938 29.925781 C 207.65625 31.433594 208.96875 32.1875 210.664062 32.1875 C 211.949219 32.1875 213.128906 31.925781 214.1875 31.40625 C 215.246094 30.875 216.273438 30.050781 217.304688 28.902344 L 218.195312 29.65625 Z M 218.210938 29.65625 "/>
<path style=" stroke:none;fill-rule:nonzero;fill:rgb(36.862745%,10.196078%,18.039216%);fill-opacity:1;" d="M 222.386719 30.238281 L 222.386719 17.1875 C 222.386719 16.363281 222.210938 15.773438 221.878906 15.433594 C 221.535156 15.089844 220.9375 14.917969 220.105469 14.917969 L 219.851562 14.917969 L 219.851562 14.121094 L 229.464844 14.121094 L 229.464844 14.917969 L 229.207031 14.917969 C 228.375 14.917969 227.792969 15.089844 227.441406 15.433594 C 227.105469 15.773438 226.933594 16.363281 226.933594 17.1875 L 226.933594 22.691406 L 233.476562 22.691406 L 233.476562 17.1875 C 233.476562 16.363281 233.304688 15.773438 232.96875 15.433594 C 232.628906 15.089844 232.035156 14.917969 231.203125 14.917969 L 230.945312 14.917969 L 230.945312 14.121094 L 240.558594 14.121094 L 240.558594 14.917969 L 240.300781 14.917969 C 239.464844 14.917969 238.886719 15.089844 238.535156 15.433594 C 238.199219 15.773438 238.023438 16.363281 238.023438 17.1875 L 238.023438 30.238281 C 238.023438 31.0625 238.199219 31.648438 238.535156 31.988281 C 238.875 32.335938 239.464844 32.5 240.316406 32.5 L 240.570312 32.5 L 240.570312 33.316406 L 230.960938 33.316406 L 230.960938 32.5 L 231.210938 32.5 C 232.050781 32.5 232.628906 32.335938 232.984375 31.988281 C 233.335938 31.648438 233.492188 31.0625 233.492188 30.238281 L 233.492188 23.976562 L 226.945312 23.976562 L 226.945312 30.238281 C 226.945312 31.0625 227.113281 31.648438 227.453125 31.988281 C 227.792969 32.335938 228.386719 32.5 229.238281 32.5 L 229.492188 32.5 L 229.492188 33.316406 L 219.878906 33.316406 L 219.878906 32.5 L 220.132812 32.5 C 220.972656 32.5 221.550781 32.335938 221.898438 31.988281 C 222.238281 31.648438 222.410156 31.0625 222.410156 30.238281 Z M 222.386719 30.238281 "/>
<path style=" stroke:none;fill-rule:nonzero;fill:rgb(36.862745%,10.196078%,18.039216%);fill-opacity:1;" d="M 122.460938 43.234375 C 122.460938 42.738281 122.363281 42.382812 122.152344 42.179688 C 121.941406 41.984375 121.589844 41.867188 121.078125 41.867188 L 120.925781 41.867188 L 120.925781 41.386719 L 126.71875 41.386719 L 126.71875 41.867188 L 126.558594 41.867188 C 126.066406 41.867188 125.710938 41.96875 125.5 42.179688 C 125.289062 42.382812 125.191406 42.738281 125.191406 43.234375 L 125.191406 49.289062 C 125.191406 50.519531 124.875 51.476562 124.257812 52.160156 C 123.636719 52.84375 122.753906 53.1875 121.628906 53.1875 C 120.777344 53.1875 120.09375 52.976562 119.53125 52.566406 C 118.984375 52.148438 118.699219 51.625 118.699219 50.992188 C 118.699219 50.636719 118.832031 50.328125 119.070312 50.070312 C 119.3125 49.808594 119.605469 49.683594 119.945312 49.683594 C 120.289062 49.683594 120.570312 49.796875 120.824219 50.027344 C 121.0625 50.257812 121.191406 50.519531 121.191406 50.835938 C 121.191406 51.0625 121.132812 51.28125 121.007812 51.460938 C 120.808594 51.777344 120.710938 52.003906 120.710938 52.160156 C 120.710938 52.320312 120.835938 52.429688 121.0625 52.503906 C 121.191406 52.542969 121.320312 52.566406 121.457031 52.566406 C 121.78125 52.566406 122.039062 52.460938 122.214844 52.265625 C 122.378906 52.0625 122.460938 51.777344 122.460938 51.421875 Z M 122.460938 43.234375 "/>
<path style=" stroke:none;fill-rule:nonzero;fill:rgb(36.862745%,10.196078%,18.039216%);fill-opacity:1;" d="M 127.15625 52.941406 L 127.15625 52.460938 L 127.308594 52.460938 C 127.804688 52.460938 128.160156 52.359375 128.367188 52.148438 C 128.582031 51.949219 128.683594 51.59375 128.683594 51.09375 L 128.683594 43.234375 C 128.683594 42.738281 128.582031 42.382812 128.367188 42.179688 C 128.160156 41.984375 127.804688 41.867188 127.296875 41.867188 L 127.144531 41.867188 L 127.144531 41.386719 L 136.867188 41.386719 L 136.867188 44.875 L 136.414062 44.875 C 136.199219 43.761719 135.832031 43.023438 135.3125 42.652344 C 134.785156 42.277344 133.839844 42.097656 132.464844 42.097656 L 132.355469 42.097656 C 131.976562 42.097656 131.71875 42.152344 131.59375 42.296875 C 131.464844 42.421875 131.394531 42.683594 131.394531 43.0625 L 131.394531 46.691406 L 131.59375 46.691406 C 132.398438 46.691406 132.976562 46.523438 133.304688 46.199219 C 133.625 45.867188 133.898438 45.214844 134.074219 44.21875 L 134.53125 44.21875 L 134.53125 49.957031 L 134.074219 49.957031 C 133.882812 48.929688 133.617188 48.234375 133.289062 47.894531 C 132.953125 47.546875 132.398438 47.375 131.59375 47.375 L 131.394531 47.375 L 131.394531 51.050781 C 131.394531 51.554688 131.476562 51.875 131.636719 52.046875 C 131.789062 52.222656 132.128906 52.292969 132.613281 52.292969 C 133.855469 52.292969 134.773438 52.09375 135.394531 51.691406 C 136.019531 51.292969 136.640625 50.507812 137.257812 49.34375 L 137.667969 49.425781 L 137.320312 51.199219 L 136.945312 52.976562 L 127.144531 52.976562 Z M 127.15625 52.941406 "/>
<path style=" stroke:none;fill-rule:nonzero;fill:rgb(36.862745%,10.196078%,18.039216%);fill-opacity:1;" d="M 142.945312 53.214844 L 139.523438 43.234375 C 139.355469 42.738281 139.183594 42.382812 138.980469 42.179688 C 138.789062 41.984375 138.558594 41.867188 138.277344 41.867188 L 138.191406 41.867188 L 138.191406 41.386719 L 143.179688 41.386719 L 143.179688 41.867188 L 143.039062 41.867188 C 142.617188 41.867188 142.332031 41.984375 142.195312 42.214844 C 142.046875 42.4375 142.066406 42.78125 142.214844 43.234375 L 144.171875 49.113281 C 144.171875 49.113281 146.195312 43.902344 146.195312 43.902344 L 145.964844 43.246094 C 145.796875 42.75 145.613281 42.398438 145.398438 42.195312 C 145.191406 41.996094 144.917969 41.878906 144.578125 41.878906 L 144.480469 41.878906 L 144.480469 41.398438 L 149.617188 41.398438 L 149.617188 41.878906 L 149.460938 41.878906 C 148.992188 41.878906 148.675781 41.996094 148.523438 42.222656 C 148.371094 42.453125 148.371094 42.796875 148.523438 43.246094 L 150.46875 49.113281 C 150.46875 49.113281 152.222656 43.9375 152.222656 43.9375 C 152.464844 43.226562 152.539062 42.707031 152.4375 42.410156 C 152.320312 42.109375 152.03125 41.921875 151.535156 41.902344 L 151.375 41.902344 L 151.375 41.414062 L 154.429688 41.414062 L 154.429688 41.902344 L 154.359375 41.902344 C 154.089844 41.941406 153.867188 42.070312 153.695312 42.269531 C 153.523438 42.464844 153.359375 42.808594 153.203125 43.269531 L 149.785156 53.242188 L 149.347656 53.242188 L 146.589844 45.046875 L 143.378906 53.242188 L 142.945312 53.242188 Z M 142.945312 53.214844 "/>
<path style=" stroke:none;fill-rule:nonzero;fill:rgb(36.862745%,10.196078%,18.039216%);fill-opacity:1;" d="M 154.867188 52.941406 L 154.867188 52.460938 L 155.023438 52.460938 C 155.523438 52.460938 155.875 52.359375 156.082031 52.148438 C 156.300781 51.949219 156.394531 51.59375 156.394531 51.09375 L 156.394531 43.234375 C 156.394531 42.738281 156.300781 42.382812 156.082031 42.179688 C 155.875 41.984375 155.523438 41.867188 155.011719 41.867188 L 154.851562 41.867188 L 154.851562 41.386719 L 164.574219 41.386719 L 164.574219 44.875 L 164.125 44.875 C 163.914062 43.761719 163.546875 43.023438 163.027344 42.652344 C 162.5 42.277344 161.550781 42.097656 160.179688 42.097656 L 160.074219 42.097656 C 159.6875 42.097656 159.433594 42.152344 159.304688 42.296875 C 159.179688 42.421875 159.109375 42.683594 159.109375 43.0625 L 159.109375 46.691406 L 159.304688 46.691406 C 160.117188 46.691406 160.6875 46.523438 161.023438 46.199219 C 161.34375 45.867188 161.613281 45.214844 161.792969 44.21875 L 162.246094 44.21875 L 162.246094 49.957031 L 161.792969 49.957031 C 161.59375 48.929688 161.328125 48.234375 161 47.894531 C 160.667969 47.546875 160.117188 47.375 159.304688 47.375 L 159.109375 47.375 L 159.109375 51.050781 C 159.109375 51.554688 159.191406 51.875 159.34375 52.046875 C 159.507812 52.222656 159.847656 52.292969 160.324219 52.292969 C 161.570312 52.292969 162.488281 52.09375 163.109375 51.691406 C 163.730469 51.292969 164.351562 50.507812 164.972656 49.34375 L 165.382812 49.425781 L 165.03125 51.199219 L 164.664062 52.976562 L 154.851562 52.976562 Z M 154.867188 52.941406 "/>
<path style=" stroke:none;fill-rule:nonzero;fill:rgb(36.862745%,10.196078%,18.039216%);fill-opacity:1;" d="M 166.089844 52.941406 L 166.089844 52.460938 L 166.25 52.460938 C 166.738281 52.460938 167.089844 52.359375 167.308594 52.148438 C 167.519531 51.949219 167.613281 51.59375 167.613281 51.09375 L 167.613281 43.234375 C 167.613281 42.738281 167.519531 42.382812 167.308594 42.179688 C 167.089844 41.984375 166.738281 41.867188 166.230469 41.867188 L 166.078125 41.867188 L 166.078125 41.386719 L 171.871094 41.386719 L 171.871094 41.867188 L 171.71875 41.867188 C 171.222656 41.867188 170.867188 41.96875 170.65625 42.179688 C 170.445312 42.398438 170.347656 42.738281 170.347656 43.234375 L 170.347656 51.351562 C 170.347656 51.722656 170.402344 51.980469 170.53125 52.09375 C 170.65625 52.203125 170.898438 52.277344 171.261719 52.277344 L 171.292969 52.277344 C 172.664062 52.277344 173.664062 52.046875 174.304688 51.59375 C 174.941406 51.136719 175.511719 50.242188 176.054688 48.875 L 176.511719 48.972656 L 176.097656 50.953125 L 175.6875 52.941406 L 166.078125 52.941406 Z M 166.089844 52.941406 "/>
<path style=" stroke:none;fill-rule:nonzero;fill:rgb(36.862745%,10.196078%,18.039216%);fill-opacity:1;" d="M 177.1875 52.941406 L 177.1875 52.460938 L 177.339844 52.460938 C 177.832031 52.460938 178.1875 52.359375 178.402344 52.148438 C 178.609375 51.949219 178.710938 51.59375 178.710938 51.09375 L 178.710938 43.234375 C 178.710938 42.738281 178.609375 42.382812 178.402344 42.179688 C 178.1875 41.984375 177.832031 41.867188 177.324219 41.867188 L 177.171875 41.867188 L 177.171875 41.386719 L 182.964844 41.386719 L 182.964844 41.867188 L 182.808594 41.867188 C 182.3125 41.867188 181.960938 41.96875 181.746094 42.179688 C 181.539062 42.398438 181.441406 42.738281 181.441406 43.234375 L 181.441406 51.351562 C 181.441406 51.722656 181.5 51.980469 181.625 52.09375 C 181.746094 52.203125 181.988281 52.277344 182.359375 52.277344 L 182.386719 52.277344 C 183.757812 52.277344 184.761719 52.046875 185.398438 51.59375 C 186.03125 51.136719 186.617188 50.242188 187.144531 48.875 L 187.601562 48.972656 L 187.1875 50.953125 L 186.78125 52.941406 L 177.171875 52.941406 Z M 177.1875 52.941406 "/>
<path style=" stroke:none;fill-rule:nonzero;fill:rgb(36.862745%,10.196078%,18.039216%);fill-opacity:1;" d="M 188.152344 52.941406 L 188.152344 52.460938 L 188.308594 52.460938 C 188.800781 52.460938 189.152344 52.359375 189.371094 52.148438 C 189.578125 51.949219 189.679688 51.59375 189.679688 51.09375 L 189.679688 43.234375 C 189.679688 42.738281 189.578125 42.382812 189.371094 42.179688 C 189.152344 41.984375 188.800781 41.867188 188.292969 41.867188 L 188.140625 41.867188 L 188.140625 41.386719 L 197.859375 41.386719 L 197.859375 44.875 L 197.40625 44.875 C 197.195312 43.761719 196.832031 43.023438 196.304688 42.652344 C 195.78125 42.277344 194.835938 42.097656 193.46875 42.097656 L 193.355469 42.097656 C 192.972656 42.097656 192.714844 42.152344 192.589844 42.296875 C 192.46875 42.421875 192.394531 42.683594 192.394531 43.0625 L 192.394531 46.691406 L 192.589844 46.691406 C 193.394531 46.691406 193.976562 46.523438 194.300781 46.199219 C 194.621094 45.867188 194.890625 45.214844 195.078125 44.21875 L 195.527344 44.21875 L 195.527344 49.957031 L 195.078125 49.957031 C 194.878906 48.929688 194.605469 48.234375 194.285156 47.894531 C 193.945312 47.546875 193.394531 47.375 192.589844 47.375 L 192.394531 47.375 L 192.394531 51.050781 C 192.394531 51.554688 192.476562 51.875 192.632812 52.046875 C 192.792969 52.222656 193.125 52.292969 193.605469 52.292969 C 194.851562 52.292969 195.773438 52.09375 196.394531 51.691406 C 197.015625 51.292969 197.632812 50.507812 198.257812 49.34375 L 198.667969 49.425781 L 198.3125 51.199219 L 197.945312 52.976562 L 188.140625 52.976562 Z M 188.152344 52.941406 "/>
<path style=" stroke:none;fill-rule:nonzero;fill:rgb(36.862745%,10.196078%,18.039216%);fill-opacity:1;" d="M 200.777344 51.09375 L 200.777344 43.234375 C 200.777344 42.738281 200.671875 42.382812 200.460938 42.179688 C 200.253906 41.984375 199.898438 41.867188 199.386719 41.867188 L 199.234375 41.867188 L 199.234375 41.386719 L 204.683594 41.386719 C 206.296875 41.386719 207.488281 41.640625 208.246094 42.152344 C 209.011719 42.667969 209.410156 43.449219 209.410156 44.519531 C 209.410156 45.585938 208.957031 46.324219 208.050781 46.851562 C 207.710938 47.054688 207.300781 47.222656 206.847656 47.335938 L 209.28125 51.09375 C 209.601562 51.59375 209.886719 51.949219 210.144531 52.148438 C 210.378906 52.347656 210.652344 52.460938 210.921875 52.460938 L 211.003906 52.460938 L 211.003906 52.941406 L 207.554688 52.941406 L 203.898438 47.632812 L 203.519531 47.632812 L 203.519531 51.09375 C 203.519531 51.59375 203.613281 51.949219 203.820312 52.148438 C 204.035156 52.347656 204.390625 52.460938 204.898438 52.460938 L 205.054688 52.460938 L 205.054688 52.941406 L 199.257812 52.941406 L 199.257812 52.460938 L 199.414062 52.460938 C 199.914062 52.460938 200.269531 52.359375 200.476562 52.148438 C 200.6875 51.949219 200.78125 51.59375 200.78125 51.09375 Z M 203.5 46.992188 L 204.050781 46.992188 C 204.914062 46.992188 205.523438 46.796875 205.902344 46.398438 C 206.273438 46.003906 206.46875 45.324219 206.46875 44.40625 C 206.46875 43.625 206.296875 43.050781 205.941406 42.667969 C 205.601562 42.3125 205.128906 42.125 204.488281 42.097656 C 204.089844 42.097656 203.84375 42.140625 203.710938 42.269531 C 203.582031 42.398438 203.519531 42.652344 203.519531 43.050781 L 203.519531 46.992188 Z M 203.5 46.992188 "/>
<path style=" stroke:none;fill-rule:nonzero;fill:rgb(36.862745%,10.196078%,18.039216%);fill-opacity:1;" d="M 218.859375 44.96875 C 218.691406 44.074219 218.296875 43.335938 217.6875 42.75 C 217.085938 42.152344 216.386719 41.867188 215.609375 41.867188 C 215.003906 41.867188 214.539062 42.011719 214.195312 42.277344 C 213.859375 42.550781 213.6875 42.933594 213.6875 43.421875 C 213.6875 43.863281 213.902344 44.257812 214.308594 44.636719 C 214.722656 44.996094 215.378906 45.351562 216.292969 45.730469 C 217.453125 46.199219 218.324219 46.753906 218.914062 47.390625 C 219.496094 48.03125 219.796875 48.777344 219.796875 49.601562 C 219.796875 50.679688 219.425781 51.554688 218.691406 52.203125 C 217.953125 52.859375 216.980469 53.199219 215.785156 53.199219 C 214.839844 53.199219 213.972656 53.046875 213.195312 52.71875 C 212.996094 52.632812 212.800781 52.648438 212.617188 52.734375 C 212.429688 52.8125 212.304688 52.976562 212.25 53.1875 L 212.222656 53.277344 L 211.773438 53.277344 L 211.773438 48.914062 L 212.222656 48.914062 C 212.347656 49.957031 212.757812 50.820312 213.421875 51.511719 C 214.101562 52.1875 214.878906 52.53125 215.785156 52.53125 C 216.386719 52.53125 216.871094 52.359375 217.25 52.023438 C 217.632812 51.679688 217.816406 51.238281 217.816406 50.695312 C 217.816406 50.257812 217.621094 49.84375 217.210938 49.46875 C 216.796875 49.097656 216.152344 48.742188 215.257812 48.386719 C 214.140625 47.949219 213.308594 47.410156 212.757812 46.78125 C 212.1875 46.15625 211.921875 45.441406 211.921875 44.640625 C 211.921875 43.589844 212.265625 42.75 212.941406 42.125 C 213.621094 41.484375 214.511719 41.167969 215.625 41.167969 C 216.304688 41.167969 217.003906 41.332031 217.734375 41.632812 C 217.988281 41.742188 218.210938 41.753906 218.40625 41.695312 C 218.59375 41.640625 218.738281 41.496094 218.832031 41.273438 L 218.875 41.167969 L 219.332031 41.167969 L 219.332031 44.992188 L 218.875 44.992188 Z M 218.859375 44.96875 "/>
<path style=" stroke:none;fill-rule:nonzero;fill:rgb(36.862745%,10.196078%,18.039216%);fill-opacity:1;" d="M 65.621094 44.050781 L 65.621094 22.589844 C 65.621094 19.589844 65.324219 17.664062 64.742188 16.8125 C 64.152344 15.972656 62.769531 15.488281 60.578125 15.351562 L 60.578125 13.949219 L 76.671875 13.949219 L 76.671875 15.351562 C 74.484375 15.472656 73.097656 15.847656 72.503906 16.445312 C 71.910156 17.039062 71.628906 18.40625 71.628906 20.511719 L 71.628906 32.359375 C 73.769531 30.539062 76.035156 28.503906 78.394531 26.238281 C 80.289062 24.414062 82.023438 22.683594 83.625 21.042969 C 85.453125 19.136719 86.253906 17.734375 86.042969 16.871094 C 85.832031 16.007812 84.558594 15.488281 82.242188 15.351562 L 82.242188 13.949219 L 96.808594 13.949219 L 96.808594 15.351562 C 94.734375 15.671875 93.167969 16.144531 92.136719 16.757812 C 91.089844 17.351562 89.671875 18.621094 87.898438 20.53125 C 85.71875 22.875 83.230469 25.386719 80.398438 28.03125 L 77.503906 30.777344 L 92.355469 47.109375 C 93.9375 48.820312 95.128906 49.914062 95.9375 50.394531 C 96.742188 50.882812 97.828125 51.164062 99.214844 51.265625 L 99.214844 52.660156 L 82.269531 52.660156 L 82.269531 51.265625 C 84.324219 51.265625 85.476562 50.953125 85.777344 50.3125 C 86.066406 49.671875 85.546875 48.601562 84.207031 47.125 L 73.054688 34.648438 L 71.628906 35.875 L 71.628906 46.085938 C 71.628906 48.203125 71.917969 49.558594 72.503906 50.152344 C 73.097656 50.75 74.484375 51.121094 76.671875 51.253906 L 76.671875 52.648438 L 60.578125 52.648438 L 60.578125 51.253906 C 62.769531 51.121094 64.152344 50.625 64.742188 49.769531 C 65.339844 48.929688 65.621094 47.019531 65.621094 44 Z M 65.621094 44.050781 "/>
<path style=" stroke:none;fill-rule:nonzero;fill:rgb(36.862745%,10.196078%,18.039216%);fill-opacity:1;" d="M 255.183594 44.050781 L 255.183594 22.589844 C 255.183594 19.589844 254.859375 17.664062 254.210938 16.8125 C 253.554688 15.972656 252.035156 15.488281 249.628906 15.351562 L 249.628906 13.949219 L 267.304688 13.949219 L 267.304688 15.351562 C 264.90625 15.472656 263.375 15.957031 262.730469 16.8125 C 262.082031 17.664062 261.753906 19.574219 261.753906 22.589844 L 261.753906 44.050781 C 261.753906 47.054688 262.082031 48.972656 262.730469 49.832031 C 263.375 50.679688 264.90625 51.15625 267.304688 51.292969 L 267.304688 52.691406 L 249.628906 52.691406 L 249.628906 51.292969 C 252.035156 51.164062 253.554688 50.667969 254.210938 49.808594 C 254.859375 48.972656 255.183594 47.070312 255.183594 44.050781 Z M 255.183594 44.050781 "/>
<path style="fill:none;stroke-width:0.73;stroke-linecap:butt;stroke-linejoin:miter;stroke:rgb(36.862745%,10.196078%,18.039216%);stroke-opacity:1;stroke-miterlimit:10;" d="M 23.012705 38.608885 C 20.740727 40.581722 18.059683 41.717681 15.193453 41.717681 C 7.001067 41.717681 0.362028 32.45989 0.362028 21.039935 C 0.362028 9.622725 7.001067 0.356702 15.193453 0.356702 C 21.229948 0.356702 26.434491 5.399921 28.739636 12.629998 " transform="matrix(1.413279,0,0,1.423632,0.652416,0)"/>
<path style="fill:none;stroke-width:0.73;stroke-linecap:butt;stroke-linejoin:miter;stroke:rgb(36.862745%,10.196078%,18.039216%);stroke-opacity:1;stroke-miterlimit:10;" d="M 29.350472 14.901915 C 29.787178 16.841826 30.019351 18.899723 30.019351 21.039935 C 30.019351 26.497477 28.499171 31.469355 26.030952 35.157106 " transform="matrix(1.413279,0,0,1.423632,0.652416,0)"/>
<path style="fill:none;stroke-width:0.65;stroke-linecap:butt;stroke-linejoin:miter;stroke:rgb(36.862745%,10.196078%,18.039216%);stroke-opacity:1;stroke-miterlimit:10;" d="M 11.832474 15.329958 L 11.730208 12.281527 C 11.730208 12.281527 9.599192 10.958986 11.199527 10.160522 C 11.467631 10.034304 11.757847 9.951988 12.059119 9.930037 L 17.540058 9.573335 C 17.96018 9.537665 18.377539 9.650163 18.723034 9.91083 C 19.220547 10.286739 19.538403 10.994656 17.974 12.111408 L 18.258688 17.409806 L 28.629077 12.657436 C 28.629077 12.657436 33.142629 11.101666 29.671091 14.652224 C 29.588172 14.740028 29.491434 14.811368 29.389167 14.877221 C 28.197899 15.642758 19.994457 20.963107 17.949124 25.331336 C 18.040335 25.372494 21.011595 26.371259 22.57047 30.270288 C 22.628514 30.407481 22.689321 30.550161 22.761184 30.692842 C 24.018787 33.038844 25.121608 34.479372 25.749028 35.011681 C 25.939741 35.170825 26.191262 35.253141 26.437255 35.253141 C 27.349362 35.228447 29.588172 35.360152 27.490324 37.280855 C 24.900491 39.640577 24.607511 39.467714 23.618012 39.179608 C 22.628514 38.886015 21.229948 34.320228 17.119936 33.332438 C 17.119936 33.332438 16.813136 37.673228 13.040326 36.188798 C 9.320032 34.729064 9.781614 35.722342 9.579845 36.271114 C 9.411243 36.732083 8.490843 37.884505 7.291283 36.14764 C 6.091723 34.419007 5.931414 32.750739 7.54004 32.341903 C 9.15143 31.930324 12.47095 33.159574 12.368683 29.510238 L 12.100579 20.75183 C 12.100579 20.75183 10.411798 19.448495 9.889409 21.215542 C 9.889409 21.215542 9.3532 22.211564 11.000522 22.661558 C 12.647844 23.108807 10.610803 25.668831 9.781614 25.152985 C 8.949661 24.631651 7.683766 23.136246 4.999958 21.970104 C 2.15584 20.696952 11.832474 15.329958 11.832474 15.329958 Z M 11.832474 15.329958 " transform="matrix(1.413279,0,0,1.423632,0.652416,0)"/>
<path style=" stroke:none;fill-rule:nonzero;fill:rgb(36.862745%,10.196078%,18.039216%);fill-opacity:1;" d="M 26.90625 7.96875 L 21.636719 13.210938 L 15.855469 8.472656 L 26.90625 7.96875 M 28.476562 7.289062 L 14.21875 7.914062 L 21.679688 14.039062 Z M 28.476562 7.289062 "/>
<path style="fill:none;stroke-width:0.44;stroke-linecap:butt;stroke-linejoin:miter;stroke:rgb(36.862745%,10.196078%,18.039216%);stroke-opacity:1;stroke-miterlimit:10;" d="M 9.720807 5.649612 L 12.009368 3.188368 L 17.0536 2.968859 L 19.577099 5.232545 " transform="matrix(1.413279,0,0,1.423632,0.652416,0)"/>
<path style="fill:none;stroke-width:0.44;stroke-linecap:butt;stroke-linejoin:miter;stroke:rgb(36.862745%,10.196078%,18.039216%);stroke-opacity:1;stroke-miterlimit:10;" d="M 14.859014 9.556872 L 11.970673 5.649612 " transform="matrix(1.413279,0,0,1.423632,0.652416,0)"/>
<path style="fill:none;stroke-width:0.44;stroke-linecap:butt;stroke-linejoin:miter;stroke:rgb(36.862745%,10.196078%,18.039216%);stroke-opacity:1;stroke-miterlimit:10;" d="M 17.26919 5.424616 L 14.859014 9.556872 " transform="matrix(1.413279,0,0,1.423632,0.652416,0)"/>
<path style="fill:none;stroke-width:0.44;stroke-linecap:butt;stroke-linejoin:miter;stroke:rgb(36.862745%,10.196078%,18.039216%);stroke-opacity:1;stroke-miterlimit:10;" d="M 11.920921 5.520651 L 12.009368 3.188368 " transform="matrix(1.413279,0,0,1.423632,0.652416,0)"/>
<path style="fill:none;stroke-width:0.44;stroke-linecap:butt;stroke-linejoin:miter;stroke:rgb(36.862745%,10.196078%,18.039216%);stroke-opacity:1;stroke-miterlimit:10;" d="M 17.3604 5.298398 L 17.0536 2.968859 " transform="matrix(1.413279,0,0,1.423632,0.652416,0)"/>
<path style="fill:none;stroke-width:0.44;stroke-linecap:butt;stroke-linejoin:miter;stroke:rgb(36.862745%,10.196078%,18.039216%);stroke-opacity:1;stroke-miterlimit:10;" d="M 11.940269 5.542602 L 13.521256 3.119771 " transform="matrix(1.413279,0,0,1.423632,0.652416,0)"/>
<path style="fill:none;stroke-width:0.44;stroke-linecap:butt;stroke-linejoin:miter;stroke:rgb(36.862745%,10.196078%,18.039216%);stroke-opacity:1;stroke-miterlimit:10;" d="M 17.338289 5.320349 L 15.538949 3.02648 " transform="matrix(1.413279,0,0,1.423632,0.652416,0)"/>
<path style="fill:none;stroke-width:0.44;stroke-linecap:butt;stroke-linejoin:miter;stroke:rgb(36.862745%,10.196078%,18.039216%);stroke-opacity:1;stroke-miterlimit:10;" d="M 13.521256 3.119771 L 14.648953 5.408152 " transform="matrix(1.413279,0,0,1.423632,0.652416,0)"/>
<path style="fill:none;stroke-width:0.44;stroke-linecap:butt;stroke-linejoin:miter;stroke:rgb(36.862745%,10.196078%,18.039216%);stroke-opacity:1;stroke-miterlimit:10;" d="M 15.538949 3.02648 L 14.648953 5.408152 " transform="matrix(1.413279,0,0,1.423632,0.652416,0)"/>
<path style="fill:none;stroke-width:0.44;stroke-linecap:butt;stroke-linejoin:miter;stroke:rgb(36.862745%,10.196078%,18.039216%);stroke-opacity:1;stroke-miterlimit:10;" d="M 14.637897 5.32858 L 14.859014 9.556872 " transform="matrix(1.413279,0,0,1.423632,0.652416,0)"/>
<path style=" stroke:none;fill-rule:nonzero;fill:rgb(36.862745%,10.196078%,18.039216%);fill-opacity:1;" d="M 8.027344 65.390625 C 7.816406 65.046875 7.433594 64.886719 7.039062 64.886719 C 6.476562 64.886719 5.890625 65.160156 5.890625 65.800781 C 5.890625 66.296875 6.164062 66.527344 7.027344 66.796875 C 7.859375 67.070312 8.640625 67.335938 8.640625 68.402344 C 8.640625 69.476562 7.71875 69.984375 6.738281 69.984375 C 6.121094 69.984375 5.449219 69.769531 5.089844 69.230469 L 5.640625 68.78125 C 5.863281 69.175781 6.324219 69.382812 6.789062 69.382812 C 7.339844 69.382812 7.957031 69.058594 7.957031 68.445312 C 7.957031 67.78125 7.507812 67.664062 6.546875 67.335938 C 5.78125 67.078125 5.203125 66.757812 5.203125 65.84375 C 5.203125 64.804688 6.09375 64.28125 7.039062 64.28125 C 7.652344 64.28125 8.152344 64.449219 8.554688 64.917969 L 8.027344 65.375 Z M 8.027344 65.390625 "/>
<path style=" stroke:none;fill-rule:nonzero;fill:rgb(36.862745%,10.196078%,18.039216%);fill-opacity:1;" d="M 9.9375 64.433594 C 10.175781 64.433594 10.378906 64.636719 10.378906 64.875 C 10.378906 65.128906 10.191406 65.3125 9.9375 65.3125 C 9.683594 65.3125 9.5 65.128906 9.5 64.875 C 9.5 64.636719 9.683594 64.433594 9.9375 64.433594 Z M 9.640625 66.269531 L 10.230469 66.269531 L 10.230469 69.851562 L 9.640625 69.851562 Z M 9.640625 66.269531 "/>
<path style=" stroke:none;fill-rule:nonzero;fill:rgb(36.862745%,10.196078%,18.039216%);fill-opacity:1;" d="M 11.40625 67.125 C 11.40625 66.796875 11.378906 66.515625 11.378906 66.269531 L 11.945312 66.269531 C 11.945312 66.457031 11.957031 66.652344 11.957031 66.851562 L 11.972656 66.851562 C 12.121094 66.496094 12.582031 66.171875 13.160156 66.171875 C 14.089844 66.171875 14.515625 66.769531 14.515625 67.636719 L 14.515625 69.851562 L 13.925781 69.851562 L 13.925781 67.707031 C 13.925781 67.113281 13.667969 66.742188 13.101562 66.742188 C 12.339844 66.742188 12 67.296875 12 68.125 L 12 69.875 L 11.40625 69.875 Z M 11.40625 67.125 "/>
<path style=" stroke:none;fill-rule:nonzero;fill:rgb(36.862745%,10.196078%,18.039216%);fill-opacity:1;" d="M 18.175781 67.167969 C 17.921875 66.851562 17.640625 66.722656 17.269531 66.722656 C 16.464844 66.722656 16.074219 67.320312 16.074219 68.0625 C 16.074219 68.800781 16.554688 69.402344 17.269531 69.402344 C 17.652344 69.402344 17.953125 69.261719 18.175781 68.960938 L 18.621094 69.382812 C 18.277344 69.792969 17.78125 69.960938 17.269531 69.960938 C 16.167969 69.960938 15.4375 69.175781 15.4375 68.0625 C 15.4375 66.953125 16.183594 66.171875 17.269531 66.171875 C 17.800781 66.171875 18.292969 66.339844 18.640625 66.742188 Z M 18.175781 67.167969 "/>
<path style=" stroke:none;fill-rule:nonzero;fill:rgb(36.862745%,10.196078%,18.039216%);fill-opacity:1;" d="M 22.488281 69.203125 C 22.0625 69.742188 21.570312 69.945312 20.90625 69.945312 C 19.785156 69.945312 19.09375 69.101562 19.09375 68.046875 C 19.09375 66.941406 19.878906 66.15625 20.921875 66.15625 C 21.964844 66.15625 22.613281 66.851562 22.613281 68.035156 L 22.613281 68.21875 L 19.730469 68.21875 C 19.773438 68.839844 20.253906 69.375 20.886719 69.375 C 21.394531 69.375 21.734375 69.191406 22.019531 68.835938 L 22.472656 69.191406 Z M 21.976562 67.734375 C 21.949219 67.125 21.554688 66.722656 20.90625 66.722656 C 20.253906 66.722656 19.816406 67.140625 19.746094 67.734375 Z M 21.976562 67.734375 "/>
<path style=" stroke:none;fill-rule:nonzero;fill:rgb(36.862745%,10.196078%,18.039216%);fill-opacity:1;" d="M 27.828125 69.851562 L 27.195312 69.851562 L 27.195312 65.257812 L 27.179688 65.257812 L 26.222656 66.085938 L 25.835938 65.613281 L 27.28125 64.433594 L 27.828125 64.433594 Z M 27.828125 69.851562 "/>
<path style=" stroke:none;fill-rule:nonzero;fill:rgb(36.862745%,10.196078%,18.039216%);fill-opacity:1;" d="M 32 67.59375 L 31.988281 67.59375 C 31.78125 67.691406 31.480469 67.734375 31.265625 67.734375 C 30.328125 67.734375 29.644531 67.035156 29.644531 66.023438 C 29.644531 65.011719 30.417969 64.324219 31.445312 64.324219 C 32.480469 64.324219 33.257812 64.957031 33.257812 66.023438 C 33.257812 66.652344 33.027344 67.078125 32.746094 67.550781 L 31.320312 69.847656 L 30.574219 69.847656 L 32.011719 67.578125 Z M 32.59375 66.046875 C 32.59375 65.328125 32.070312 64.886719 31.4375 64.886719 C 30.796875 64.886719 30.273438 65.328125 30.273438 66.046875 C 30.273438 66.757812 30.796875 67.195312 31.4375 67.195312 C 32.070312 67.195312 32.59375 66.757812 32.59375 66.046875 Z M 32.59375 66.046875 "/>
<path style=" stroke:none;fill-rule:nonzero;fill:rgb(36.862745%,10.196078%,18.039216%);fill-opacity:1;" d="M 37.199219 65.035156 L 35.054688 69.851562 L 34.328125 69.851562 L 36.523438 65.035156 L 33.921875 65.035156 L 33.921875 64.433594 L 37.21875 64.433594 L 37.21875 65.035156 Z M 37.199219 65.035156 "/>
<path style=" stroke:none;fill-rule:nonzero;fill:rgb(36.862745%,10.196078%,18.039216%);fill-opacity:1;" d="M 40.523438 69.851562 L 39.878906 69.851562 L 39.878906 65.257812 L 39.867188 65.257812 L 38.90625 66.085938 L 38.527344 65.613281 L 39.972656 64.433594 L 40.523438 64.433594 Z M 40.523438 69.851562 "/>
</g>
</svg>
