<svg width="360" height="153" viewBox="0 0 360 153" fill="none" xmlns="http://www.w3.org/2000/svg">
<path d="M143.063 69.7184V54.2872C143.063 53.3122 142.856 52.6185 142.45 52.2122C142.044 51.806 141.337 51.606 140.337 51.606H140.031V50.656H145.756H151.481V51.606H151.175C150.188 51.606 149.488 51.806 149.081 52.2122C148.675 52.6185 148.469 53.306 148.469 54.2872V60.7997H156.25V54.2872C156.25 53.3122 156.044 52.6185 155.638 52.2122C155.231 51.806 154.525 51.606 153.525 51.606H153.219V50.656H158.944H164.669V51.606H164.363C163.375 51.606 162.675 51.806 162.269 52.2122C161.863 52.6185 161.656 53.306 161.656 54.2872V69.7184C161.656 70.6997 161.863 71.3872 162.269 71.7934C162.675 72.1997 163.381 72.3997 164.381 72.3997H164.688V73.3497H158.963H153.238V72.3997H153.544C154.531 72.3997 155.231 72.1997 155.638 71.7934C156.044 71.3872 156.25 70.6997 156.25 69.7184V62.3185H148.463V69.7184C148.463 70.6997 148.669 71.3872 149.075 71.7934C149.481 72.1997 150.188 72.3997 151.188 72.3997H151.494V73.3497H145.769H140.044V72.3997H140.35C141.338 72.3997 142.038 72.1934 142.444 71.7872C142.856 71.3872 143.063 70.6997 143.063 69.7184Z" fill="#5E192E"/>
<path d="M169.5 69.7185L177.55 50.1435H177.987H178.425L186.825 69.7185C187.244 70.6997 187.65 71.3872 188.044 71.7935C188.437 72.1997 188.906 72.3997 189.456 72.3997H189.619V73.3497H184.2H178.762V72.3997H179.1C180.1 72.3997 180.756 72.1747 181.069 71.731C181.381 71.2872 181.35 70.6185 180.969 69.731L179.744 66.756H172.375L171.225 69.731C170.894 70.5685 170.894 71.1872 171.225 71.5872C171.556 71.9872 172.3 72.2622 173.45 72.3997H173.806V73.3497H170.344H166.875V72.3997H167.019C167.537 72.356 167.981 72.131 168.356 71.7247C168.731 71.3247 169.112 70.656 169.5 69.7185ZM172.962 65.2372H179.119L175.931 57.6122H175.919L172.962 65.2372Z" fill="#5E192E"/>
<path d="M191.731 73.0122L204.581 51.9372H200.744C198.85 51.9372 197.344 52.406 196.219 53.3497C195.094 54.2935 194.35 55.706 193.988 57.5997H192.906L193.231 54.131L193.556 50.6623H203.056H211.2V50.8248V50.9998L198.381 72.0309H203.3C205.613 72.0309 207.288 71.5684 208.331 70.6434C209.375 69.7184 210.294 67.8684 211.088 65.0934H211.894L211.525 69.2247L211.138 73.3497H199.875H191.731V73.1872V73.0122Z" fill="#5E192E"/>
<path d="M217.369 69.7185L225.419 50.1435H225.856H226.294L234.694 69.7185C235.113 70.6997 235.519 71.3872 235.913 71.7935C236.306 72.1997 236.775 72.3997 237.325 72.3997H237.488V73.3497H232.069H226.631V72.3997H226.969C227.969 72.3997 228.625 72.1747 228.938 71.731C229.25 71.2872 229.219 70.6185 228.838 69.731L227.613 66.756H220.25L219.1 69.731C218.769 70.5685 218.769 71.1872 219.1 71.5872C219.431 71.9872 220.175 72.2622 221.325 72.3997H221.681V73.3497H218.219H214.75V72.3997H214.894C215.413 72.356 215.856 72.131 216.231 71.7247C216.6 71.3247 216.981 70.656 217.369 69.7185ZM220.831 65.2372H226.988L223.8 57.6122H223.788L220.831 65.2372Z" fill="#5E192E"/>
<path d="M243.919 68.9121C243.919 70.1183 244.125 70.9808 244.531 71.4996C244.938 72.0183 245.644 72.3183 246.644 72.3933H246.95V73.3433H243.244H239.538V72.3933H239.844C240.831 72.3183 241.531 72.0183 241.938 71.4996C242.344 70.9808 242.55 70.1183 242.55 68.9121V54.031C241.838 53.1935 241.263 52.5872 240.806 52.2247C240.313 51.8185 239.869 51.6122 239.469 51.6122H239.356V50.6623H242.938H246.519L258.244 65.0121V55.0935C258.244 53.8872 258.038 53.0247 257.631 52.506C257.225 51.9872 256.519 51.6872 255.519 51.6122H255.213V50.6623H258.919H262.625V51.6122H262.319C261.331 51.6872 260.631 51.9872 260.225 52.506C259.819 53.0247 259.613 53.8872 259.613 55.0935V73.862H259.175H258.738L243.919 55.6872V68.9121Z" fill="#5E192E"/>
<path d="M286.07 69.0433C284.801 70.6746 283.401 71.8808 281.87 72.6496C280.338 73.4183 278.576 73.8058 276.588 73.8058C273.263 73.8058 270.507 72.6871 268.313 70.4496C266.12 68.2121 265.026 65.3996 265.026 62.0184C265.026 58.6184 266.12 55.806 268.313 53.5685C270.507 51.331 273.263 50.2123 276.588 50.2123C278.707 50.2123 280.607 50.6373 282.295 51.4872C282.832 51.756 283.307 51.7997 283.713 51.6247C284.12 51.4497 284.401 51.081 284.551 50.5185L284.632 50.2123H285.532V58.3747H284.632C284.02 56.256 283.045 54.5935 281.707 53.3935C280.37 52.1872 278.832 51.5872 277.101 51.5872C275.082 51.5872 273.507 52.4872 272.382 54.281C271.257 56.0747 270.695 58.5934 270.695 61.8309C270.695 65.0559 271.257 67.5621 272.376 69.3558C273.501 71.1433 275.07 72.0433 277.088 72.0433C278.626 72.0433 280.02 71.7371 281.276 71.1246C282.532 70.5121 283.776 69.5246 285.001 68.1683L286.07 69.0433Z" fill="#5E192E"/>
<path d="M292.125 69.7184V54.2872C292.125 53.3122 291.919 52.6185 291.512 52.2122C291.106 51.806 290.4 51.606 289.4 51.606H289.094V50.656H294.819H300.544V51.606H300.237C299.25 51.606 298.55 51.806 298.144 52.2122C297.737 52.6185 297.531 53.306 297.531 54.2872V60.7997H305.319V54.2872C305.319 53.3122 305.112 52.6185 304.706 52.2122C304.3 51.806 303.594 51.606 302.594 51.606H302.287V50.656H308.012H313.737V51.606H313.431C312.444 51.606 311.744 51.806 311.337 52.2122C310.931 52.6185 310.725 53.306 310.725 54.2872V69.7184C310.725 70.6997 310.931 71.3872 311.337 71.7934C311.744 72.1997 312.45 72.3997 313.45 72.3997H313.75V73.3497H308.025H302.3V72.3997H302.606C303.594 72.3997 304.294 72.1997 304.7 71.7934C305.106 71.3872 305.312 70.6997 305.312 69.7184V62.3185H297.525V69.7184C297.525 70.6997 297.731 71.3872 298.137 71.7934C298.544 72.1997 299.25 72.3997 300.25 72.3997H300.556V73.3497H294.831H289.106V72.3997H289.412C290.4 72.3997 291.1 72.1934 291.506 71.7872C291.919 71.3872 292.125 70.6997 292.125 69.7184Z" fill="#5E192E"/>
<path d="M166.612 85.0933C166.612 84.5058 166.487 84.0871 166.243 83.8433C165.999 83.5996 165.574 83.4808 164.968 83.4808H164.787V82.9058H168.237H171.687V83.4808H171.499C170.905 83.4808 170.48 83.5996 170.237 83.8433C169.993 84.0871 169.868 84.4996 169.868 85.0933V92.2433C169.868 93.6996 169.493 94.8308 168.749 95.6371C168.005 96.4433 166.962 96.8433 165.612 96.8433C164.605 96.8433 163.774 96.5996 163.118 96.1058C162.462 95.6121 162.13 94.9933 162.13 94.2496C162.13 93.8246 162.274 93.4558 162.568 93.1496C162.862 92.8433 163.205 92.6933 163.605 92.6933C164.005 92.6933 164.355 92.8246 164.643 93.0933C164.93 93.3621 165.08 93.6871 165.08 94.0621C165.08 94.3371 165.005 94.5808 164.855 94.8121C164.618 95.1808 164.499 95.4558 164.512 95.6433C164.524 95.8246 164.662 95.9621 164.937 96.0433C165.087 96.0871 165.243 96.1121 165.412 96.1121C165.799 96.1121 166.099 95.9933 166.305 95.7621C166.512 95.5308 166.618 95.1933 166.618 94.7621V85.0933H166.612Z" fill="#5E192E"/>
<path d="M172.699 96.5745V95.9995H172.887C173.48 95.9995 173.905 95.8807 174.149 95.637C174.393 95.3932 174.518 94.9807 174.518 94.387V85.0933C174.518 84.5058 174.393 84.0871 174.149 83.8433C173.905 83.5996 173.48 83.4808 172.874 83.4808H172.687V82.9058H177.768H184.274V84.9621V87.0183H183.73C183.48 85.7058 183.037 84.8246 182.412 84.3871C181.787 83.9496 180.662 83.7246 179.037 83.7246H178.899C178.449 83.7246 178.143 83.7996 177.993 83.9558C177.843 84.1058 177.762 84.4121 177.762 84.8621V89.1558H178.005C178.968 89.1558 179.649 88.962 180.043 88.5745C180.437 88.187 180.743 87.4058 180.968 86.2371H181.512V89.6245V93.0245H180.968C180.737 91.8058 180.418 90.9933 180.024 90.587C179.63 90.1808 178.955 89.9745 178.005 89.9745H177.762V94.3182C177.762 94.9057 177.862 95.2995 178.055 95.4932C178.249 95.687 178.637 95.7807 179.224 95.7745C180.699 95.7682 181.805 95.5307 182.543 95.0682C183.28 94.6057 184.024 93.6808 184.755 92.287L185.243 92.387L184.818 94.4745L184.38 96.5745H177.768H172.699Z" fill="#5E192E"/>
<path d="M192.03 96.8807L187.949 85.0933C187.749 84.5058 187.537 84.0871 187.318 83.8433C187.099 83.5996 186.818 83.4808 186.48 83.4808H186.38V82.9058H189.355H192.33V83.4808H192.168C191.655 83.4808 191.318 83.6121 191.155 83.8871C190.993 84.1558 191.005 84.5558 191.193 85.0933L193.512 92.037L193.518 92.0495L195.93 85.8746L195.668 85.0996C195.468 84.5121 195.243 84.0933 194.993 83.8496C194.743 83.6058 194.418 83.4871 194.018 83.4871H193.893V82.9121H196.943H199.999V83.4871H199.812C199.262 83.4871 198.893 83.6183 198.712 83.8933C198.53 84.1621 198.53 84.5621 198.718 85.0996L201.037 92.0308V92.037L203.118 85.9121C203.412 85.0683 203.493 84.4683 203.368 84.1058C203.243 83.7433 202.88 83.5371 202.287 83.4933H202.099V82.9183H203.905H205.724V83.4933H205.637C205.312 83.5433 205.049 83.6933 204.843 83.9308C204.637 84.1683 204.443 84.5621 204.255 85.1058L200.187 96.8932H199.924H199.662L196.38 87.1933L192.555 96.8932H192.293H192.03V96.8807Z" fill="#5E192E"/>
<path d="M206.743 96.5745V95.9995H206.93C207.524 95.9995 207.949 95.8807 208.193 95.637C208.437 95.3932 208.562 94.9807 208.562 94.387V85.0933C208.562 84.5058 208.437 84.0871 208.193 83.8433C207.949 83.5996 207.524 83.4808 206.918 83.4808H206.73V82.9058H211.812H218.318V84.9621V87.0183H217.774C217.524 85.7058 217.08 84.8246 216.455 84.3871C215.83 83.9496 214.705 83.7246 213.08 83.7246H212.943C212.493 83.7246 212.187 83.7996 212.037 83.9558C211.887 84.1058 211.805 84.4121 211.805 84.8621V89.1558H212.049C213.012 89.1558 213.693 88.962 214.087 88.5745C214.48 88.187 214.787 87.4058 215.012 86.2371H215.555V89.6245V93.0245H215.012C214.78 91.8058 214.462 90.9933 214.068 90.587C213.674 90.1808 212.999 89.9745 212.049 89.9745H211.805V94.3182C211.805 94.9057 211.905 95.2995 212.099 95.4932C212.293 95.687 212.68 95.7807 213.268 95.7745C214.743 95.7682 215.849 95.5307 216.587 95.0682C217.324 94.6057 218.068 93.6808 218.799 92.287L219.287 92.387L218.862 94.4745L218.424 96.5745H211.812H206.743Z" fill="#5E192E"/>
<path d="M220.625 96.5745V95.9995H220.806C221.4 95.9995 221.825 95.8807 222.069 95.637C222.312 95.3932 222.437 94.9807 222.437 94.387V85.0933C222.437 84.5058 222.312 84.0871 222.069 83.8433C221.825 83.5996 221.4 83.4808 220.794 83.4808H220.612V82.9058H224.062H227.512V83.4808H227.325C226.731 83.4808 226.306 83.5996 226.062 83.8433C225.819 84.0871 225.694 84.4996 225.694 85.0933V94.6807C225.694 95.1182 225.769 95.412 225.912 95.562C226.056 95.7057 226.35 95.7807 226.794 95.7807H226.825C228.456 95.7807 229.65 95.512 230.406 94.9807C231.162 94.4495 231.862 93.3745 232.494 91.7683L233.037 91.887L232.55 94.2307L232.062 96.5807H225.694H220.625V96.5745Z" fill="#5E192E"/>
<path d="M234.349 96.5745V95.9995H234.531C235.125 95.9995 235.549 95.8807 235.793 95.637C236.037 95.3932 236.162 94.9807 236.162 94.387V85.0933C236.162 84.5058 236.037 84.0871 235.793 83.8433C235.549 83.5996 235.125 83.4808 234.518 83.4808H234.337V82.9058H237.787H241.237V83.4808H241.05C240.456 83.4808 240.031 83.5996 239.787 83.8433C239.543 84.0871 239.418 84.4996 239.418 85.0933V94.6807C239.418 95.1182 239.493 95.412 239.637 95.562C239.781 95.7057 240.075 95.7807 240.518 95.7807H240.55C242.181 95.7807 243.375 95.512 244.131 94.9807C244.887 94.4495 245.587 93.3745 246.218 91.7683L246.762 91.887L246.275 94.2307L245.787 96.5807H239.418H234.349V96.5745Z" fill="#5E192E"/>
<path d="M247.919 96.5745V95.9995H248.106C248.7 95.9995 249.125 95.8807 249.369 95.637C249.612 95.3932 249.737 94.9807 249.737 94.387V85.0933C249.737 84.5058 249.612 84.0871 249.369 83.8433C249.125 83.5996 248.7 83.4808 248.094 83.4808H247.906V82.9058H252.987H259.494V84.9621V87.0183H258.95C258.7 85.7058 258.256 84.8246 257.631 84.3871C257.006 83.9496 255.881 83.7246 254.256 83.7246H254.119C253.669 83.7246 253.362 83.7996 253.212 83.9558C253.062 84.1058 252.981 84.4121 252.981 84.8621V89.1558H253.225C254.187 89.1558 254.869 88.962 255.262 88.5745C255.656 88.187 255.962 87.4058 256.187 86.2371H256.731V89.6245V93.0245H256.187C255.956 91.8058 255.637 90.9933 255.244 90.587C254.85 90.1808 254.175 89.9745 253.225 89.9745H252.981V94.3182C252.981 94.9057 253.081 95.2995 253.275 95.4932C253.469 95.687 253.856 95.7807 254.444 95.7745C255.919 95.7682 257.025 95.5307 257.762 95.0682C258.5 94.6057 259.244 93.6808 259.975 92.287L260.462 92.387L260.037 94.4745L259.6 96.5745H252.987H247.919Z" fill="#5E192E"/>
<path d="M263.468 94.387V85.0933C263.468 84.5058 263.343 84.0871 263.1 83.8433C262.856 83.5996 262.431 83.4808 261.825 83.4808H261.637V82.9058H265.087H268.137C270.056 82.9058 271.468 83.2058 272.387 83.8121C273.306 84.4121 273.762 85.3496 273.762 86.6121C273.762 87.8245 273.225 88.7433 272.15 89.3683C271.743 89.6058 271.262 89.7995 270.712 89.9433L273.606 94.3932C273.993 94.9807 274.337 95.3995 274.625 95.6432C274.918 95.887 275.225 96.0057 275.556 96.0057H275.656V96.5807H274.656H271.543L267.181 90.3058H266.725V94.3932C266.725 94.9807 266.85 95.3995 267.093 95.6432C267.337 95.887 267.762 96.0057 268.368 96.0057H268.55V96.5807H265.1H261.65V96.0057H261.837C262.431 96.0057 262.856 95.8807 263.1 95.637C263.343 95.3932 263.468 94.9745 263.468 94.387ZM266.725 89.5308H267.387C268.412 89.5308 269.143 89.2933 269.587 88.8183C270.031 88.3433 270.25 87.5558 270.25 86.4621C270.25 85.5433 270.043 84.8558 269.631 84.4058C269.237 83.9871 268.656 83.7621 267.893 83.7371C267.425 83.7246 267.118 83.7933 266.962 83.9433C266.806 84.0933 266.731 84.4058 266.731 84.8746V89.5308H266.725Z" fill="#5E192E"/>
<path d="M285.525 87.1434C285.325 86.0871 284.857 85.2121 284.125 84.5121C283.394 83.8121 282.569 83.4621 281.657 83.4621C280.938 83.4621 280.375 83.6246 279.975 83.9434C279.575 84.2621 279.375 84.7184 279.375 85.2996C279.375 85.8184 279.619 86.2934 280.113 86.7246C280.607 87.1559 281.394 87.5872 282.475 88.0184C283.863 88.5684 284.9 89.2246 285.6 89.9872C286.294 90.7497 286.638 91.6184 286.638 92.5872C286.638 93.8622 286.2 94.8872 285.319 95.6684C284.444 96.4497 283.288 96.8372 281.85 96.8372C280.725 96.8372 279.694 96.6434 278.763 96.2622C278.532 96.1622 278.3 96.1747 278.075 96.2872C277.85 96.3997 277.7 96.5809 277.638 96.8247L277.607 96.9309H277.063V91.7809H277.607C277.763 93.0122 278.238 94.0309 279.044 94.8434C279.844 95.6559 280.782 96.0622 281.85 96.0622C282.569 96.0622 283.15 95.8622 283.6 95.4622C284.05 95.0622 284.275 94.5372 284.275 93.8997C284.275 93.3747 284.032 92.8934 283.544 92.4497C283.057 92.0184 282.288 91.5872 281.225 91.1684C279.907 90.6434 278.913 90.0122 278.244 89.2622C277.575 88.5247 277.244 87.6809 277.244 86.7371C277.244 85.4996 277.65 84.5059 278.457 83.7496C279.263 82.9934 280.332 82.6184 281.65 82.6184C282.45 82.6246 283.288 82.8059 284.157 83.1621C284.469 83.2934 284.738 83.3184 284.963 83.2434C285.188 83.1684 285.357 82.9996 285.469 82.7309L285.519 82.6121H286.063V87.1184H285.525V87.1434Z" fill="#5E192E"/>
<path d="M98.925 86.0557V60.6997C98.925 57.1497 98.575 54.8747 97.875 53.8747C97.175 52.8747 95.5188 52.2997 92.9062 52.1497V50.506H102.475H112.075V52.1497C109.469 52.306 107.813 52.7372 107.106 53.4497C106.406 54.1622 106.056 55.7685 106.056 58.2684V72.2746C108.625 70.1246 111.313 67.7184 114.119 65.0434C116.375 62.8934 118.45 60.8434 120.338 58.8934C122.506 56.6372 123.469 54.9935 123.213 53.9622C122.963 52.931 121.45 52.331 118.688 52.156V50.5123H127.369H136.05V52.156C133.575 52.5497 131.713 53.106 130.475 53.8185C129.238 54.531 127.556 56.0185 125.425 58.2747C122.838 61.0559 119.869 64.0184 116.513 67.1496L113.063 70.4059L130.756 89.7182C132.644 91.7369 134.063 93.0307 135.013 93.5994C135.969 94.1682 137.263 94.5119 138.913 94.6182V96.2494H128.825H118.738V94.6057C121.169 94.6057 122.563 94.2307 122.913 93.4682C123.263 92.7119 122.638 91.4557 121.038 89.7057L107.756 74.9683L106.063 76.4183V88.487C106.063 90.987 106.413 92.5932 107.113 93.3057C107.813 94.0182 109.469 94.4494 112.081 94.6057V96.2494H102.513H92.9125V94.6057C95.5188 94.4494 97.175 93.8744 97.8813 92.8619C98.575 91.8744 98.925 89.6057 98.925 86.0557Z" fill="#5E192E"/>
<path d="M324.644 86.0557V60.6997C324.644 57.1497 324.256 54.8747 323.487 53.8747C322.719 52.8747 320.9 52.2997 318.037 52.1497V50.506H328.544H339.087V52.1497C336.225 52.306 334.406 52.881 333.637 53.8747C332.869 54.8747 332.481 57.1497 332.481 60.6997V86.0557C332.481 89.6057 332.869 91.8807 333.637 92.8807C334.406 93.8807 336.225 94.4557 339.087 94.6057V96.2494H328.581H318.037V94.6057C320.9 94.4494 322.719 93.8744 323.487 92.8619C324.262 91.8744 324.644 89.6057 324.644 86.0557Z" fill="#5E192E"/>
<path d="M58.0938 105.137C54.2063 108.512 49.6188 110.461 44.6938 110.461C30.6563 110.461 19.2875 94.5992 19.2875 75.0244C19.2875 55.4621 30.6563 39.5935 44.6938 39.5935C55.05 39.5935 63.95 48.2247 67.9 60.6058" stroke="#5E192E" stroke-width="2.2" stroke-miterlimit="10"/>
<path d="M68.9625 64.5061C69.7063 67.831 70.1 71.3685 70.1 75.0247C70.1 84.3871 67.5063 92.8995 63.2625 99.2245" stroke="#5E192E" stroke-width="2.2" stroke-miterlimit="10"/>
<path d="M50.0187 48.7997L44.1062 54.631L37.625 49.3435L50.0187 48.7997ZM52.4124 47.756L35.125 48.5122L44.1624 55.8872L52.4124 47.756Z" fill="#5E192E"/>
<path d="M35.325 48.6748L39.25 44.4498L47.8938 44.0685L52.2189 47.9435" stroke="#5E192E" stroke-width="1.5" stroke-miterlimit="10"/>
<path d="M44.1312 55.3622L39.1875 48.6747" stroke="#5E192E" stroke-width="1.5" stroke-miterlimit="10"/>
<path d="M48.2625 48.2747L44.1312 55.3622" stroke="#5E192E" stroke-width="1.5" stroke-miterlimit="10"/>
<path d="M39.0937 48.4373L39.25 44.4498" stroke="#5E192E" stroke-width="1.5" stroke-miterlimit="10"/>
<path d="M48.4125 48.0748L47.8938 44.0685" stroke="#5E192E" stroke-width="1.5" stroke-miterlimit="10"/>
<path d="M39.1313 48.4747L41.8375 44.3373" stroke="#5E192E" stroke-width="1.5" stroke-miterlimit="10"/>
<path d="M48.3813 48.0935L45.3062 44.181" stroke="#5E192E" stroke-width="1.5" stroke-miterlimit="10"/>
<path d="M41.8375 44.3373L43.7687 48.2498" stroke="#5E192E" stroke-width="1.5" stroke-miterlimit="10"/>
<path d="M45.3062 44.181L43.7687 48.2498" stroke="#5E192E" stroke-width="1.5" stroke-miterlimit="10"/>
<path d="M43.7625 48.1123L44.1312 55.3623" stroke="#5E192E" stroke-width="1.5" stroke-miterlimit="10"/>
<path d="M38.9438 65.2435L38.775 60.0185C38.775 60.0185 35.125 57.7561 37.8625 56.3811C38.3188 56.1498 38.825 56.0248 39.3375 55.9936L48.7251 55.3811C49.4438 55.3311 50.1688 55.5248 50.7438 55.9623C51.6063 56.6123 52.1438 57.8123 49.4501 59.7248L49.9501 68.806L67.7127 60.6748C67.7127 60.6748 75.4377 57.9998 69.4877 64.0873C69.3439 64.231 69.1877 64.3623 69.0127 64.4748C66.9752 65.7685 52.9313 74.8872 49.4188 82.3809C49.5751 82.4434 54.6501 84.1621 57.3439 90.8434C57.4439 91.0871 57.5501 91.3308 57.6751 91.5621C59.8439 95.5933 61.7126 98.0558 62.8001 98.9558C63.1314 99.2308 63.5439 99.3745 63.9751 99.362C65.5376 99.3308 69.3752 99.5495 65.7689 102.831C61.3314 106.874 60.8314 106.587 59.1314 106.093C57.4376 105.593 55.0376 97.7621 47.9876 96.0621C47.9876 96.0621 47.4563 103.493 41 100.968C34.6313 98.4746 35.4125 100.168 35.0813 101.1C34.8 101.893 33.2187 103.862 31.1562 100.9C29.0937 97.9371 28.825 95.0808 31.5875 94.3808C34.35 93.6808 40.0375 95.7808 39.8688 89.5246L39.4 74.5247C39.4 74.5247 36.5063 72.2935 35.6063 75.3247C35.6063 75.3247 34.675 77.0184 37.5 77.7872C40.325 78.5559 36.8375 82.9434 35.4063 82.0434C33.975 81.1434 31.8 78.5934 27.225 76.5872C22.3812 74.456 38.9438 65.2435 38.9438 65.2435Z" stroke="#5E192E" stroke-width="2.2" stroke-miterlimit="10"/>
</svg>
