<?xml version="1.0" encoding="utf-8"?>
<svg width="270px" height="63px" viewBox="0 0 270 63" version="1.1" xmlns="http://www.w3.org/2000/svg">
  <g id="surface1">
    <path style=" stroke:none;fill-rule:nonzero;fill:rgb(36.862745%,10.196078%,18.039216%);fill-opacity:1;" d="M 89.199219 27.195312 L 89.199219 15.433594 C 89.199219 14.734375 89.066406 14.210938 88.800781 13.859375 C 88.464844 13.578125 87.964844 13.441406 87.300781 13.441406 L 87 13.441406 L 87 12.703125 L 95.300781 12.703125 L 95.300781 13.441406 L 95.101562 13.441406 C 94.367188 13.441406 93.867188 13.578125 93.601562 13.859375 C 93.265625 14.210938 93.101562 14.734375 93.101562 15.433594 L 93.101562 20.371094 L 98.699219 20.371094 L 98.699219 15.433594 C 98.699219 14.734375 98.566406 14.210938 98.300781 13.859375 C 98.035156 13.578125 97.535156 13.441406 96.800781 13.441406 L 96.601562 13.441406 L 96.601562 12.703125 L 104.800781 12.703125 L 104.800781 13.441406 L 104.601562 13.441406 C 103.867188 13.441406 103.367188 13.578125 103.101562 13.859375 C 102.765625 14.210938 102.601562 14.734375 102.601562 15.433594 L 102.601562 27.195312 C 102.601562 27.964844 102.765625 28.488281 103.101562 28.769531 C 103.367188 29.121094 103.867188 29.296875 104.601562 29.296875 L 104.800781 29.296875 L 104.800781 30.03125 L 96.601562 30.03125 L 96.601562 29.296875 L 96.800781 29.296875 C 97.535156 29.296875 98.035156 29.121094 98.300781 28.769531 C 98.632812 28.488281 98.800781 27.964844 98.800781 27.195312 L 98.800781 21.628906 L 93.101562 21.628906 L 93.101562 27.195312 C 93.101562 27.964844 93.265625 28.488281 93.601562 28.769531 C 93.867188 29.121094 94.367188 29.296875 95.101562 29.296875 L 95.300781 29.296875 L 95.300781 30.03125 L 87.101562 30.03125 L 87.101562 29.296875 L 87.300781 29.296875 C 87.964844 29.296875 88.464844 29.121094 88.800781 28.769531 C 89.066406 28.488281 89.199219 27.964844 89.199219 27.195312 Z M 89.199219 27.195312 "/>
    <path style=" stroke:none;fill-rule:evenodd;fill:rgb(36.862745%,10.196078%,18.039216%);fill-opacity:1;" d="M 107.5 27.195312 L 113.300781 12.285156 L 113.898438 12.285156 L 120 27.195312 C 120.265625 27.964844 120.566406 28.488281 120.898438 28.769531 C 121.167969 29.121094 121.5 29.296875 121.898438 29.296875 L 122 29.296875 L 122 30.03125 L 114.199219 30.03125 L 114.199219 29.296875 L 114.398438 29.296875 C 115.132812 29.296875 115.601562 29.121094 115.800781 28.769531 C 116.066406 28.421875 116.066406 27.894531 115.800781 27.195312 L 114.898438 24.988281 L 109.601562 24.988281 L 108.699219 27.195312 C 108.5 27.824219 108.5 28.316406 108.699219 28.664062 C 108.964844 28.945312 109.5 29.121094 110.300781 29.191406 L 110.601562 29.191406 L 110.601562 29.925781 L 105.601562 29.925781 L 105.601562 29.191406 L 105.699219 29.191406 C 106.101562 29.191406 106.433594 29.050781 106.699219 28.769531 C 106.964844 28.421875 107.234375 27.894531 107.5 27.195312 Z M 110 23.835938 L 114.398438 23.835938 L 112.101562 17.953125 C 112.101562 17.953125 110 23.835938 110 23.835938 Z M 110 23.835938 "/>
    <path style=" stroke:none;fill-rule:nonzero;fill:rgb(36.862745%,10.196078%,18.039216%);fill-opacity:1;" d="M 122.699219 29.714844 L 132 13.648438 L 129.199219 13.648438 C 127.867188 13.648438 126.800781 14 126 14.699219 C 125.199219 15.46875 124.667969 16.554688 124.398438 17.953125 L 123.601562 17.953125 L 123.800781 15.328125 L 124.101562 12.703125 L 136.800781 12.703125 L 136.800781 13.019531 L 127.5 28.980469 L 131.101562 28.980469 C 132.765625 28.980469 133.964844 28.628906 134.699219 27.929688 C 135.433594 27.230469 136.101562 25.828125 136.699219 23.730469 L 137.300781 23.730469 L 137 26.878906 L 136.699219 30.03125 L 122.699219 30.03125 Z M 122.699219 29.714844 "/>
    <path style=" stroke:none;fill-rule:evenodd;fill:rgb(36.862745%,10.196078%,18.039216%);fill-opacity:1;" d="M 140.398438 27.195312 L 146.300781 12.285156 L 146.898438 12.285156 L 152.898438 27.195312 C 153.234375 27.964844 153.535156 28.488281 153.800781 28.769531 C 154.066406 29.121094 154.398438 29.296875 154.800781 29.296875 L 155 29.296875 L 155 30.03125 L 147.101562 30.03125 L 147.101562 29.296875 L 147.398438 29.296875 C 148.066406 29.296875 148.535156 29.121094 148.800781 28.769531 C 149 28.421875 148.964844 27.894531 148.699219 27.195312 L 147.800781 24.988281 L 142.5 24.988281 L 141.699219 27.195312 C 141.433594 27.824219 141.433594 28.316406 141.699219 28.664062 C 141.964844 28.945312 142.5 29.121094 143.300781 29.191406 L 143.5 29.191406 L 143.5 29.925781 L 138.5 29.925781 L 138.5 29.191406 L 138.699219 29.191406 C 139.035156 29.191406 139.332031 29.050781 139.601562 28.769531 C 139.867188 28.421875 140.132812 27.894531 140.398438 27.195312 Z M 147.398438 23.835938 L 145.101562 17.953125 L 143 23.835938 Z M 147.398438 23.835938 "/>
    <path style=" stroke:none;fill-rule:nonzero;fill:rgb(36.862745%,10.196078%,18.039216%);fill-opacity:1;" d="M 158.800781 26.566406 C 158.800781 27.476562 158.964844 28.140625 159.300781 28.558594 C 159.566406 28.980469 160.066406 29.226562 160.800781 29.296875 L 161 29.296875 L 161 30.03125 L 155.601562 30.03125 L 155.601562 29.296875 L 155.898438 29.296875 C 156.566406 29.226562 157.066406 28.980469 157.398438 28.558594 C 157.667969 28.140625 157.800781 27.476562 157.800781 26.566406 L 157.800781 15.226562 C 157.265625 14.59375 156.832031 14.140625 156.5 13.859375 C 156.167969 13.578125 155.867188 13.441406 155.601562 13.441406 L 155.5 13.441406 L 155.5 12.703125 L 160.699219 12.703125 L 169.101562 23.625 L 169.101562 16.066406 C 169.101562 15.15625 168.964844 14.488281 168.699219 14.070312 C 168.433594 13.71875 167.933594 13.511719 167.199219 13.441406 L 166.898438 13.441406 L 166.898438 12.703125 L 172.300781 12.703125 L 172.300781 13.441406 L 172.101562 13.441406 C 171.367188 13.511719 170.867188 13.71875 170.601562 14.070312 C 170.265625 14.488281 170.101562 15.15625 170.101562 16.066406 L 170.101562 30.34375 L 169.5 30.34375 L 158.800781 16.484375 Z M 158.800781 26.566406 "/>
    <path style=" stroke:none;fill-rule:nonzero;fill:rgb(36.862745%,10.196078%,18.039216%);fill-opacity:1;" d="M 188.398438 26.671875 C 187.535156 27.929688 186.535156 28.839844 185.398438 29.398438 C 184.265625 30.03125 183 30.34375 181.601562 30.34375 C 179.199219 30.34375 177.199219 29.46875 175.601562 27.71875 C 174 26.039062 173.199219 23.90625 173.199219 21.316406 C 173.199219 18.726562 174 16.589844 175.601562 14.910156 C 177.199219 13.230469 179.199219 12.390625 181.601562 12.390625 C 183.132812 12.390625 184.5 12.703125 185.699219 13.335938 C 186.101562 13.546875 186.433594 13.578125 186.699219 13.441406 C 187.035156 13.300781 187.234375 13.019531 187.300781 12.601562 L 187.398438 12.390625 L 188.101562 12.390625 L 188.101562 18.585938 L 187.398438 18.585938 C 186.933594 16.976562 186.234375 15.714844 185.300781 14.804688 C 184.300781 13.894531 183.199219 13.441406 182 13.441406 C 180.535156 13.441406 179.398438 14.105469 178.601562 15.433594 C 177.734375 16.835938 177.300781 18.761719 177.300781 21.210938 C 177.300781 23.660156 177.734375 25.550781 178.601562 26.878906 C 179.398438 28.28125 180.535156 28.980469 182 28.980469 C 183.066406 28.980469 184.066406 28.734375 185 28.246094 C 185.867188 27.753906 186.765625 27.019531 187.699219 26.039062 Z M 188.398438 26.671875 "/>
    <path style=" stroke:none;fill-rule:nonzero;fill:rgb(36.862745%,10.196078%,18.039216%);fill-opacity:1;" d="M 192 27.195312 L 192 15.433594 C 192 14.734375 191.867188 14.210938 191.601562 13.859375 C 191.265625 13.578125 190.765625 13.441406 190.101562 13.441406 L 189.800781 13.441406 L 189.800781 12.703125 L 198.101562 12.703125 L 198.101562 13.441406 L 197.898438 13.441406 C 197.167969 13.441406 196.667969 13.578125 196.398438 13.859375 C 196.066406 14.210938 195.898438 14.734375 195.898438 15.433594 L 195.898438 20.371094 L 201.601562 20.371094 L 201.601562 15.433594 C 201.535156 14.734375 201.367188 14.210938 201.101562 13.859375 C 200.832031 13.578125 200.332031 13.441406 199.601562 13.441406 L 199.398438 13.441406 L 199.398438 12.703125 L 207.601562 12.703125 L 207.601562 13.441406 L 207.398438 13.441406 C 206.667969 13.441406 206.167969 13.578125 205.898438 13.859375 C 205.632812 14.210938 205.5 14.734375 205.5 15.433594 L 205.5 27.195312 C 205.5 27.964844 205.632812 28.488281 205.898438 28.769531 C 206.167969 29.121094 206.667969 29.296875 207.398438 29.296875 L 207.601562 29.296875 L 207.601562 30.03125 L 199.398438 30.03125 L 199.398438 29.296875 L 199.601562 29.296875 C 200.332031 29.296875 200.832031 29.121094 201.101562 28.769531 C 201.433594 28.488281 201.601562 27.964844 201.601562 27.195312 L 201.601562 21.628906 L 195.898438 21.628906 L 195.898438 27.195312 C 195.898438 27.964844 196.066406 28.488281 196.398438 28.769531 C 196.667969 29.121094 197.167969 29.296875 197.898438 29.296875 L 198.101562 29.296875 L 198.101562 30.03125 L 189.898438 30.03125 L 189.898438 29.296875 L 190.101562 29.296875 C 190.832031 29.296875 191.332031 29.121094 191.601562 28.769531 C 191.867188 28.488281 192 27.964844 192 27.195312 Z M 192 27.195312 "/>
    <path style=" stroke:none;fill-rule:nonzero;fill:rgb(36.862745%,10.196078%,18.039216%);fill-opacity:1;" d="M 106.199219 38.953125 C 106.199219 38.464844 106.101562 38.148438 105.898438 38.011719 C 105.765625 37.800781 105.464844 37.695312 105 37.695312 L 104.898438 37.695312 L 104.898438 37.273438 L 109.800781 37.273438 L 109.800781 37.695312 L 109.699219 37.695312 C 109.300781 37.695312 109 37.800781 108.800781 38.011719 C 108.601562 38.148438 108.5 38.464844 108.5 38.953125 L 108.5 44.308594 C 108.5 45.429688 108.234375 46.304688 107.699219 46.933594 C 107.167969 47.566406 106.433594 47.878906 105.5 47.878906 C 104.765625 47.878906 104.167969 47.703125 103.699219 47.355469 C 103.234375 46.933594 103 46.445312 103 45.886719 C 103 45.535156 103.101562 45.253906 103.300781 45.046875 C 103.5 44.835938 103.734375 44.730469 104 44.730469 C 104.332031 44.730469 104.601562 44.835938 104.800781 45.046875 C 105 45.253906 105.101562 45.5 105.101562 45.78125 C 105.101562 45.988281 105.035156 46.164062 104.898438 46.304688 C 104.765625 46.585938 104.699219 46.796875 104.699219 46.933594 C 104.699219 47.074219 104.800781 47.179688 105 47.25 C 105.132812 47.320312 105.234375 47.355469 105.300781 47.355469 C 105.632812 47.355469 105.867188 47.25 106 47.039062 C 106.132812 46.828125 106.199219 46.585938 106.199219 46.304688 Z M 106.199219 38.953125 "/>
    <path style=" stroke:none;fill-rule:nonzero;fill:rgb(36.862745%,10.196078%,18.039216%);fill-opacity:1;" d="M 110.199219 47.671875 L 110.199219 47.25 L 110.398438 47.25 C 110.800781 47.25 111.101562 47.144531 111.300781 46.933594 C 111.433594 46.726562 111.5 46.410156 111.5 45.988281 L 111.5 38.953125 C 111.5 38.464844 111.433594 38.148438 111.300781 38.011719 C 111.101562 37.800781 110.765625 37.695312 110.300781 37.695312 L 110.199219 37.695312 L 110.199219 37.273438 L 118.601562 37.273438 L 118.601562 40.425781 L 118.199219 40.425781 C 118 39.375 117.667969 38.710938 117.199219 38.429688 C 116.800781 38.078125 116 37.90625 114.800781 37.90625 L 114.699219 37.90625 C 114.367188 37.90625 114.132812 37.976562 114 38.113281 C 113.933594 38.183594 113.898438 38.394531 113.898438 38.746094 L 113.898438 42 L 114 42 C 114.734375 42 115.234375 41.859375 115.5 41.578125 C 115.765625 41.300781 116 40.703125 116.199219 39.796875 L 116.601562 39.796875 L 116.601562 44.941406 L 116.199219 44.941406 C 116 44.03125 115.765625 43.433594 115.5 43.15625 C 115.234375 42.804688 114.734375 42.628906 114 42.628906 L 113.898438 42.628906 L 113.898438 45.988281 C 113.898438 46.410156 113.964844 46.691406 114.101562 46.828125 C 114.234375 46.96875 114.5 47.039062 114.898438 47.039062 C 115.964844 47.039062 116.765625 46.863281 117.300781 46.515625 C 117.832031 46.164062 118.367188 45.464844 118.898438 44.414062 L 119.300781 44.519531 L 119 46.09375 L 118.601562 47.671875 Z M 110.199219 47.671875 "/>
    <path style=" stroke:none;fill-rule:nonzero;fill:rgb(36.862745%,10.196078%,18.039216%);fill-opacity:1;" d="M 123.800781 47.878906 L 120.800781 38.953125 C 120.667969 38.464844 120.535156 38.148438 120.398438 38.011719 C 120.199219 37.800781 120 37.695312 119.800781 37.695312 L 119.699219 37.695312 L 119.699219 37.273438 L 124 37.273438 L 124 37.695312 L 123.898438 37.695312 C 123.5 37.695312 123.234375 37.800781 123.101562 38.011719 C 123.035156 38.21875 123.066406 38.535156 123.199219 38.953125 L 124.800781 44.203125 L 126.601562 39.480469 L 126.398438 38.953125 C 126.265625 38.464844 126.101562 38.148438 125.898438 38.011719 C 125.699219 37.800781 125.464844 37.695312 125.199219 37.695312 L 125.101562 37.695312 L 125.101562 37.273438 L 129.5 37.273438 L 129.5 37.695312 L 129.398438 37.695312 C 129 37.695312 128.734375 37.800781 128.601562 38.011719 C 128.464844 38.21875 128.464844 38.535156 128.601562 38.953125 L 130.300781 44.203125 L 131.800781 39.585938 C 132 38.886719 132.035156 38.429688 131.898438 38.21875 C 131.832031 37.941406 131.601562 37.765625 131.199219 37.695312 L 131 37.695312 L 131 37.273438 L 133.699219 37.273438 L 133.699219 37.695312 L 133.601562 37.695312 C 133.332031 37.765625 133.132812 37.871094 133 38.011719 C 132.867188 38.21875 132.734375 38.535156 132.601562 38.953125 L 129.699219 47.878906 L 129.300781 47.878906 L 126.898438 40.53125 L 124.199219 47.878906 Z M 123.800781 47.878906 "/>
    <path style=" stroke:none;fill-rule:nonzero;fill:rgb(36.862745%,10.196078%,18.039216%);fill-opacity:1;" d="M 134 47.671875 L 134 47.25 L 134.199219 47.25 C 134.601562 47.25 134.898438 47.144531 135.101562 46.933594 C 135.234375 46.726562 135.300781 46.410156 135.300781 45.988281 L 135.300781 38.953125 C 135.300781 38.464844 135.234375 38.148438 135.101562 38.011719 C 134.898438 37.800781 134.601562 37.695312 134.199219 37.695312 L 134 37.695312 L 134 37.273438 L 142.398438 37.273438 L 142.398438 40.425781 L 142 40.425781 C 141.800781 39.375 141.464844 38.710938 141 38.429688 C 140.601562 38.078125 139.800781 37.90625 138.601562 37.90625 L 138.5 37.90625 C 138.167969 37.90625 137.933594 37.976562 137.800781 38.113281 C 137.734375 38.183594 137.699219 38.394531 137.699219 38.746094 L 137.699219 42 L 137.800781 42 C 138.535156 42 139.035156 41.859375 139.300781 41.578125 C 139.566406 41.300781 139.800781 40.703125 140 39.796875 L 140.398438 39.796875 L 140.398438 44.941406 L 140 44.941406 C 139.800781 44.03125 139.566406 43.433594 139.300781 43.15625 C 139.035156 42.804688 138.535156 42.628906 137.800781 42.628906 L 137.699219 42.628906 L 137.699219 45.988281 C 137.699219 46.410156 137.765625 46.691406 137.898438 46.828125 C 138.035156 46.96875 138.300781 47.039062 138.699219 47.039062 C 139.765625 47.039062 140.566406 46.863281 141.101562 46.515625 C 141.632812 46.164062 142.167969 45.464844 142.699219 44.414062 L 143.101562 44.519531 L 142.800781 46.09375 L 142.398438 47.671875 Z M 134 47.671875 "/>
    <path style=" stroke:none;fill-rule:nonzero;fill:rgb(36.862745%,10.196078%,18.039216%);fill-opacity:1;" d="M 143.699219 47.671875 L 143.699219 47.25 L 143.800781 47.25 C 144.199219 47.25 144.5 47.144531 144.699219 46.933594 C 144.898438 46.726562 145 46.410156 145 45.988281 L 145 38.953125 C 145 38.464844 144.898438 38.148438 144.699219 38.011719 C 144.5 37.800781 144.199219 37.695312 143.800781 37.695312 L 143.699219 37.695312 L 143.699219 37.273438 L 148.601562 37.273438 L 148.601562 37.695312 L 148.5 37.695312 C 148.101562 37.695312 147.800781 37.800781 147.601562 38.011719 C 147.398438 38.148438 147.300781 38.464844 147.300781 38.953125 L 147.300781 46.199219 C 147.300781 46.550781 147.367188 46.796875 147.5 46.933594 C 147.566406 47.003906 147.765625 47.039062 148.101562 47.039062 C 149.300781 47.039062 150.167969 46.828125 150.699219 46.410156 C 151.234375 45.988281 151.734375 45.183594 152.199219 43.996094 L 152.601562 44.101562 L 152.300781 45.886719 L 151.898438 47.671875 Z M 143.699219 47.671875 "/>
    <path style=" stroke:none;fill-rule:nonzero;fill:rgb(36.862745%,10.196078%,18.039216%);fill-opacity:1;" d="M 153.199219 47.671875 L 153.199219 47.25 L 153.300781 47.25 C 153.765625 47.25 154.066406 47.144531 154.199219 46.933594 C 154.398438 46.726562 154.5 46.410156 154.5 45.988281 L 154.5 38.953125 C 154.5 38.464844 154.398438 38.148438 154.199219 38.011719 C 154.066406 37.800781 153.765625 37.695312 153.300781 37.695312 L 153.199219 37.695312 L 153.199219 37.273438 L 158.199219 37.273438 L 158.199219 37.695312 L 158 37.695312 C 157.601562 37.695312 157.300781 37.800781 157.101562 38.011719 C 156.898438 38.148438 156.832031 38.464844 156.898438 38.953125 L 156.898438 46.199219 C 156.832031 46.550781 156.867188 46.796875 157 46.933594 C 157.132812 47.003906 157.332031 47.039062 157.601562 47.039062 L 157.699219 47.039062 C 158.832031 47.039062 159.699219 46.828125 160.300781 46.410156 C 160.832031 45.988281 161.332031 45.183594 161.800781 43.996094 L 162.101562 44.101562 L 161.800781 45.886719 L 161.398438 47.671875 Z M 153.199219 47.671875 "/>
    <path style=" stroke:none;fill-rule:nonzero;fill:rgb(36.862745%,10.196078%,18.039216%);fill-opacity:1;" d="M 162.601562 47.671875 L 162.601562 47.25 L 162.800781 47.25 C 163.199219 47.25 163.5 47.144531 163.699219 46.933594 C 163.832031 46.726562 163.898438 46.410156 163.898438 45.988281 L 163.898438 38.953125 C 163.898438 38.464844 163.832031 38.148438 163.699219 38.011719 C 163.5 37.800781 163.167969 37.695312 162.699219 37.695312 L 162.601562 37.695312 L 162.601562 37.273438 L 171 37.273438 L 171 40.425781 L 170.601562 40.425781 C 170.398438 39.375 170.066406 38.710938 169.601562 38.429688 C 169.132812 38.078125 168.332031 37.90625 167.199219 37.90625 L 167.101562 37.90625 C 166.765625 37.90625 166.535156 37.976562 166.398438 38.113281 C 166.332031 38.183594 166.300781 38.394531 166.300781 38.746094 L 166.300781 42 L 166.398438 42 C 167.132812 42 167.632812 41.859375 167.898438 41.578125 C 168.167969 41.300781 168.398438 40.703125 168.601562 39.796875 L 169 39.796875 L 169 44.941406 L 168.601562 44.941406 C 168.398438 44.03125 168.167969 43.433594 167.898438 43.15625 C 167.632812 42.804688 167.132812 42.628906 166.398438 42.628906 L 166.300781 42.628906 L 166.300781 45.988281 C 166.300781 46.410156 166.367188 46.691406 166.5 46.828125 C 166.632812 46.96875 166.898438 47.039062 167.300781 47.039062 C 168.367188 47.039062 169.167969 46.863281 169.699219 46.515625 C 170.234375 46.164062 170.765625 45.464844 171.300781 44.414062 L 171.601562 44.519531 L 171.300781 46.09375 L 171 47.671875 Z M 162.601562 47.671875 "/>
    <path style=" stroke:none;fill-rule:evenodd;fill:rgb(36.862745%,10.196078%,18.039216%);fill-opacity:1;" d="M 173.5 45.988281 L 173.5 38.953125 C 173.5 38.464844 173.398438 38.148438 173.199219 38.011719 C 173 37.800781 172.699219 37.695312 172.300781 37.695312 L 172.101562 37.695312 L 172.101562 37.273438 L 176.800781 37.273438 C 178.199219 37.273438 179.234375 37.484375 179.898438 37.90625 C 180.566406 38.394531 180.898438 39.128906 180.898438 40.109375 C 180.898438 41.054688 180.5 41.683594 179.699219 42.210938 C 179.433594 42.351562 179.101562 42.488281 178.699219 42.628906 L 180.800781 45.988281 C 181.066406 46.410156 181.300781 46.726562 181.5 46.933594 C 181.699219 47.144531 181.933594 47.25 182.199219 47.25 L 182.199219 47.671875 L 179.300781 47.671875 L 176.101562 42.839844 L 175.800781 42.839844 L 175.800781 45.988281 C 175.800781 46.410156 175.898438 46.726562 176.101562 46.933594 C 176.300781 47.144531 176.601562 47.25 177 47.25 L 177.101562 47.25 L 177.101562 47.671875 L 172.199219 47.671875 L 172.199219 47.25 L 172.300781 47.25 C 172.699219 47.25 173 47.144531 173.199219 46.933594 C 173.398438 46.726562 173.5 46.410156 173.5 45.988281 Z M 176.300781 42.316406 C 177.035156 42.316406 177.566406 42.140625 177.898438 41.789062 C 178.167969 41.441406 178.332031 40.84375 178.398438 40.003906 C 178.398438 39.304688 178.234375 38.78125 177.898438 38.429688 C 177.632812 38.078125 177.199219 37.90625 176.601562 37.90625 C 176.265625 37.90625 176.066406 37.941406 176 38.011719 C 175.867188 38.148438 175.800781 38.394531 175.800781 38.746094 L 175.800781 42.316406 Z M 176.300781 42.316406 "/>
    <path style=" stroke:none;fill-rule:nonzero;fill:rgb(36.862745%,10.196078%,18.039216%);fill-opacity:1;" d="M 189 40.425781 C 188.867188 39.65625 188.535156 38.988281 188 38.429688 C 187.464844 37.941406 186.867188 37.695312 186.199219 37.695312 C 185.667969 37.695312 185.265625 37.800781 185 38.011719 C 184.734375 38.289062 184.601562 38.640625 184.601562 39.058594 C 184.601562 39.480469 184.765625 39.863281 185.101562 40.214844 C 185.433594 40.496094 186 40.808594 186.800781 41.160156 C 187.800781 41.578125 188.535156 42.070312 189 42.628906 C 189.535156 43.261719 189.800781 43.925781 189.800781 44.625 C 189.800781 45.605469 189.5 46.375 188.898438 46.933594 C 188.234375 47.566406 187.398438 47.878906 186.398438 47.878906 C 185.535156 47.878906 184.765625 47.738281 184.101562 47.460938 C 183.964844 47.390625 183.800781 47.390625 183.601562 47.460938 C 183.464844 47.53125 183.367188 47.671875 183.300781 47.878906 L 183.300781 47.984375 L 182.898438 47.984375 L 182.898438 43.996094 L 183.300781 43.996094 C 183.433594 44.976562 183.765625 45.78125 184.300781 46.410156 C 184.898438 46.96875 185.601562 47.25 186.398438 47.25 C 186.867188 47.25 187.265625 47.109375 187.601562 46.828125 C 187.933594 46.550781 188.101562 46.164062 188.101562 45.675781 C 188.101562 45.253906 187.933594 44.871094 187.601562 44.519531 C 187.199219 44.171875 186.632812 43.855469 185.898438 43.574219 C 184.964844 43.15625 184.265625 42.664062 183.800781 42.105469 C 183.265625 41.546875 183 40.914062 183 40.214844 C 183 39.234375 183.300781 38.464844 183.898438 37.90625 C 184.5 37.34375 185.265625 37.066406 186.199219 37.066406 C 186.800781 37.066406 187.398438 37.203125 188 37.484375 C 188.265625 37.554688 188.464844 37.554688 188.601562 37.484375 C 188.734375 37.484375 188.867188 37.378906 189 37.171875 L 189 37.066406 L 189.398438 37.066406 L 189.398438 40.53125 L 189 40.53125 Z M 189 40.425781 "/>
    <path style=" stroke:none;fill-rule:nonzero;fill:rgb(36.862745%,10.196078%,18.039216%);fill-opacity:1;" d="M 57.398438 39.691406 L 57.398438 20.371094 C 57.398438 17.640625 57.132812 15.890625 56.601562 15.121094 C 56.132812 14.351562 54.933594 13.929688 53 13.859375 L 53 12.601562 L 66.898438 12.601562 L 66.898438 13.859375 C 64.964844 13.929688 63.765625 14.246094 63.300781 14.804688 C 62.765625 15.363281 62.5 16.589844 62.5 18.480469 L 62.5 29.085938 C 64.367188 27.476562 66.300781 25.65625 68.300781 23.625 C 69.964844 21.945312 71.464844 20.371094 72.800781 18.898438 C 74.398438 17.21875 75.101562 15.996094 74.898438 15.226562 C 74.699219 14.386719 73.601562 13.929688 71.601562 13.859375 L 71.601562 12.601562 L 84.199219 12.601562 L 84.199219 13.859375 C 82.398438 14.140625 81.035156 14.558594 80.101562 15.121094 C 79.234375 15.609375 78.035156 16.730469 76.5 18.480469 C 74.632812 20.578125 72.5 22.820312 70.101562 25.199219 L 67.601562 27.71875 L 80.300781 42.421875 C 81.699219 43.960938 82.734375 44.941406 83.398438 45.359375 C 84.066406 45.78125 85 46.023438 86.199219 46.09375 L 86.199219 47.355469 L 71.699219 47.355469 L 71.699219 46.09375 C 73.433594 46.09375 74.433594 45.816406 74.699219 45.253906 C 74.964844 44.695312 74.5 43.75 73.300781 42.421875 L 63.800781 31.183594 L 62.5 32.339844 L 62.5 41.476562 C 62.5 43.363281 62.765625 44.589844 63.300781 45.148438 C 63.765625 45.710938 64.964844 46.023438 66.898438 46.09375 L 66.898438 47.355469 L 53 47.355469 L 53 46.09375 C 54.933594 46.023438 56.132812 45.605469 56.601562 44.835938 C 57.132812 44.066406 57.398438 42.316406 57.398438 39.585938 Z M 57.398438 39.691406 "/>
    <path style=" stroke:none;fill-rule:nonzero;fill:rgb(36.862745%,10.196078%,18.039216%);fill-opacity:1;" d="M 220.199219 39.691406 L 220.199219 20.371094 C 220.199219 17.640625 219.933594 15.890625 219.398438 15.121094 C 218.800781 14.351562 217.464844 13.929688 215.398438 13.859375 L 215.398438 12.601562 L 230.601562 12.601562 L 230.601562 13.859375 C 228.535156 13.929688 227.234375 14.351562 226.699219 15.121094 C 226.101562 15.890625 225.800781 17.640625 225.800781 20.371094 L 225.800781 39.691406 C 225.800781 42.351562 226.101562 44.066406 226.699219 44.835938 C 227.234375 45.605469 228.535156 46.058594 230.601562 46.199219 L 230.601562 47.460938 L 215.398438 47.460938 L 215.398438 46.199219 C 217.464844 46.058594 218.800781 45.605469 219.398438 44.835938 C 219.933594 44.066406 220.199219 42.351562 220.199219 39.691406 Z M 220.199219 39.691406 "/>
    <path style="fill:none;stroke-width:0.9;stroke-linecap:butt;stroke-linejoin:miter;stroke:rgb(36.862745%,10.196078%,18.039216%);stroke-opacity:1;stroke-miterlimit:10;" d="M 28.5 47.098214 C 25.699219 49.501488 22.5 50.900298 19 50.900298 C 9.101562 50.900298 1 39.598214 1 25.699405 C 1 11.700149 9.101562 0.401786 19 0.401786 C 26.300781 0.401786 32.601562 6.599702 35.398438 15.401786 " transform="matrix(1,0,0,1.05,1,0)"/>
    <path style="fill:none;stroke-width:0.9;stroke-linecap:butt;stroke-linejoin:miter;stroke:rgb(36.862745%,10.196078%,18.039216%);stroke-opacity:1;stroke-miterlimit:10;" d="M 36.199219 18.199405 C 36.734375 20.531994 37 23.031994 37 25.699405 C 37 32.299107 35.199219 38.400298 32.199219 42.901786 " transform="matrix(1,0,0,1.05,1,0)"/>
    <path style="fill:none;stroke-width:0.8;stroke-linecap:butt;stroke-linejoin:miter;stroke:rgb(36.862745%,10.196078%,18.039216%);stroke-opacity:1;stroke-miterlimit:10;" d="M 14.898438 18.701637 L 14.800781 15 C 14.800781 15 12.199219 13.400298 14.199219 12.399554 C 14.535156 12.265625 14.867188 12.165179 15.199219 12.098214 L 21.898438 11.700149 C 22.398438 11.599702 22.898438 11.800595 23.300781 12.098214 C 23.898438 12.600446 24.300781 13.400298 22.398438 14.799107 L 22.699219 21.201637 L 35.300781 15.401786 C 35.300781 15.401786 40.800781 13.500744 36.601562 17.901786 C 36.464844 17.96503 36.332031 18.065476 36.199219 18.199405 C 34.800781 19.099702 24.800781 25.598958 22.398438 30.900298 C 22.5 31.000744 26.101562 32.198661 28 36.901042 C 28.066406 37.098214 28.132812 37.299107 28.199219 37.5 C 29.699219 40.301339 31.101562 42.098214 31.800781 42.700893 C 32.101562 42.901786 32.398438 42.998512 32.699219 42.998512 C 33.800781 42.998512 36.5 43.098958 33.898438 45.498512 C 30.800781 48.400298 30.398438 48.199405 29.199219 47.801339 C 28 47.5 26.300781 41.901042 21.300781 40.699405 C 21.300781 40.699405 21 46.000744 16.398438 44.200149 C 11.898438 42.399554 12.398438 43.60119 12.199219 44.300595 C 12 44.799107 10.898438 46.201637 9.398438 44.099702 C 8 42.001488 7.800781 40 9.699219 39.501488 C 11.699219 38.999256 15.699219 40.498512 15.601562 36.000744 L 15.300781 25.301339 C 15.300781 25.301339 13.199219 23.701637 12.601562 25.900298 C 12.601562 25.900298 11.898438 27.098214 13.898438 27.700893 C 15.898438 28.199405 13.398438 31.298363 12.398438 30.699405 C 11.398438 30.100446 9.898438 28.199405 6.601562 26.800595 C 3.199219 25.301339 14.898438 18.701637 14.898438 18.701637 Z M 14.898438 18.701637 " transform="matrix(1,0,0,1.05,1,0)"/>
    <path style=" stroke:none;fill-rule:evenodd;fill:rgb(36.862745%,10.196078%,18.039216%);fill-opacity:1;" d="M 19.601562 12.601562 L 13.199219 7.140625 L 25.5 6.613281 Z M 14.601562 7.558594 L 19.5 11.761719 L 24.101562 7.140625 Z M 14.601562 7.558594 "/>
    <path style="fill:none;stroke-width:0.5;stroke-linecap:butt;stroke-linejoin:miter;stroke:rgb(36.862745%,10.196078%,18.039216%);stroke-opacity:1;stroke-miterlimit:10;" d="M 12.398438 6.901042 L 15.101562 3.89881 L 21.300781 3.60119 L 24.300781 6.39881 " transform="matrix(1,0,0,1.05,1,0)"/>
    <path style="fill:none;stroke-width:0.5;stroke-linecap:butt;stroke-linejoin:miter;stroke:rgb(36.862745%,10.196078%,18.039216%);stroke-opacity:1;stroke-miterlimit:10;" d="M 18.601562 11.700149 L 15.101562 6.901042 " transform="matrix(1,0,0,1.05,1,0)"/>
    <path style="fill:none;stroke-width:0.5;stroke-linecap:butt;stroke-linejoin:miter;stroke:rgb(36.862745%,10.196078%,18.039216%);stroke-opacity:1;stroke-miterlimit:10;" d="M 21.5 6.599702 L 18.601562 11.700149 " transform="matrix(1,0,0,1.05,1,0)"/>
    <path style="fill:none;stroke-width:0.5;stroke-linecap:butt;stroke-linejoin:miter;stroke:rgb(36.862745%,10.196078%,18.039216%);stroke-opacity:1;stroke-miterlimit:10;" d="M 15 6.700149 L 15.101562 3.89881 " transform="matrix(1,0,0,1.05,1,0)"/>
    <path style="fill:none;stroke-width:0.5;stroke-linecap:butt;stroke-linejoin:miter;stroke:rgb(36.862745%,10.196078%,18.039216%);stroke-opacity:1;stroke-miterlimit:10;" d="M 21.601562 6.499256 L 21.300781 3.60119 " transform="matrix(1,0,0,1.05,1,0)"/>
    <path style="fill:none;stroke-width:0.5;stroke-linecap:butt;stroke-linejoin:miter;stroke:rgb(36.862745%,10.196078%,18.039216%);stroke-opacity:1;stroke-miterlimit:10;" d="M 15.101562 6.800595 L 17 3.798363 " transform="matrix(1,0,0,1.05,1,0)"/>
    <path style="fill:none;stroke-width:0.5;stroke-linecap:butt;stroke-linejoin:miter;stroke:rgb(36.862745%,10.196078%,18.039216%);stroke-opacity:1;stroke-miterlimit:10;" d="M 21.601562 6.499256 L 19.398438 3.701637 " transform="matrix(1,0,0,1.05,1,0)"/>
    <path style="fill:none;stroke-width:0.5;stroke-linecap:butt;stroke-linejoin:miter;stroke:rgb(36.862745%,10.196078%,18.039216%);stroke-opacity:1;stroke-miterlimit:10;" d="M 17 3.798363 L 18.300781 6.599702 " transform="matrix(1,0,0,1.05,1,0)"/>
    <path style="fill:none;stroke-width:0.5;stroke-linecap:butt;stroke-linejoin:miter;stroke:rgb(36.862745%,10.196078%,18.039216%);stroke-opacity:1;stroke-miterlimit:10;" d="M 19.398438 3.701637 L 18.300781 6.599702 " transform="matrix(1,0,0,1.05,1,0)"/>
    <path style="fill:none;stroke-width:0.5;stroke-linecap:butt;stroke-linejoin:miter;stroke:rgb(36.862745%,10.196078%,18.039216%);stroke-opacity:1;stroke-miterlimit:10;" d="M 18.300781 6.499256 L 18.601562 11.700149 " transform="matrix(1,0,0,1.05,1,0)"/>
    <path style=" stroke:none;fill-rule:nonzero;fill:rgb(36.862745%,10.196078%,18.039216%);fill-opacity:1;" d="M 7.898438 58.800781 C 7.699219 58.589844 7.398438 58.378906 7 58.378906 C 6.601562 58.378906 6.101562 58.695312 6.101562 59.21875 C 6.101562 59.640625 6.300781 59.851562 7 60.164062 C 7.699219 60.375 8.398438 60.585938 8.398438 61.53125 C 8.398438 62.578125 7.601562 63 6.800781 63 C 6.300781 63 5.699219 62.789062 5.398438 62.265625 L 5.800781 61.949219 C 6 62.265625 6.398438 62.476562 6.800781 62.476562 C 7.300781 62.476562 7.800781 62.160156 7.800781 61.636719 C 7.800781 61.003906 7.398438 60.898438 6.601562 60.585938 C 6 60.375 5.5 60.058594 5.5 59.21875 C 5.5 58.273438 6.199219 57.855469 7 57.855469 C 7.601562 57.855469 8 57.960938 8.300781 58.378906 Z M 7.898438 58.800781 "/>
    <path style=" stroke:none;fill-rule:nonzero;fill:rgb(36.862745%,10.196078%,18.039216%);fill-opacity:1;" d="M 9.5 57.960938 C 9.699219 57.960938 9.898438 58.171875 9.898438 58.378906 C 9.898438 58.589844 9.800781 58.800781 9.5 58.800781 C 9.300781 58.800781 9.199219 58.589844 9.199219 58.378906 C 9.199219 58.171875 9.300781 57.960938 9.5 57.960938 Z M 9.300781 59.640625 L 9.800781 59.640625 L 9.800781 62.894531 L 9.300781 62.894531 Z M 9.300781 59.640625 "/>
    <path style=" stroke:none;fill-rule:nonzero;fill:rgb(36.862745%,10.196078%,18.039216%);fill-opacity:1;" d="M 10.800781 60.375 C 10.800781 60.09375 10.800781 59.851562 10.800781 59.640625 L 11.300781 59.640625 C 11.300781 59.78125 11.300781 59.953125 11.300781 60.164062 C 11.398438 59.851562 11.800781 59.535156 12.300781 59.535156 C 13.101562 59.535156 13.5 60.058594 13.5 60.898438 L 13.5 62.894531 L 13 62.894531 L 13 60.898438 C 13 60.375 12.699219 60.058594 12.300781 60.058594 C 11.601562 60.058594 11.300781 60.585938 11.300781 61.320312 L 11.300781 62.894531 L 10.800781 62.894531 Z M 10.800781 60.375 "/>
    <path style=" stroke:none;fill-rule:nonzero;fill:rgb(36.862745%,10.196078%,18.039216%);fill-opacity:1;" d="M 16.601562 60.480469 C 16.398438 60.164062 16.199219 60.058594 15.800781 60.058594 C 15.101562 60.058594 14.800781 60.585938 14.800781 61.214844 C 14.800781 61.949219 15.199219 62.476562 15.800781 62.476562 C 16.132812 62.476562 16.398438 62.335938 16.601562 62.054688 L 17 62.476562 C 16.699219 62.789062 16.300781 63 15.800781 63 C 14.898438 63 14.300781 62.265625 14.300781 61.214844 C 14.300781 60.269531 14.898438 59.535156 15.800781 59.535156 C 16.300781 59.535156 16.699219 59.746094 17 60.058594 Z M 16.601562 60.480469 "/>
    <path style=" stroke:none;fill-rule:evenodd;fill:rgb(36.862745%,10.196078%,18.039216%);fill-opacity:1;" d="M 20.300781 62.265625 C 20 62.789062 19.5 63 19 63 C 18 63 17.398438 62.160156 17.398438 61.214844 C 17.398438 60.269531 18.101562 59.535156 19 59.535156 C 19.898438 59.535156 20.398438 60.164062 20.398438 61.214844 L 20.398438 61.425781 L 17.898438 61.425781 C 18 61.949219 18.398438 62.476562 18.898438 62.476562 C 19.398438 62.476562 19.699219 62.265625 19.898438 61.949219 Z M 19.898438 60.898438 C 19.800781 60.375 19.5 60.058594 18.898438 60.058594 C 18.398438 60.058594 18 60.375 17.898438 60.898438 Z M 19.898438 60.898438 "/>
    <path style=" stroke:none;fill-rule:nonzero;fill:rgb(36.862745%,10.196078%,18.039216%);fill-opacity:1;" d="M 24.898438 62.894531 L 24.398438 62.894531 L 24.398438 58.695312 L 24.300781 58.695312 L 23.5 59.429688 L 23.199219 59.011719 L 24.398438 57.960938 L 24.898438 57.960938 Z M 24.898438 62.894531 "/>
    <path style=" stroke:none;fill-rule:evenodd;fill:rgb(36.862745%,10.196078%,18.039216%);fill-opacity:1;" d="M 28.5 60.796875 C 28.300781 60.898438 28 61.003906 27.898438 61.003906 C 27.101562 61.003906 26.5 60.375 26.5 59.429688 C 26.5 58.484375 27.101562 57.855469 28 57.855469 C 28.898438 57.855469 29.601562 58.484375 29.601562 59.429688 C 29.601562 59.953125 29.398438 60.375 29.101562 60.796875 L 27.898438 62.894531 L 27.300781 62.894531 Z M 29 59.429688 C 29 58.800781 28.601562 58.378906 28 58.378906 C 27.5 58.378906 27 58.800781 27 59.429688 C 27 60.058594 27.5 60.480469 28 60.480469 C 28.601562 60.480469 29 60.058594 29 59.429688 Z M 29 59.429688 "/>
    <path style=" stroke:none;fill-rule:nonzero;fill:rgb(36.862745%,10.196078%,18.039216%);fill-opacity:1;" d="M 33 58.484375 L 31.101562 62.894531 L 30.5 62.894531 L 32.398438 58.484375 L 30.101562 58.484375 L 30.101562 57.960938 L 33 57.960938 Z M 33 58.484375 "/>
    <path style=" stroke:none;fill-rule:nonzero;fill:rgb(36.862745%,10.196078%,18.039216%);fill-opacity:1;" d="M 35.800781 62.894531 L 35.300781 62.894531 L 35.300781 58.695312 L 35.199219 58.695312 L 34.398438 59.429688 L 34.101562 59.011719 L 35.300781 57.960938 L 35.800781 57.960938 Z M 35.800781 62.894531 "/>
    <path style=" stroke:none;fill-rule:nonzero;fill:rgb(100%,100%,100%);fill-opacity:1;" d="M 257 63 C 241 40.84375 273 85.15625 257 63 Z M 257 63 "/>
  </g>
</svg>